<?xml version="1.0" standalone="no"?>
<!DOCTYPE svg PUBLIC "-//W3C//DTD SVG 1.1//EN" "http://www.w3.org/Graphics/SVG/1.1/DTD/svg11.dtd" >
<svg xmlns="http://www.w3.org/2000/svg" xmlns:xlink="http://www.w3.org/1999/xlink" version="1.1">
<metadata>
Created by FontForge 20170910 at Fri Jan  1 01:00:00 1904
 By Jimmy Wärting
</metadata>
<defs>
<font id="Memphis-Bold" horiz-adv-x="250" >
  <font-face 
    font-family="Memphis-Bold"
    font-weight="500"
    font-stretch="normal"
    units-per-em="1000"
    panose-1="0 0 0 0 0 0 0 0 0 0"
    ascent="800"
    descent="-200"
    x-height="462"
    cap-height="722"
    bbox="-166 -229 1000 983"
    underline-thickness="50"
    underline-position="-105"
    unicode-range="U+0020-F002"
  />
<missing-glyph 
 />
    <glyph glyph-name=".notdef" 
 />
    <glyph glyph-name="glyph1" horiz-adv-x="0" 
 />
    <glyph glyph-name="glyph2" 
 />
    <glyph glyph-name="space" unicode=" " 
 />
    <glyph glyph-name="space" unicode="&#xa0;" 
 />
    <glyph glyph-name="exclam" unicode="!" horiz-adv-x="333" 
d="M166 168q37 -1 63 -26.5t26 -63.5q0 -37 -26 -62.5t-63 -25.5t-63 25.5t-26 62.5q0 38 26 63.5t63 25.5v1zM89 722h156q-9 -84 -14.5 -168.5t-8.5 -168.5q-1 -42 -1 -84v-84l-108 1q1 41 0.5 83t-1.5 84q-3 84 -8.5 168.5t-14.5 167.5v1z" />
    <glyph glyph-name="quotedbl" unicode="&#x22;" horiz-adv-x="333" 
d="M123 657l-19 -204q0 -3 -1.5 -7t-3.5 -8q-3 -6 -9 -11.5t-15 -5.5q-10 0 -16 5.5t-9 11.5q-2 4 -3.5 8t-1.5 6l-19 205v3v5q-1 2 -1 5v6v7t1 7q2 18 12 32.5t37 14.5q26 0 36 -14.5t12 -31.5q1 -4 1 -8v-8v-5.5v-4.5q-1 -3 -1 -5v-4v1zM307 657l-19 -204q0 -3 -1.5 -7
t-3.5 -8q-3 -6 -9 -11.5t-16 -5.5q-9 0 -15 5.5t-9 11.5q-2 4 -3.5 8t-1.5 6l-19 205v3.5v5.5q-1 2 -1 5v6v6.5t1 6.5q1 17 11 32t37 15q26 0 36.5 -14.5t12.5 -31.5q1 -4 1 -8v-8v-5.5v-4.5q-1 -3 -1 -5v-4v1z" />
    <glyph glyph-name="numbersign" unicode="#" horiz-adv-x="500" 
d="M461 290l-12 -90h-84l-26 -200h-90l27 200h-91l-27 -200h-89l26 200h-82l11 90h83l17 120h-84l12 90h83l26 206h90l-26 -206h90l27 206h89l-26 -206h83l-11 -90h-83l-16 -120h83v0zM304 410h-91l-16 -120h91l16 120v0z" />
    <glyph glyph-name="dollar" unicode="$" horiz-adv-x="500" 
d="M210 683v76h57v-80q5 -2 9.5 -3.5t9.5 -2.5q18 -6 36.5 -14.5t35.5 -21.5v40h80v-196h-72q-7 37 -33.5 68t-65.5 41v-178q86 -28 147 -71.5t61 -142.5q0 -76 -53.5 -139t-154.5 -64v-81h-57v85q-32 1 -60.5 16.5t-48.5 37.5v-53h-80v226h77q5 -45 35 -81.5t77 -43.5v206
q-72 21 -128.5 62.5t-56.5 117.5q0 82 50.5 139t134.5 56v1zM267 292v-197q0 -1 0.5 -1h1.5h1.5h0.5q39 0 66.5 27.5t27.5 69.5q0 40 -25 59.5t-55 32.5q-3 1 -6 2.5t-6 2.5q-2 1 -3.5 1.5t-2.5 1.5v1zM210 428v166q-34 -3 -54.5 -25.5t-20.5 -54.5q0 -34 20.5 -55.5
t54.5 -31.5v1z" />
    <glyph glyph-name="percent" unicode="%" horiz-adv-x="833" 
d="M175 -28l417 752h73l-418 -752h-72v0zM628 -16q-67 0 -117 45.5t-50 115.5q0 71 48.5 116.5t118.5 45.5t118.5 -46.5t48.5 -115.5q0 -68 -50.5 -114.5t-116.5 -46.5v0zM628 218q-30 -1 -53.5 -19.5t-23.5 -53.5t23.5 -53.5t53.5 -18.5t53.5 18.5t23.5 53.5t-23.5 53.5
t-53.5 18.5v1zM206 398q-67 -1 -117 45t-50 116q0 71 48.5 116.5t118.5 45.5t118.5 -46.5t48.5 -115.5q0 -68 -50.5 -115t-116.5 -47v1zM206 632q-30 -1 -53.5 -19.5t-23.5 -53.5t23.5 -53.5t53.5 -18.5t53.5 18.5t23.5 53.5t-23.5 53.5t-53.5 18.5v1z" />
    <glyph glyph-name="ampersand" unicode="&#x26;" horiz-adv-x="722" 
d="M514 0l-75 80q-2 -3 -3.5 -4.5t-3.5 -2.5q-45 -41 -92.5 -65t-109.5 -24q-79 0 -135 52t-56 133q0 48 20 85t45 63q23 25 43 39.5t21 18.5q-33 32 -58 79.5t-25 104.5q0 68 49.5 115t123.5 47q68 0 116 -47t48 -115q0 -57 -30.5 -105t-72.5 -82q1 0 20.5 -20.5
t43.5 -44.5q21 -22 40 -41.5t23 -23.5q22 33 41 67.5t32 70.5l-58 1v95h213v-95h-51q-17 -62 -45 -115t-62 -102l67 -69h91v-95h-160v0zM368 153l-135 148q-1 -2 -1.5 -2.5l-1.5 -1.5q-28 -25 -52 -56.5t-24 -73.5q0 -36 24 -58t59 -22q38 0 72 20t59 45v1zM252 443
q2 1 4.5 3t5.5 5q23 21 42.5 50t19.5 62q0 32 -18 52.5t-50 20.5q-29 0 -51 -20.5t-22 -52.5t18 -59.5t39 -49.5l6 -6l6 -6v1z" />
    <glyph glyph-name="quotesingle" unicode="'" horiz-adv-x="222" 
d="M160 657l-19 -204q0 -3 -1.5 -7t-3.5 -8q-3 -6 -9 -11.5t-16 -5.5q-9 0 -15 5.5t-9 11.5q-2 4 -3.5 8t-1.5 6l-19 205v3.5v5.5q-1 2 -1 5v6v6.5t1 6.5q1 17 11 32t37 15q26 0 36.5 -14.5t12.5 -31.5q1 -4 1 -8v-8v-5.5v-4.5q-1 -3 -1 -5v-4v1z" />
    <glyph glyph-name="parenleft" unicode="(" horiz-adv-x="278" 
d="M164 738h91q-51 -89 -81 -189t-33 -202v-10v-10q0 -113 30 -222t84 -209h-88q-55 94 -93 195t-38 211q0 102 23.5 191t66.5 175q9 17 18.5 34.5t19.5 34.5v1z" />
    <glyph glyph-name="parenright" unicode=")" horiz-adv-x="278" 
d="M114 -104h-91q51 88 81 187.5t33 201.5v10v10q0 113 -30 222.5t-84 209.5l88 1q56 -95 93.5 -196.5t37.5 -211.5q0 -102 -23.5 -191t-66.5 -174q-9 -17 -18.5 -34.5t-19.5 -34.5v0z" />
    <glyph glyph-name="asterisk" unicode="*" horiz-adv-x="444" 
d="M87 664l101 -54l-6 112h91l-16 -117l110 40l21 -95l-117 -13l71 -101l-85 -41l-42 108l-76 -90l-66 64l94 74l-111 22l31 91v0z" />
    <glyph glyph-name="plus" unicode="+" horiz-adv-x="600" 
d="M247 284v178h105v-178h178v-105h-178v-179h-105v179h-177v105h177v0z" />
    <glyph glyph-name="comma" unicode="," 
d="M4 -40l83 213h127l-83 -213h-127v0z" />
    <glyph glyph-name="hyphen" unicode="-" horiz-adv-x="333" 
d="M44 309h245v-104h-245v104v0z" />
    <glyph glyph-name="period" unicode="." 
d="M125 168q37 -1 63 -26.5t26 -63.5q0 -37 -26 -62.5t-63 -25.5t-63 25.5t-26 62.5q0 38 26 63.5t63 25.5v1z" />
    <glyph glyph-name="slash" unicode="/" horiz-adv-x="278" 
d="M288 738l-216 -754h-82l216 754h82v0z" />
    <glyph glyph-name="zero" unicode="0" horiz-adv-x="500" 
d="M36 217v272q0 108 62 170t152 62t152 -62t62 -171v-271q0 -110 -62 -171.5t-152 -61.5t-152 61.5t-62 170.5v1zM156 499v-292q0 -49 22.5 -81.5t71.5 -32.5q50 0 72 32.5t22 80.5v293q0 47 -22 79.5t-72 32.5q-49 0 -71.5 -32.5t-22.5 -80.5v1z" />
    <glyph glyph-name="one" unicode="1" horiz-adv-x="500" 
d="M398 0h-285v95h82v516h-82v95h202v-611h83v-95v0z" />
    <glyph glyph-name="two" unicode="2" horiz-adv-x="500" 
d="M456 0h-417v110l194 234q6 6 12.5 14t13.5 16q26 32 48 68.5t22 77.5q0 35 -15.5 54.5t-34.5 28.5q-10 4 -19.5 6t-16.5 2t-14 -0.5t-14 -2.5q-25 -5 -45.5 -28t-20.5 -81v-75h-112v81q0 90 35.5 135.5t77.5 63.5q25 10 48.5 13.5t39.5 3.5q92 0 143.5 -49.5t63.5 -108.5
q2 -9 3 -18t1 -18q0 -44 -13.5 -77.5t-35.5 -64.5q-10 -14 -21.5 -28.5t-23.5 -30.5l-168 -216h157v95h112v-205v0z" />
    <glyph glyph-name="three" unicode="3" horiz-adv-x="500" 
d="M226 317v89q52 0 78 23.5t26 76.5q0 43 -19.5 74t-67.5 31q-49 0 -67 -33t-18 -88v-49h-112v31q0 111 38 163.5t84 70.5q22 9 42.5 12t37.5 3q16 0 40 -4.5t50 -16.5q42 -20 77 -66t35 -131q0 -45 -15 -76.5t-32 -48.5q-6 -6 -11 -10t-10 -7v-1q41 -26 59.5 -67.5
t18.5 -89.5q0 -103 -58.5 -161t-150.5 -58q-111 0 -162 74.5t-51 168.5v5.5t1 4.5v4.5v4.5l112 1q1 -60 18 -107t82 -47q46 0 67 33.5t22 72.5v3.5v2.5q0 58 -28 85t-86 26v1z" />
    <glyph glyph-name="four" unicode="4" horiz-adv-x="500" 
d="M282 95v74h-251v109l255 428h108v-437h71v-100h-71v-74h71v-95h-269v95h86v0zM127 269h155v255h-3l-152 -255v0z" />
    <glyph glyph-name="five" unicode="5" horiz-adv-x="500" 
d="M97 706h308v-110h-188v-132q2 -1 4 -1h5h4h4q115 0 172 -61t58 -174v-3v-4q0 -20 -3 -43t-11 -47q-18 -56 -65 -101.5t-141 -45.5q-95 0 -143.5 50.5t-59.5 110.5q-2 10 -3 20t-1 20v38h112q1 -53 15.5 -91.5t77.5 -38.5q48 0 71.5 35t29.5 77q0 6 0.5 12.5t0.5 12.5
q0 76 -41 102t-113 26q-23 0 -46.5 -2.5t-46.5 -5.5v356v0z" />
    <glyph glyph-name="six" unicode="6" horiz-adv-x="500" 
d="M37 199v288q0 122 63.5 178t144.5 56q98 0 151.5 -61.5t53.5 -153.5l-112 1q-1 43 -22 73.5t-69 30.5q-38 0 -64 -32t-26 -105v-82q25 21 55.5 33t64.5 12q10 0 20 -1t20 -4q55 -13 101 -65t46 -150q0 -104 -57 -168.5t-165 -64.5q-6 0 -11.5 0.5t-11.5 1.5
q-68 8 -125 65t-57 147v1zM251 94q36 -1 64.5 30t28.5 86t-28.5 86t-64.5 31q-37 0 -65.5 -31t-28.5 -86t28.5 -86t65.5 -31v1z" />
    <glyph glyph-name="seven" unicode="7" horiz-adv-x="500" 
d="M159 475h-120v231h429v-110l-245 -596h-129l243 596h-178v-121v0z" />
    <glyph glyph-name="eight" unicode="8" horiz-adv-x="500" 
d="M250 722q85 -1 134.5 -46t65.5 -98q4 -14 6 -27t2 -26q0 -16 -3 -35t-10 -39q-9 -26 -27.5 -50.5t-48.5 -41.5v-1q48 -29 71 -71t23 -98q0 -91 -59.5 -148t-153.5 -57t-153.5 57t-59.5 148q0 56 23 98t71 70v3q-30 16 -48.5 40.5t-27.5 50.5q-7 20 -10 39t-3 35
q0 13 2 26t6 27q16 53 65.5 98t134.5 45v1zM250 94q39 -1 66 24.5t27 79.5t-27 79.5t-66 25.5t-66 -25.5t-27 -79.5t27 -79.5t66 -25.5v1zM250 612q-37 -1 -62.5 -26t-25.5 -76q0 -52 25.5 -77t62.5 -25q38 0 63 25t25 77q0 51 -25 76t-63 25v1z" />
    <glyph glyph-name="nine" unicode="9" horiz-adv-x="500" 
d="M464 507v-288q0 -124 -63.5 -179.5t-144.5 -55.5q-98 0 -151.5 61.5t-53.5 152.5l112 1q1 -44 22 -75t69 -31q38 0 64 32t26 105v84q-25 -23 -55.5 -35t-64.5 -12q-10 0 -20 1t-20 4q-55 13 -101 65t-46 150q0 104 57 169t165 65q6 0 11.5 -0.5t11.5 -1.5
q68 -8 125 -65.5t57 -147.5v1zM250 612q-36 -1 -64.5 -32t-28.5 -86t28.5 -86t64.5 -31q37 0 65.5 31t28.5 86t-28.5 86t-65.5 31v1z" />
    <glyph glyph-name="colon" unicode=":" 
d="M125 168q37 -1 63 -26.5t26 -63.5q0 -37 -26 -62.5t-63 -25.5t-63 25.5t-26 62.5q0 38 26 63.5t63 25.5v1zM125 472q37 -1 63 -26.5t26 -63.5q0 -37 -26 -63t-63 -26t-63 26t-26 63q0 38 26 63.5t63 25.5v1z" />
    <glyph glyph-name="semicolon" unicode=";" 
d="M4 -40l83 213h127l-83 -213h-127v0zM125 472q37 -1 63 -26.5t26 -63.5q0 -37 -26 -63t-63 -26t-63 26t-26 63q0 38 26 63.5t63 25.5v1z" />
    <glyph glyph-name="less" unicode="&#x3c;" horiz-adv-x="600" 
d="M554 78v-108l-508 216v90l508 216v-108l-363 -153l363 -153v0z" />
    <glyph glyph-name="equal" unicode="=" horiz-adv-x="600" 
d="M530 186v-105h-460v105h460v0zM530 381v-105h-460v105h460v0z" />
    <glyph glyph-name="greater" unicode="&#x3e;" horiz-adv-x="600" 
d="M46 78l363 153l-363 153v108l508 -216v-90l-508 -216v108v0z" />
    <glyph glyph-name="question" unicode="?" horiz-adv-x="500" 
d="M242 168q37 -1 63 -26.5t26 -63.5q0 -37 -26 -62.5t-63 -25.5t-63 25.5t-26 62.5q0 38 26 63.5t63 25.5v1zM142 506h-112q8 99 64.5 157t158.5 58q83 0 143 -56t60 -141q0 -82 -41 -133t-122 -67v-106h-115v196q6 -2 12 -2h12h16t15 1q45 2 76.5 27t31.5 73
q0 50 -27.5 74t-77.5 24q-49 0 -70.5 -31t-23.5 -75v1z" />
    <glyph glyph-name="at" unicode="@" horiz-adv-x="800" 
d="M529 508l10 35h79l-61 -260q-1 -6 -1.5 -12t-0.5 -13v-2.5v-2.5q1 -18 8 -32.5t22 -14.5q3 0 5.5 0.5t4.5 1.5q27 8 51.5 53t34.5 97q3 14 4.5 28.5t1.5 27.5v8t-1 8q-6 86 -77 158t-190 72q-16 0 -32 -2t-33 -7q-73 -21 -134.5 -95.5t-61.5 -223.5q0 -117 84 -194.5
t187 -77.5q62 0 105 11t82 30q5 3 10.5 5.5t10.5 5.5l10 -60q-48 -29 -101.5 -48.5t-115.5 -19.5q-157 0 -248.5 77t-124.5 170q-11 29 -16 57.5t-5 54.5q0 177 114 285.5t269 108.5q146 0 245.5 -91.5t99.5 -230.5q0 -17 -2 -35t-7 -36q-16 -71 -63.5 -130t-122.5 -59
q-30 0 -50 13t-31 29q-7 10 -10.5 20t-3.5 16v0v1v0v0l-2 1q-2 -7 -9.5 -17t-19.5 -20q-17 -15 -40.5 -28t-50.5 -14h-1.5h-1.5q-7 0 -15.5 1.5t-16.5 5.5q-25 10 -45.5 39.5t-20.5 86.5q0 22 5 50t15 56q22 62 68.5 113t118.5 51q32 0 44.5 -13t21.5 -29q0 -1 1 -2.5
t1 -2.5q1 -1 1.5 -2.5t1.5 -2.5v1zM505 426q0 33 -8.5 50.5t-31.5 17.5q-9 0 -19.5 -4t-20.5 -12q-29 -20 -53.5 -64.5t-24.5 -102.5q0 -43 13 -67t33 -24h4t4 1q34 4 64 53t40 151v1z" />
    <glyph glyph-name="A" unicode="A" horiz-adv-x="722" 
d="M277 0h-259v98h59l180 526h-79v98h373v-98h-78l175 -526h55v-98h-266v98h79l-49 141h-219l-49 -141h78v-98v0zM276 337h166l-81 244h-2l-83 -244v0z" />
    <glyph glyph-name="B" unicode="B" horiz-adv-x="611" 
d="M222 0h-189v98h76v526h-76v98h257q128 -1 188.5 -43t60.5 -139q0 -53 -28 -89t-75 -57q63 -25 97 -68t34 -113q0 -90 -50.5 -142t-136.5 -67q-14 -2 -31.5 -3t-35.5 -1q-18 -1 -34.5 -0.5t-30.5 0.5h-14.5h-11.5v0zM239 342v-244h54q65 -1 104.5 24t39.5 95
q0 48 -20 73.5t-44 37.5q-17 8 -33 10.5t-24 2.5l-77 1v0zM239 626v-186h52q5 -1 9.5 -1t9.5 1q37 2 68 22t31 74q0 40 -19 58.5t-42 24.5q-13 4 -25 5t-21 1l-63 1v0z" />
    <glyph glyph-name="C" unicode="C" horiz-adv-x="778" 
d="M697 488h-105q-7 30 -26 54t-45 40q-23 15 -49.5 24t-53.5 11h-7.5h-6.5q-113 0 -175 -76.5t-62 -180.5q0 -103 61 -180t176 -77q81 0 128 38t77 98l120 1q-31 -131 -119 -193.5t-206 -62.5q-156 0 -261.5 109t-105.5 271q0 173 99 264t218 106q12 1 24.5 2t24.5 1
q11 0 43 -3.5t68 -15.5q21 -7 41.5 -17.5t36.5 -25.5v47h105v-234v0z" />
    <glyph glyph-name="D" unicode="D" horiz-adv-x="722" 
d="M104 98v526h-77v98h257q81 -1 132 -14.5t81 -30.5q20 -10 33 -19.5t22 -15.5t27 -23t38 -45q27 -37 49 -93t22 -130q0 -58 -18.5 -105.5t-39.5 -81.5q-17 -25 -32 -41.5t-22 -21.5q-7 -6 -14.5 -11.5t-14.5 -10.5q-48 -36 -106 -57.5t-164 -21.5h-250v98h77v0zM234 624
v-528h73q129 -1 187.5 76.5t62.5 170.5q1 5 1 9.5v9.5q0 15 -1.5 30t-4.5 30q-14 75 -73 138t-182 63l-63 1v0z" />
    <glyph glyph-name="E" unicode="E" horiz-adv-x="611" 
d="M583 0h-556v98h77v526h-77v98h556v-191h-115v93h-234v-182h201v-114h-201v-230h234v118h115v-216v0z" />
    <glyph glyph-name="F" unicode="F" horiz-adv-x="611" 
d="M319 0h-292v98h77v526h-77v98h564v-191h-115v93h-242v-182h217v-114h-217v-230h85v-98v0z" />
    <glyph glyph-name="G" unicode="G" horiz-adv-x="833" 
d="M732 237v-237h-105v76q-42 -43 -96.5 -66.5t-112.5 -25.5h-4.5h-5.5q-167 0 -269 106.5t-102 272.5q0 146 108.5 260t266.5 114q44 0 79.5 -8t69.5 -26q12 -6 24.5 -14t25.5 -17v50h105v-250h-101q-5 35 -24.5 62.5t-48.5 45.5q-21 14 -45.5 22.5t-50.5 12.5
q-8 1 -16.5 1.5t-16.5 0.5q-107 0 -176.5 -74t-69.5 -179q0 -114 66 -187.5t184 -73.5q73 0 127 32t83 101l-168 1v106h350v-106h-77v0z" />
    <glyph glyph-name="H" unicode="H" horiz-adv-x="722" 
d="M309 0h-284v98h77v526h-77v98h284v-98h-77v-182h258v182h-77v98h284v-98h-77v-526h77v-98h-284v98h77v230h-258v-230h77v-98v0z" />
    <glyph glyph-name="I" unicode="I" horiz-adv-x="333" 
d="M306 0h-280v98h76v526h-76v98h280v-98h-74v-526h74v-98v0z" />
    <glyph glyph-name="J" unicode="J" horiz-adv-x="333" 
d="M25 624v98h287v-98h-75v-553q0 -98 -36.5 -140.5t-120.5 -42.5h-59v128h34q25 -1 38.5 11.5t13.5 50.5v546h-82v0z" />
    <glyph glyph-name="K" unicode="K" horiz-adv-x="667" 
d="M366 98h72l-201 274h-2v-274h76v-98h-278v98h72v526h-70v98h276v-98h-76v-236l204 236h-70v98h271v-98h-51l-204 -242v-2l204 -282h55v-98h-278v98v0z" />
    <glyph glyph-name="L" unicode="L" horiz-adv-x="556" 
d="M531 0h-498v98h81v526h-81v98h299v-98h-88v-526h172v116h115v-214v0z" />
    <glyph glyph-name="M" unicode="M" horiz-adv-x="889" 
d="M405 88l-180 488h-2v-478h81v-98h-273v98h72v526h-72v98h274l139 -414h2l150 414h261v-98h-71v-526h71v-98h-272v98h81v478h-2l-179 -488h-80v0z" />
    <glyph glyph-name="N" unicode="N" horiz-adv-x="722" 
d="M517 0l-295 550h-2v-452h81v-98h-268v98h67v526h-67v98h237l230 -445h2v347h-74v98h269v-98h-75v-624h-105v0z" />
    <glyph glyph-name="O" unicode="O" horiz-adv-x="833" 
d="M416 -16q-174 0 -264.5 97t-109.5 214q-2 16 -3.5 32t-1.5 32q0 157 108 267.5t271 110.5q164 0 272 -110.5t108 -267.5q0 -160 -112.5 -267.5t-267.5 -107.5v0zM420 618q-119 -1 -186 -79.5t-67 -193.5q0 -101 70.5 -171.5t171.5 -70.5q112 0 184.5 75.5t72.5 185.5
q0 104 -70.5 178.5t-175.5 74.5v1z" />
    <glyph glyph-name="P" unicode="P" horiz-adv-x="611" 
d="M328 0h-301v98h79v526h-79v98h274q105 -1 192.5 -50.5t87.5 -178.5q0 -117 -67.5 -167.5t-148.5 -58.5q-9 -1 -19 -1.5t-19 -0.5l-91 1v-168h92v-98v0zM236 626v-262h33q1 -1 3 -1h5q3 -1 7 -1h9q13 0 30.5 1.5t36.5 7.5q34 10 62.5 37t28.5 85q0 60 -29 87.5t-64 37.5
q-18 5 -35.5 6.5t-30.5 1.5h-9h-7q-4 -1 -6 -1h-4l-30 1v0z" />
    <glyph glyph-name="Q" unicode="Q" horiz-adv-x="833" 
d="M544 -124l-58 115q-17 -4 -34.5 -5.5t-35.5 -1.5q-148 0 -235.5 79.5t-121.5 176.5q-11 32 -16.5 63.5t-5.5 60.5q0 153 108 263t271 110q164 0 272 -110t108 -263q0 -114 -56.5 -202.5t-145.5 -134.5l19 -37h102v-114h-171v0zM428 105l-37 73l97 57l49 -97q59 31 94 86
t35 140q0 104 -70.5 178.5t-175.5 74.5q-119 0 -186 -74.5t-67 -178.5q0 -122 70.5 -191.5t171.5 -69.5h10t9 1v1z" />
    <glyph glyph-name="R" unicode="R" horiz-adv-x="667" 
d="M315 0h-287v98h77v526h-77v98h310q3 -1 6 -1h6q22 0 53.5 -1.5t63.5 -12.5q25 -9 49.5 -25t44.5 -43q2 -3 4 -5.5t3 -4.5q19 -28 22 -53t3 -34v-0.5v-0.5q0 -63 -28 -101.5t-85 -62.5v-1q50 -13 67.5 -38t20.5 -53q1 -6 1 -12.5v-12.5v-162h70v-98h-200v253q0 39 -28 54
t-62 18q-9 1 -18 1.5t-18 0.5l-78 1v-230h80v-98v0zM235 624v-198h84q54 -1 99 17t45 91q0 53 -36 69.5t-80 18.5q-11 1 -22 1h-21l-69 1v0z" />
    <glyph glyph-name="S" unicode="S" horiz-adv-x="611" 
d="M56 247h101q9 -72 55 -118t119 -46q44 0 76.5 30.5t32.5 75.5q0 54 -28.5 74.5t-79.5 34.5q-20 5 -42 11t-46 13q-10 3 -37 9.5t-58 23.5q-37 21 -68 63.5t-31 119.5q0 17 5 38t15 42q22 45 71 82t134 37q42 0 80.5 -16.5t67.5 -44.5v46h105v-216h-100q-6 28 -18.5 52
t-30.5 41q-19 18 -43.5 28t-54.5 10q-44 0 -72.5 -25.5t-28.5 -72.5q0 -40 38.5 -59t93.5 -34q15 -4 31.5 -8.5t32.5 -9.5q74 -22 134 -63t60 -158q0 -101 -65 -162t-164 -61q-50 0 -95.5 14t-84.5 46v-44h-105v247v0z" />
    <glyph glyph-name="T" unicode="T" horiz-adv-x="611" 
d="M149 520h-115v202h542v-202h-115v104h-91v-526h87v-98h-304v98h87v526h-91v-104v0z" />
    <glyph glyph-name="U" unicode="U" horiz-adv-x="722" 
d="M31 624v98h280v-98h-78v-328v-11v-10v-10.5v-11.5q0 -56 21 -103t114 -47q85 0 103 47t18 103v10.5v10.5v10.5v10.5v329h-78v98h280v-98h-72v-383q0 -123 -62 -181.5t-137 -71.5q-13 -2 -25.5 -3t-24.5 -1q-109 0 -188 62t-79 178v400h-72v0z" />
    <glyph glyph-name="V" unicode="V" horiz-adv-x="667" 
d="M18 624v98h266v-98h-72l136 -399h2l107 399h-71v98h262v-98h-58l-194 -624h-93l-224 624h-61v0z" />
    <glyph glyph-name="W" unicode="W" horiz-adv-x="1000" 
d="M20 624v98h250v-98h-68l123 -406h2l114 406h-65v98h257v-98h-66l121 -406h2l119 406h-67v98h238v-98h-53l-196 -624h-89l-139 443h-2l-133 -443h-89l-206 624h-53v0z" />
    <glyph glyph-name="X" unicode="X" horiz-adv-x="667" 
d="M375 0v98h61l-107 160h-2l-107 -160h62v-98h-261v98h61l178 262v2l-171 262h-66v98h268v-98h-60l103 -154h2l107 154h-64v98h262v-98h-65l-174 -254v-2l181 -270h63v-98h-271v0z" />
    <glyph glyph-name="Y" unicode="Y" horiz-adv-x="667" 
d="M648 624h-49l-201 -282v-244h81v-98h-294v98h83v250l-198 276h-52v98h264v-98h-65l128 -181h2l126 181h-66v98h241v-98v0z" />
    <glyph glyph-name="Z" unicode="Z" horiz-adv-x="556" 
d="M531 624l-349 -526h234v125h115v-223h-507v95l351 529h-224v-97h-115v195h495v-98v0z" />
    <glyph glyph-name="bracketleft" unicode="[" horiz-adv-x="278" 
d="M259 -85h-222v807h222v-85h-117v-637h117v-85v0z" />
    <glyph glyph-name="backslash" unicode="\" horiz-adv-x="278" 
d="M-64 738h83l323 -754h-83l-323 754v0z" />
    <glyph glyph-name="bracketright" unicode="]" horiz-adv-x="278" 
d="M241 -85h-222v85h117v637h-117v85h222v-807v0z" />
    <glyph glyph-name="asciicircum" unicode="^" horiz-adv-x="600" 
d="M184 341h-110l176 365h100l175 -365h-110l-115 254l-116 -254v0z" />
    <glyph glyph-name="underscore" unicode="_" horiz-adv-x="500" 
d="M500 -125h-500v60h500v-60v0z" />
    <glyph glyph-name="grave" unicode="`" horiz-adv-x="333" 
d="M2 674h155l94 -146h-112l-137 146v0z" />
    <glyph glyph-name="a" unicode="a" horiz-adv-x="611" 
d="M506 367v-272h73v-95h-167v67h-2q-25 -35 -65.5 -56t-86.5 -21q-91 0 -160 65.5t-69 174.5t69 175t160 66q44 0 83.5 -20.5t67.5 -58.5l3 1v69h167v-95h-73v0zM276 86q67 -1 96.5 44t29.5 103q0 56 -29.5 99t-96.5 43q-66 0 -99 -43t-33 -99q0 -58 33 -103t99 -45v1z" />
    <glyph glyph-name="b" unicode="b" horiz-adv-x="611" 
d="M100 95v532h-69v95h184v-315q26 29 64 46.5t79 17.5q88 0 156 -66t68 -175t-68 -174.5t-156 -65.5q-49 0 -89.5 18.5t-66.5 54.5l-2 1v-64h-169v95h69v0zM334 86q67 -1 100 44t33 103q0 56 -33 99t-100 43q-66 0 -99 -43t-33 -99q0 -58 33 -103t99 -45v1z" />
    <glyph glyph-name="c" unicode="c" horiz-adv-x="500" 
d="M460 302h-79q-10 13 -21 27t-25 24q-14 11 -30 16.5t-35 5.5q-61 0 -93.5 -42.5t-32.5 -99.5q0 -61 32.5 -104.5t95.5 -43.5q32 0 62.5 18.5t53.5 40.5q4 5 8 9l8 8l71 -65q-6 -7 -11.5 -12.5l-10.5 -10.5q-41 -39 -85 -61t-106 -22q-98 0 -165.5 66t-67.5 177
q0 89 57 163.5t164 74.5q33 0 64.5 -12t53.5 -36v39h92v-160v0z" />
    <glyph glyph-name="d" unicode="d" horiz-adv-x="611" 
d="M411 0v60q-34 -36 -72.5 -53t-88.5 -17q-84 0 -151.5 65.5t-67.5 174.5t67.5 175t151.5 66q45 0 83 -17.5t63 -45.5v219h-67v95h182v-627h68v-95h-168v0zM278 86q67 -1 100 44t33 103q0 56 -33 99t-100 43q-66 0 -99 -43t-33 -99q0 -58 33 -103t99 -45v1z" />
    <glyph glyph-name="e" unicode="e" horiz-adv-x="556" 
d="M522 198h-374q5 -59 46 -86t94 -27q29 0 49 8t33 17q11 9 16.5 16t7.5 9l115 1q-2 -13 -10 -29.5t-21 -33.5q-26 -31 -74.5 -57t-125.5 -26q-106 0 -177.5 65.5t-71.5 174.5t71.5 175t177.5 66q119 0 181.5 -77.5t62.5 -196.5v1zM148 275h259q0 38 -38 67t-91 33
q-46 0 -83 -27t-47 -74v1z" />
    <glyph glyph-name="f" unicode="f" horiz-adv-x="333" 
d="M298 0h-263v95h70v272h-71v95h71v120q0 7 0.5 15t2.5 17q8 40 42.5 73.5t113.5 33.5l35 1v-96h-36q-25 -1 -34 -16.5t-9 -41.5v-106h76v-95h-76v-272h78v-95v0z" />
    <glyph glyph-name="g" unicode="g" horiz-adv-x="611" 
d="M407 462h172v-95h-68v-348q0 -127 -66 -177t-167 -50q-59 0 -113.5 13.5t-106.5 41.5v112q44 -34 93.5 -47.5t104.5 -14.5q74 -1 109 24.5t35 89.5v46q-2 -3 -4 -5l-4 -4q-30 -29 -62 -43.5t-80 -14.5q-85 0 -153 65.5t-68 174.5t68 175t153 66q51 0 89 -19.5t68 -50.5
v61v0zM276 86q67 -1 99 44t32 103q0 56 -32 99t-99 43q-66 0 -99 -43t-33 -99q0 -58 33 -103t99 -45v1z" />
    <glyph glyph-name="h" unicode="h" horiz-adv-x="611" 
d="M99 627h-67v95h182v-320q17 15 36 28t39 22t42.5 14t47.5 5q12 0 28.5 -3.5t33.5 -10.5q30 -14 55.5 -42.5t25.5 -78.5v-241h67v-95h-248v95h66v213q0 30 -20 48.5t-52 18.5q-36 0 -67 -19.5t-54 -45.5v-215h73v-95h-255v95h67v532v0z" />
    <glyph glyph-name="i" unicode="i" horiz-adv-x="333" 
d="M39 367v95h185v-367h70v-95h-253v95h68v272h-70v0zM224 667v-124h-159v124h159v0z" />
    <glyph glyph-name="j" unicode="j" horiz-adv-x="278" 
d="M36 367v95h180v-502q0 -90 -50 -124t-139 -44v99q38 5 56 30t18 63v383h-65v0zM57 543v124h159v-124h-159v0z" />
    <glyph glyph-name="k" unicode="k" horiz-adv-x="556" 
d="M479 95h44v-95h-227v95h40l-127 133v-133h49v-95h-221v95h57v532h-55v95h170v-471l131 116h-46v95h229v-95h-43l-140 -124v-2l139 -146v0z" />
    <glyph glyph-name="l" unicode="l" horiz-adv-x="333" 
d="M294 0h-255v95h70v532h-70v95h185v-627h70v-95v0z" />
    <glyph glyph-name="m" unicode="m" horiz-adv-x="889" 
d="M210 462v-60q30 34 68 51.5t85 17.5q6 0 12 -0.5t12 -1.5q33 -4 62.5 -22.5t39.5 -53.5q36 38 75 58t86 20q74 0 111 -41t37 -137v-198h66v-95h-243v95h62v218q0 27 -18.5 44.5t-50.5 17.5t-56 -16.5t-39 -36.5q-4 -5 -7 -9.5t-6 -8.5v-209h62v-95h-239v95h62v218
q0 27 -18.5 44.5t-50.5 17.5t-56 -16.5t-39 -36.5q-4 -5 -7 -9.5t-6 -8.5v-209h62v-95h-243v95h66v272h-63v95h174v0z" />
    <glyph glyph-name="n" unicode="n" horiz-adv-x="611" 
d="M211 462v-60q7 4 13 9t13 10q13 9 26 17t26 14q20 9 42.5 14t47.5 5q12 0 28.5 -3.5t33.5 -10.5q30 -14 55.5 -42.5t25.5 -78.5v-241h67v-95h-248v95h66v213q0 30 -20 48.5t-52 18.5q-36 0 -67 -19.5t-54 -45.5v-215h73v-95h-255v95h67v272h-65v95h177v0z" />
    <glyph glyph-name="o" unicode="o" horiz-adv-x="556" 
d="M527 231q0 -110 -71 -175.5t-178 -65.5q-106 0 -177.5 65.5t-71.5 174.5t71.5 175t177.5 66q107 0 178 -66t71 -175v1zM412 231v0.5v1.5q-1 53 -32.5 97.5t-101.5 44.5t-101.5 -44.5t-32.5 -97.5v-1.5v-1.5v-1.5v-1.5q1 -53 32.5 -97.5t101.5 -44.5t101.5 44.5t32.5 97.5
v1.5v1.5v1z" />
    <glyph glyph-name="p" unicode="p" horiz-adv-x="611" 
d="M206 462v-63q10 9 20 17.5t20 15.5q25 20 53.5 29.5t68.5 9.5q80 0 147 -66t67 -175t-67 -174.5t-147 -65.5q-55 0 -93.5 15.5t-58.5 42.5l1 2h-2v-163h69v-95h-252v95h68v480h-68v95h174v0zM334 86q67 -1 100 44t33 103q0 56 -33 99t-100 43q-66 0 -99 -43t-33 -99
q0 -58 33 -103t99 -45v1z" />
    <glyph glyph-name="q" unicode="q" horiz-adv-x="611" 
d="M512 367v-480h68v-95h-252v95h69v164h-2q-19 -29 -58.5 -45t-88.5 -16q-83 0 -150.5 65.5t-67.5 174.5t67.5 175t150.5 66q36 0 63 -8.5t52 -26.5q11 -8 21.5 -17t21.5 -20v63h174v-95h-68v0zM277 86q67 -1 100 44t33 103q0 56 -33 99t-100 43q-66 0 -99 -43t-33 -99
q0 -58 33 -103t99 -45v1z" />
    <glyph glyph-name="r" unicode="r" horiz-adv-x="389" 
d="M208 462v-63h6q0 2 0.5 5t0.5 6q6 23 27.5 42t56.5 19h2.5h2.5q31 -2 56 -23t25 -60q0 -37 -25.5 -59.5t-60.5 -22.5q-33 0 -56.5 19t-28.5 47l-6 1v-278h65v-95h-236v95h56v272h-56v95h171v0z" />
    <glyph glyph-name="s" unicode="s" horiz-adv-x="500" 
d="M334 437v25h92v-149h-97q-4 19 -12.5 33t-22.5 23q-13 9 -29.5 13.5t-35.5 4.5h-8.5t-9.5 -1q-21 -2 -39 -12.5t-18 -37.5q0 -24 27.5 -32.5t67.5 -14.5q13 -2 27.5 -4t29.5 -5q56 -10 103 -39t48 -106q1 -81 -52 -113t-124 -32q-11 0 -22.5 1t-23.5 3q-23 4 -44.5 12
t-36.5 23v-29h-100v157h99q8 -21 18.5 -36.5t24.5 -26.5q15 -10 33 -15.5t40 -5.5q7 0 14.5 0.5t15.5 1.5q20 2 37 11.5t17 32.5q0 30 -31.5 40.5t-75.5 17.5q-11 1 -22 3l-22 4q-57 10 -104.5 36.5t-47.5 99.5q0 77 51 114t122 37q30 0 58.5 -8.5t52.5 -26.5v1z" />
    <glyph glyph-name="t" unicode="t" horiz-adv-x="333" 
d="M29 462h68v160h115v-160h81v-95h-81v-243q0 -23 9 -30.5t26 -6.5h4.5h5.5l29 3v-90q-5 -1 -12 -2t-16 -2q-3 -1 -6.5 -1.5t-6.5 -0.5q-12 -2 -23 -3t-18 -1q-64 0 -85.5 25.5t-21.5 85.5v266h-68v95v0z" />
    <glyph glyph-name="u" unicode="u" horiz-adv-x="611" 
d="M400 0v60q-28 -28 -66.5 -46.5t-78.5 -22.5q-4 -1 -8.5 -1h-8.5q-66 0 -105 31t-39 119v227h-64v95h179v-283q0 -53 13 -73.5t56 -20.5q7 0 23 2.5t34 11.5q22 12 41 38.5t19 76.5v153h-71v95h186v-367h66v-95h-176v0z" />
    <glyph glyph-name="v" unicode="v" horiz-adv-x="556" 
d="M312 -6h-80l-155 373h-54v95h226v-95h-49l80 -212h2l84 212h-57v95h224v-95h-53l-168 -373v0z" />
    <glyph glyph-name="w" unicode="w" horiz-adv-x="833" 
d="M81 367h-50v95h211v-95h-49l78 -226h2l93 226h-55v95h220v-95h-59l88 -231h2l92 231h-60v95h208v-95h-44l-156 -373h-78l-109 253l-105 -253h-76l-153 373v0z" />
    <glyph glyph-name="x" unicode="x" horiz-adv-x="556" 
d="M37 95h55l119 134v2l-114 136h-60v95h184v-73l61 -77h2l59 77v73h175v-95h-69l-114 -132v-2l116 -138h67v-95h-194v86l-56 73h-2l-51 -67v-92h-178v95v0z" />
    <glyph glyph-name="y" unicode="y" horiz-adv-x="556" 
d="M268 -113h76v-95h-271v95h80l57 122l-156 358h-41v95h220v-95h-62l98 -228h2l109 228h-63v95h226v-95h-51l-224 -480v0z" />
    <glyph glyph-name="z" unicode="z" horiz-adv-x="444" 
d="M267 367h-128v-60h-104v155h375v-95l-238 -272h144v60h104v-155h-396v95l243 272v0z" />
    <glyph glyph-name="braceleft" unicode="{" horiz-adv-x="333" 
d="M115 32v174q0 46 -14.5 71.5t-61.5 38.5q47 14 61.5 39t14.5 72v175q0 86 43 110.5t136 24.5v-10q-42 -12 -58 -41.5t-16 -79.5v-163q0 -53 -14.5 -83t-66.5 -43v-1q52 -14 66.5 -44t14.5 -82v-163q0 -50 16 -79.5t58 -40.5v-11q-93 0 -136 24.5t-43 110.5v1z" />
    <glyph glyph-name="bar" unicode="|" horiz-adv-x="222" 
d="M59 0v722h105v-722h-105v0z" />
    <glyph glyph-name="braceright" unicode="}" horiz-adv-x="333" 
d="M218 602v-174q0 -48 15 -73t61 -39q-46 -13 -61 -38.5t-15 -72.5v-173q0 -87 -43 -111.5t-136 -24.5v11q42 11 58 40.5t16 78.5v165q0 51 14.5 81t66.5 43v3q-52 12 -66.5 42t-14.5 82v165q0 49 -16 78.5t-58 40.5v12q93 -1 136 -25.5t43 -111.5v1z" />
    <glyph glyph-name="asciitilde" unicode="~" horiz-adv-x="600" 
d="M495 321l36 -90q-1 -2 -2 -3.5t-2 -2.5q-22 -31 -49.5 -56t-71.5 -25q-25 0 -45.5 7.5t-40.5 17.5q-5 2 -9 4.5t-9 4.5q-25 13 -51.5 23.5t-61.5 10.5q-31 0 -50 -21t-31 -46q-1 -1 -1.5 -2.5t-1.5 -2.5l-36 91q1 0 1.5 1.5t1.5 2.5q17 31 45.5 56t76.5 25q14 0 28.5 -3
t29.5 -8q14 -4 28.5 -10.5t28.5 -12.5q29 -13 54 -23.5t44 -10.5q28 0 48 21t36 46q1 1 2 2.5t2 2.5v1z" />
    <glyph glyph-name="Adieresis" unicode="&#xc4;" horiz-adv-x="722" 
d="M277 0h-259v98h59l180 526h-79v98h373v-98h-78l175 -526h55v-98h-266v98h79l-49 141h-219l-49 -141h78v-98v0zM276 337h166l-81 244h-2l-83 -244v0zM327 779h-125v114h125v-114v0zM521 779h-125v114h125v-114v0z" />
    <glyph glyph-name="Aring" unicode="&#xc5;" horiz-adv-x="722" 
d="M277 0h-259v98h59l180 526h-79v98h373v-98h-78l175 -526h55v-98h-266v98h79l-49 141h-219l-49 -141h78v-98v0zM276 337h166l-81 244h-2l-83 -244v0zM361 771q-44 -1 -75 30.5t-31 75.5t31 75t75 31t75.5 -31t31.5 -75t-31.5 -75.5t-75.5 -31.5v1zM306 878
q0 -26 15.5 -41.5t39.5 -15.5t40 16t16 40q0 23 -16.5 39t-39.5 16q-24 0 -39.5 -16t-15.5 -39v1z" />
    <glyph glyph-name="Ccedilla" unicode="&#xc7;" horiz-adv-x="778" 
d="M274 -203l19 42q2 -1 3.5 -1.5t3.5 -0.5q11 -4 21.5 -7t21.5 -5q6 -2 12.5 -2.5t12.5 -0.5q22 0 38 9t16 34q0 13 -10 21.5t-22 10.5q-2 1 -3.5 1h-3.5q-8 0 -15.5 -1t-14.5 -3q-4 -1 -7.5 -2t-7.5 -2l-21 20l59 90h53l-43 -63q4 1 8.5 2t8.5 2t8.5 1.5t8.5 0.5
q35 0 62.5 -20t27.5 -57q0 -42 -31 -64.5t-69 -28.5q-7 -1 -13.5 -1.5t-13.5 -0.5q-28 0 -55.5 7.5t-53.5 18.5v0zM697 488h-105q-7 30 -26 54t-45 40q-23 15 -49.5 24t-53.5 11h-7.5h-6.5q-113 0 -175 -76.5t-62 -180.5q0 -103 61 -180t176 -77q81 0 128 38t77 98l120 1
q-31 -131 -119 -193.5t-206 -62.5q-156 0 -261.5 109t-105.5 271q0 173 99 264t218 106q12 1 24.5 2t24.5 1q11 0 43 -3.5t68 -15.5q21 -7 41.5 -17.5t36.5 -25.5v47h105v-234v0z" />
    <glyph glyph-name="Eacute" unicode="&#xc9;" horiz-adv-x="611" 
d="M583 0h-556v98h77v526h-77v98h556v-191h-115v93h-234v-182h201v-114h-201v-230h234v118h115v-216v0zM221 768l94 146h155l-137 -146h-112v0z" />
    <glyph glyph-name="Ntilde" unicode="&#xd1;" horiz-adv-x="722" 
d="M517 0l-295 550h-2v-452h81v-98h-268v98h67v526h-67v98h237l230 -445h2v347h-74v98h269v-98h-75v-624h-105v0zM480 902h65q-10 -47 -33.5 -84t-77.5 -37q-20 0 -39 5t-38 12q-18 7 -35.5 12t-34.5 5q-19 0 -30 -12t-16 -29l-62 1q7 47 34.5 84t80.5 37q20 0 39.5 -5
t37.5 -13q19 -7 34.5 -13t27.5 -6q19 0 31 13t16 29v1z" />
    <glyph glyph-name="Odieresis" unicode="&#xd6;" horiz-adv-x="833" 
d="M416 -16q-174 0 -264.5 97t-109.5 214q-2 16 -3.5 32t-1.5 32q0 157 108 267.5t271 110.5q164 0 272 -110.5t108 -267.5q0 -160 -112.5 -267.5t-267.5 -107.5v0zM420 618q-119 -1 -186 -79.5t-67 -193.5q0 -101 70.5 -171.5t171.5 -70.5q112 0 184.5 75.5t72.5 185.5
q0 104 -70.5 178.5t-175.5 74.5v1zM382 779h-125v114h125v-114v0zM576 779h-125v114h125v-114v0z" />
    <glyph glyph-name="Udieresis" unicode="&#xdc;" horiz-adv-x="722" 
d="M31 624v98h280v-98h-78v-328v-11v-10v-10.5v-11.5q0 -56 21 -103t114 -47q85 0 103 47t18 103v10.5v10.5v10.5v10.5v329h-78v98h280v-98h-72v-383q0 -123 -62 -181.5t-137 -71.5q-13 -2 -25.5 -3t-24.5 -1q-109 0 -188 62t-79 178v400h-72v0zM325 779h-125v114h125v-114
v0zM519 779h-125v114h125v-114v0z" />
    <glyph glyph-name="aacute" unicode="&#xe1;" horiz-adv-x="611" 
d="M506 367v-272h73v-95h-167v67h-2q-25 -35 -65.5 -56t-86.5 -21q-91 0 -160 65.5t-69 174.5t69 175t160 66q44 0 83.5 -20.5t67.5 -58.5l3 1v69h167v-95h-73v0zM276 86q67 -1 96.5 44t29.5 103q0 56 -29.5 99t-96.5 43q-66 0 -99 -43t-33 -99q0 -58 33 -103t99 -45v1z
M203 528l94 146h155l-137 -146h-112v0z" />
    <glyph glyph-name="agrave" unicode="&#xe0;" horiz-adv-x="611" 
d="M506 367v-272h73v-95h-167v67h-2q-25 -35 -65.5 -56t-86.5 -21q-91 0 -160 65.5t-69 174.5t69 175t160 66q44 0 83.5 -20.5t67.5 -58.5l3 1v69h167v-95h-73v0zM276 86q67 -1 96.5 44t29.5 103q0 56 -29.5 99t-96.5 43q-66 0 -99 -43t-33 -99q0 -58 33 -103t99 -45v1z
M123 674h155l94 -146h-112l-137 146v0z" />
    <glyph glyph-name="acircumflex" unicode="&#xe2;" horiz-adv-x="611" 
d="M506 367v-272h73v-95h-167v67h-2q-25 -35 -65.5 -56t-86.5 -21q-91 0 -160 65.5t-69 174.5t69 175t160 66q44 0 83.5 -20.5t67.5 -58.5l3 1v69h167v-95h-73v0zM276 86q67 -1 96.5 44t29.5 103q0 56 -29.5 99t-96.5 43q-66 0 -99 -43t-33 -99q0 -58 33 -103t99 -45v1z
M224 674h125l115 -146h-114l-63 82l-64 -82h-112l113 146v0z" />
    <glyph glyph-name="adieresis" unicode="&#xe4;" horiz-adv-x="611" 
d="M506 367v-272h73v-95h-167v67h-2q-25 -35 -65.5 -56t-86.5 -21q-91 0 -160 65.5t-69 174.5t69 175t160 66q44 0 83.5 -20.5t67.5 -58.5l3 1v69h167v-95h-73v0zM276 86q67 -1 96.5 44t29.5 103q0 56 -29.5 99t-96.5 43q-66 0 -99 -43t-33 -99q0 -58 33 -103t99 -45v1z
M253 539h-125v114h125v-114v0zM447 539h-125v114h125v-114v0z" />
    <glyph glyph-name="atilde" unicode="&#xe3;" horiz-adv-x="611" 
d="M506 367v-272h73v-95h-167v67h-2q-25 -35 -65.5 -56t-86.5 -21q-91 0 -160 65.5t-69 174.5t69 175t160 66q44 0 83.5 -20.5t67.5 -58.5l3 1v69h167v-95h-73v0zM276 86q67 -1 96.5 44t29.5 103q0 56 -29.5 99t-96.5 43q-66 0 -99 -43t-33 -99q0 -58 33 -103t99 -45v1z
M406 662h65q-10 -47 -33.5 -84t-77.5 -37q-20 0 -39 5t-38 12q-18 7 -35.5 12t-34.5 5q-19 0 -30 -12t-16 -29l-62 1q7 47 34.5 84t80.5 37q20 0 39.5 -5t37.5 -13q19 -7 34.5 -13t27.5 -6q19 0 31 13t16 29v1z" />
    <glyph glyph-name="aring" unicode="&#xe5;" horiz-adv-x="611" 
d="M506 367v-272h73v-95h-167v67h-2q-25 -35 -65.5 -56t-86.5 -21q-91 0 -160 65.5t-69 174.5t69 175t160 66q44 0 83.5 -20.5t67.5 -58.5l3 1v69h167v-95h-73v0zM276 86q67 -1 96.5 44t29.5 103q0 56 -29.5 99t-96.5 43q-66 0 -99 -43t-33 -99q0 -58 33 -103t99 -45v1z
M287 531q-44 -1 -75 30.5t-31 75.5t31 75t75 31t75.5 -31t31.5 -75t-31.5 -75.5t-75.5 -31.5v1zM232 638q0 -26 15.5 -41.5t39.5 -15.5t40 16t16 40q0 23 -16.5 39t-39.5 16q-24 0 -39.5 -16t-15.5 -39v1z" />
    <glyph glyph-name="ccedilla" unicode="&#xe7;" horiz-adv-x="500" 
d="M125 -203l19 42q2 -1 3.5 -1.5t3.5 -0.5q11 -4 21.5 -7t21.5 -5q6 -2 12.5 -2.5t12.5 -0.5q22 0 38 9t16 34q0 13 -10 21.5t-22 10.5q-2 1 -3.5 1h-3.5q-8 0 -15.5 -1t-14.5 -3q-4 -1 -7.5 -2t-7.5 -2l-21 20l59 90h53l-43 -63q4 1 8.5 2t8.5 2t8.5 1.5t8.5 0.5
q35 0 62.5 -20t27.5 -57q0 -42 -31 -64.5t-69 -28.5q-7 -1 -13.5 -1.5t-13.5 -0.5q-28 0 -55.5 7.5t-53.5 18.5v0zM460 302h-79q-10 13 -21 27t-25 24q-14 11 -30 16.5t-35 5.5q-61 0 -93.5 -42.5t-32.5 -99.5q0 -61 32.5 -104.5t95.5 -43.5q32 0 62.5 18.5t53.5 40.5
q4 5 8 9l8 8l71 -65q-6 -7 -11.5 -12.5l-10.5 -10.5q-41 -39 -85 -61t-106 -22q-98 0 -165.5 66t-67.5 177q0 89 57 163.5t164 74.5q33 0 64.5 -12t53.5 -36v39h92v-160v0z" />
    <glyph glyph-name="eacute" unicode="&#xe9;" horiz-adv-x="556" 
d="M522 198h-374q5 -59 46 -86t94 -27q29 0 49 8t33 17q11 9 16.5 16t7.5 9l115 1q-2 -13 -10 -29.5t-21 -33.5q-26 -31 -74.5 -57t-125.5 -26q-106 0 -177.5 65.5t-71.5 174.5t71.5 175t177.5 66q119 0 181.5 -77.5t62.5 -196.5v1zM148 275h259q0 38 -38 67t-91 33
q-46 0 -83 -27t-47 -74v1zM194 528l94 146h155l-137 -146h-112v0z" />
    <glyph glyph-name="egrave" unicode="&#xe8;" horiz-adv-x="556" 
d="M522 198h-374q5 -59 46 -86t94 -27q29 0 49 8t33 17q11 9 16.5 16t7.5 9l115 1q-2 -13 -10 -29.5t-21 -33.5q-26 -31 -74.5 -57t-125.5 -26q-106 0 -177.5 65.5t-71.5 174.5t71.5 175t177.5 66q119 0 181.5 -77.5t62.5 -196.5v1zM148 275h259q0 38 -38 67t-91 33
q-46 0 -83 -27t-47 -74v1zM114 674h155l94 -146h-112l-137 146v0z" />
    <glyph glyph-name="ecircumflex" unicode="&#xea;" horiz-adv-x="556" 
d="M522 198h-374q5 -59 46 -86t94 -27q29 0 49 8t33 17q11 9 16.5 16t7.5 9l115 1q-2 -13 -10 -29.5t-21 -33.5q-26 -31 -74.5 -57t-125.5 -26q-106 0 -177.5 65.5t-71.5 174.5t71.5 175t177.5 66q119 0 181.5 -77.5t62.5 -196.5v1zM148 275h259q0 38 -38 67t-91 33
q-46 0 -83 -27t-47 -74v1zM215 674h125l115 -146h-114l-63 82l-64 -82h-112l113 146v0z" />
    <glyph glyph-name="edieresis" unicode="&#xeb;" horiz-adv-x="556" 
d="M522 198h-374q5 -59 46 -86t94 -27q29 0 49 8t33 17q11 9 16.5 16t7.5 9l115 1q-2 -13 -10 -29.5t-21 -33.5q-26 -31 -74.5 -57t-125.5 -26q-106 0 -177.5 65.5t-71.5 174.5t71.5 175t177.5 66q119 0 181.5 -77.5t62.5 -196.5v1zM148 275h259q0 38 -38 67t-91 33
q-46 0 -83 -27t-47 -74v1zM244 539h-125v114h125v-114v0zM438 539h-125v114h125v-114v0z" />
    <glyph glyph-name="iacute" unicode="&#xed;" horiz-adv-x="333" 
d="M39 367v95h185v-367h70v-95h-253v95h68v272h-70v0zM68 528l94 146h155l-137 -146h-112v0z" />
    <glyph glyph-name="igrave" unicode="&#xec;" horiz-adv-x="333" 
d="M39 367v95h185v-367h70v-95h-253v95h68v272h-70v0zM-12 674h155l94 -146h-112l-137 146v0z" />
    <glyph glyph-name="icircumflex" unicode="&#xee;" horiz-adv-x="333" 
d="M39 367v95h185v-367h70v-95h-253v95h68v272h-70v0zM89 674h125l115 -146h-114l-63 82l-64 -82h-112l113 146v0z" />
    <glyph glyph-name="idieresis" unicode="&#xef;" horiz-adv-x="333" 
d="M39 367v95h185v-367h70v-95h-253v95h68v272h-70v0zM118 539h-125v114h125v-114v0zM312 539h-125v114h125v-114v0z" />
    <glyph glyph-name="ntilde" unicode="&#xf1;" horiz-adv-x="611" 
d="M211 462v-60q7 4 13 9t13 10q13 9 26 17t26 14q20 9 42.5 14t47.5 5q12 0 28.5 -3.5t33.5 -10.5q30 -14 55.5 -42.5t25.5 -78.5v-241h67v-95h-248v95h66v213q0 30 -20 48.5t-52 18.5q-36 0 -67 -19.5t-54 -45.5v-215h73v-95h-255v95h67v272h-65v95h177v0zM424 662h65
q-10 -47 -33.5 -84t-77.5 -37q-20 0 -39 5t-38 12q-18 7 -35.5 12t-34.5 5q-19 0 -30 -12t-16 -29l-62 1q7 47 34.5 84t80.5 37q20 0 39.5 -5t37.5 -13q19 -7 34.5 -13t27.5 -6q19 0 31 13t16 29v1z" />
    <glyph glyph-name="oacute" unicode="&#xf3;" horiz-adv-x="556" 
d="M527 231q0 -110 -71 -175.5t-178 -65.5q-106 0 -177.5 65.5t-71.5 174.5t71.5 175t177.5 66q107 0 178 -66t71 -175v1zM412 231v0.5v1.5q-1 53 -32.5 97.5t-101.5 44.5t-101.5 -44.5t-32.5 -97.5v-1.5v-1.5v-1.5v-1.5q1 -53 32.5 -97.5t101.5 -44.5t101.5 44.5t32.5 97.5
v1.5v1.5v1zM194 528l94 146h155l-137 -146h-112v0z" />
    <glyph glyph-name="ograve" unicode="&#xf2;" horiz-adv-x="556" 
d="M527 231q0 -110 -71 -175.5t-178 -65.5q-106 0 -177.5 65.5t-71.5 174.5t71.5 175t177.5 66q107 0 178 -66t71 -175v1zM412 231v0.5v1.5q-1 53 -32.5 97.5t-101.5 44.5t-101.5 -44.5t-32.5 -97.5v-1.5v-1.5v-1.5v-1.5q1 -53 32.5 -97.5t101.5 -44.5t101.5 44.5t32.5 97.5
v1.5v1.5v1zM114 674h155l94 -146h-112l-137 146v0z" />
    <glyph glyph-name="ocircumflex" unicode="&#xf4;" horiz-adv-x="556" 
d="M527 231q0 -110 -71 -175.5t-178 -65.5q-106 0 -177.5 65.5t-71.5 174.5t71.5 175t177.5 66q107 0 178 -66t71 -175v1zM412 231v0.5v1.5q-1 53 -32.5 97.5t-101.5 44.5t-101.5 -44.5t-32.5 -97.5v-1.5v-1.5v-1.5v-1.5q1 -53 32.5 -97.5t101.5 -44.5t101.5 44.5t32.5 97.5
v1.5v1.5v1zM215 674h125l115 -146h-114l-63 82l-64 -82h-112l113 146v0z" />
    <glyph glyph-name="odieresis" unicode="&#xf6;" horiz-adv-x="556" 
d="M527 231q0 -110 -71 -175.5t-178 -65.5q-106 0 -177.5 65.5t-71.5 174.5t71.5 175t177.5 66q107 0 178 -66t71 -175v1zM412 231v0.5v1.5q-1 53 -32.5 97.5t-101.5 44.5t-101.5 -44.5t-32.5 -97.5v-1.5v-1.5v-1.5v-1.5q1 -53 32.5 -97.5t101.5 -44.5t101.5 44.5t32.5 97.5
v1.5v1.5v1zM244 539h-125v114h125v-114v0zM438 539h-125v114h125v-114v0z" />
    <glyph glyph-name="otilde" unicode="&#xf5;" horiz-adv-x="556" 
d="M527 231q0 -110 -71 -175.5t-178 -65.5q-106 0 -177.5 65.5t-71.5 174.5t71.5 175t177.5 66q107 0 178 -66t71 -175v1zM412 231v0.5v1.5q-1 53 -32.5 97.5t-101.5 44.5t-101.5 -44.5t-32.5 -97.5v-1.5v-1.5v-1.5v-1.5q1 -53 32.5 -97.5t101.5 -44.5t101.5 44.5t32.5 97.5
v1.5v1.5v1zM397 662h65q-10 -47 -33.5 -84t-77.5 -37q-20 0 -39 5t-38 12q-18 7 -35.5 12t-34.5 5q-19 0 -30 -12t-16 -29l-62 1q7 47 34.5 84t80.5 37q20 0 39.5 -5t37.5 -13q19 -7 34.5 -13t27.5 -6q19 0 31 13t16 29v1z" />
    <glyph glyph-name="uacute" unicode="&#xfa;" horiz-adv-x="611" 
d="M400 0v60q-28 -28 -66.5 -46.5t-78.5 -22.5q-4 -1 -8.5 -1h-8.5q-66 0 -105 31t-39 119v227h-64v95h179v-283q0 -53 13 -73.5t56 -20.5q7 0 23 2.5t34 11.5q22 12 41 38.5t19 76.5v153h-71v95h186v-367h66v-95h-176v0zM203 528l94 146h155l-137 -146h-112v0z" />
    <glyph glyph-name="ugrave" unicode="&#xf9;" horiz-adv-x="611" 
d="M400 0v60q-28 -28 -66.5 -46.5t-78.5 -22.5q-4 -1 -8.5 -1h-8.5q-66 0 -105 31t-39 119v227h-64v95h179v-283q0 -53 13 -73.5t56 -20.5q7 0 23 2.5t34 11.5q22 12 41 38.5t19 76.5v153h-71v95h186v-367h66v-95h-176v0zM123 674h155l94 -146h-112l-137 146v0z" />
    <glyph glyph-name="ucircumflex" unicode="&#xfb;" horiz-adv-x="611" 
d="M400 0v60q-28 -28 -66.5 -46.5t-78.5 -22.5q-4 -1 -8.5 -1h-8.5q-66 0 -105 31t-39 119v227h-64v95h179v-283q0 -53 13 -73.5t56 -20.5q7 0 23 2.5t34 11.5q22 12 41 38.5t19 76.5v153h-71v95h186v-367h66v-95h-176v0zM224 674h125l115 -146h-114l-63 82l-64 -82h-112
l113 146v0z" />
    <glyph glyph-name="udieresis" unicode="&#xfc;" horiz-adv-x="611" 
d="M400 0v60q-28 -28 -66.5 -46.5t-78.5 -22.5q-4 -1 -8.5 -1h-8.5q-66 0 -105 31t-39 119v227h-64v95h179v-283q0 -53 13 -73.5t56 -20.5q7 0 23 2.5t34 11.5q22 12 41 38.5t19 76.5v153h-71v95h186v-367h66v-95h-176v0zM253 539h-125v114h125v-114v0zM447 539h-125v114
h125v-114v0z" />
    <glyph glyph-name="dagger" unicode="&#x2020;" horiz-adv-x="500" 
d="M110 338h-90v175h90v-41h85v160h-47v90h204v-90h-47v-160h85v41h90v-175h-90v39h-85v-493h-110v493h-85v-39v0z" />
    <glyph glyph-name="degree" horiz-adv-x="400" 
d="M200 436q-60 -1 -101.5 40.5t-41.5 101.5t41.5 101.5t101.5 41.5t101.5 -41.5t41.5 -101.5t-41.5 -101.5t-101.5 -41.5v1zM200 487q38 -1 62.5 26t24.5 65t-24.5 65t-62.5 27t-62.5 -27t-24.5 -65t24.5 -65t62.5 -27v1z" />
    <glyph glyph-name="cent" unicode="&#xa2;" horiz-adv-x="500" 
d="M312 367l-90 -271q11 -6 23.5 -8.5t26.5 -2.5q32 0 62.5 18.5t53.5 40.5q4 5 8 9l8 8l71 -65q-6 -7 -11.5 -12.5l-10.5 -10.5q-41 -39 -85 -61t-106 -22q-19 0 -36.5 3t-34.5 7l-45 -133h-56l52 155q-51 28 -82 83t-31 128q0 89 57 163.5t164 74.5q11 0 21 -1.5t19 -3.5
l38 115h56l-45 -134q8 -5 15 -11t14 -13v39h92v-160h-79q-2 2 -4.5 5.5t-5.5 7.5q-12 16 -26.5 30t-32.5 21v1zM178 129l82 247q-57 -1 -86.5 -44.5t-29.5 -98.5q0 -31 9 -58.5t25 -46.5v1z" />
    <glyph glyph-name="sterling" unicode="&#xa3;" horiz-adv-x="500" 
d="M19 -16v126q62 5 83 43t21 95q0 11 -2 21t-4 19l-2 10t-2 9l-92 1v95h74q-7 23 -12 51t-6 57q-1 6 -1 11.5v11.5q0 74 53 130.5t136 56.5q107 0 144 -67.5t39 -149.5v-5.5v-5.5l-120 1v4.5v5.5q0 40 -11 73.5t-57 33.5q-36 0 -52 -21.5t-16 -53.5q0 -11 1 -22t3 -22
q3 -15 7 -30t8 -28q2 -9 4.5 -17t4.5 -15l109 1v-95h-98q0 -5 0.5 -9.5t0.5 -9.5q1 -9 1.5 -19.5t0.5 -21.5q0 -8 -0.5 -17t-1.5 -17q-4 -26 -12.5 -51t-20.5 -47q19 -10 38.5 -16.5t39.5 -6.5q52 0 66.5 24.5t13.5 74.5l113 1q1 -8 1 -14.5v-13.5q0 -75 -41.5 -128
t-125.5 -53q-40 0 -77 17t-66 43q-25 -32 -61.5 -46t-76.5 -14h-0.5h-1.5h-1.5h-0.5v0z" />
    <glyph glyph-name="section" unicode="&#xa7;" horiz-adv-x="500" 
d="M421 722v-165h-100v75h-37q-31 -1 -43 -12.5t-12 -32.5v-0.5v-0.5q0 -11 3 -24.5t23 -33.5l152 -157q29 -31 47 -66.5t18 -75.5q0 -52 -29.5 -84.5t-74.5 -49.5q17 -17 24 -38.5t7 -46.5q0 -68 -48 -94.5t-106 -30.5q-7 -1 -14 -1h-14h-127v164h100v-74q8 0 19.5 0.5
t23.5 1.5q21 3 38.5 12t17.5 29q0 8 -4 17t-11 18q-5 6 -10.5 12.5t-10.5 12.5l-1.5 1.5l-1.5 1.5l-176 185q-11 10 -18.5 18.5t-12.5 17.5q-9 14 -12 31t-3 47q0 47 35.5 83t78.5 45q-9 15 -14.5 32t-7.5 35q-1 3 -1 7v7q0 54 43.5 93.5t112.5 39.5l146 1v0zM153 343
l115 -123q3 -4 6 -7l6 -6q9 -8 19 -13t25 -5q17 0 30 13t13 31q0 2 -0.5 4t-0.5 4q-2 5 -5.5 10.5t-10.5 12.5l-126 134q-8 8 -18.5 15.5t-23.5 7.5h-2h-2q-18 -2 -31.5 -13.5t-13.5 -33.5q0 -2 0.5 -4.5t2.5 -5.5q1 -4 4 -8t7 -7q1 -2 3 -3.5t3 -3.5v1z" />
    <glyph glyph-name="bullet" horiz-adv-x="500" 
d="M431 361q0 -76 -53 -129t-128 -53t-128 52.5t-53 128.5q-1 76 52 128.5t129 52.5q75 0 128 -52.5t53 -128.5v1z" />
    <glyph glyph-name="paragraph" unicode="&#xb6;" horiz-adv-x="620" 
d="M484 662v-742h81v-60h-443v60h81v391q-76 -1 -119 56.5t-43 140.5q0 92 51.5 152.5t157.5 60.5l315 1v-60h-81v0zM313 662v-742h61v742h-61v0z" />
    <glyph glyph-name="germandbls" unicode="&#xdf;" horiz-adv-x="611" 
d="M97 95v430q0 101 60.5 156.5t144.5 55.5q93 0 152 -50.5t59 -119.5q0 -54 -27 -92t-75 -61v-1q78 -14 117 -77t39 -138q0 -87 -47 -147.5t-139 -60.5q-8 0 -16.5 1t-16.5 3q-9 2 -17.5 4t-16.5 4l19 93q2 -1 3.5 -2t2.5 -1q3 -1 6.5 -2t6.5 -2q5 -1 9.5 -2t8.5 -1
q41 0 58.5 29t21.5 63q1 9 1.5 17t0.5 16q0 75 -37.5 113t-110.5 38h-2h-2h-2h-2v90q1 -1 2 -1h2h2h2q41 0 67.5 28t26.5 71q0 45 -23 65.5t-51 25.5q-5 0 -9.5 0.5t-8.5 0.5q-38 0 -66 -28t-28 -79v-439h54v-95h-231v95h62v0z" />
    <glyph glyph-name="registered" unicode="&#xae;" horiz-adv-x="800" 
d="M400 -16q-154 0 -254 107.5t-100 267.5t100 269t254 109t254 -109t100 -269t-100 -267.5t-254 -107.5v0zM400 49q118 -1 192.5 89.5t74.5 220.5q0 131 -74.5 222t-192.5 91t-192.5 -91.5t-74.5 -221.5t74.5 -220.5t192.5 -90.5v1zM229 549v22h209q47 -1 79.5 -26.5
t32.5 -80.5v-4v-4q-3 -32 -23 -60t-55 -39l58 -88q16 -24 31.5 -46t29.5 -41v-14h-96q-16 -1 -34 35t-38 79q-7 16 -15 31.5t-16 29.5l-24 1v-107q0 -24 5.5 -32.5t37.5 -10.5v-26h-182v27q33 1 38.5 9.5t5.5 31.5v272q0 22 -5.5 30.5t-38.5 9.5v1zM368 544v-173h26
q28 -1 39 20.5t13 47.5q1 6 1 11v10q0 46 -12.5 64.5t-36.5 18.5l-30 1v0z" />
    <glyph glyph-name="copyright" unicode="&#xa9;" horiz-adv-x="800" 
d="M754 360q0 -161 -100 -268.5t-254 -107.5t-254 107.5t-100 267.5t100 269t254 109t254 -109t100 -269v1zM667 360q0 130 -74.5 221t-192.5 91t-192.5 -91.5t-74.5 -221.5t74.5 -220.5t192.5 -90.5t192.5 90.5t74.5 220.5v1zM549 282h23l-15 -81q-1 -8 -5 -12t-12 -7
q-2 -1 -5.5 -2t-7.5 -3q-5 -2 -12.5 -4.5t-16.5 -4.5q-16 -5 -36.5 -8.5t-42.5 -3.5q-103 0 -162.5 55t-59.5 161q0 13 1.5 27t4.5 28q14 59 65 107.5t160 48.5q32 0 53 -5t39 -11q2 0 3.5 -0.5t3.5 -1.5q1 0 2.5 -0.5t3.5 -1.5q12 -4 17 -9.5t5 -13.5v-75h-23
q-1 3 -2.5 6.5t-2.5 6.5q-12 29 -34.5 53.5t-62.5 24.5q-54 0 -79 -49t-26 -129q-1 -82 20.5 -138.5t82.5 -56.5q40 0 71 26.5t50 71.5v1z" />
    <glyph glyph-name="trademark" unicode="&#x2122;" horiz-adv-x="1000" 
d="M257 695v-308q0 -25 6.5 -33t44.5 -10v-26h-217v27q38 1 44.5 8.5t6.5 30.5v1.5v0.5v309h-43q-28 -1 -43 -18.5t-20 -42.5l-26 1v87h379v-87h-26q-5 24 -19.5 41.5t-43.5 17.5l-43 1v0zM856 722h134v-25q-37 -2 -44.5 -11t-7.5 -32v-267q0 -25 6.5 -33t44.5 -10v-26h-216
v27q38 1 44 8.5t6 30.5v1.5v0.5v212h-2l-141 -279h-16l-131 279h-2v-180q0 -42 7 -57t45 -17v-26h-135v27q37 1 43.5 16t6.5 56v227q-11 24 -29.5 38t-41.5 14v26h157l130 -269h2l140 269v0z" />
    <glyph glyph-name="acute" unicode="&#xb4;" horiz-adv-x="333" 
d="M82 528l94 146h155l-137 -146h-112v0z" />
    <glyph glyph-name="dieresis" unicode="&#xa8;" horiz-adv-x="333" 
d="M132 539h-125v114h125v-114v0zM326 539h-125v114h125v-114v0z" />
    <glyph glyph-name="AE" unicode="&#x2260;" 
 />
    <glyph glyph-name="Oslash" unicode="&#xc6;" horiz-adv-x="1000" 
d="M627 328v-230h230v116h115v-214h-544v98h69v141h-236l-65 -141h77v-98h-260v98h57l260 526h-83v98h725v-191h-115v93h-230v-182h196v-114h-196v0zM315 337h182v287h-38l-144 -287v0z" />
    <glyph glyph-name="plusminus" unicode="&#xd8;" horiz-adv-x="833" 
d="M745 748l-78 -102q60 -53 94.5 -127t34.5 -160q0 -160 -112.5 -267.5t-267.5 -107.5q-65 0 -118.5 15t-94.5 42l-52 -67h-87l85 111q-44 42 -70 95t-36 109q-3 17 -4.5 35t-1.5 35q0 157 108 267.5t271 110.5q54 0 103.5 -13.5t90.5 -37.5l47 62h88v0zM591 548l-312 -407
q28 -18 61 -28t69 -10q112 0 184.5 75.5t72.5 185.5q0 54 -20 101t-55 82v1zM227 187l308 402q-26 13 -54.5 20.5t-60.5 7.5q-119 0 -186 -78.5t-67 -193.5q0 -46 16 -86.5t44 -72.5v1z" />
    <glyph glyph-name="yen" unicode="&#x221e;" 
 />
    <glyph glyph-name="mu" unicode="&#xb1;" horiz-adv-x="600" 
d="M70 0v105h460v-105h-460v0zM247 351v111h105v-111h178v-105h-178v-114h-105v114h-177v105h177v0z" />
    <glyph glyph-name="ordfeminine" unicode="&#x2264;" 
 />
    <glyph glyph-name="ordmasculine" unicode="&#x2265;" 
 />
    <glyph glyph-name="ae" unicode="&#xa5;" horiz-adv-x="500" 
d="M527 611h-27l-134 -188h91v-68h-143l-2 -2v-44h145v-68h-145v-146h81v-95h-287v95h86v146h-143v68h143v44l-1 2h-142v68h91l-140 188h-27v95h212v-95h-54l132 -179l124 179h-50v95h190v-95v0z" />
    <glyph glyph-name="oslash" unicode="&#xb5;" horiz-adv-x="611" 
d="M324 462h186v-367h66v-95h-176v60q-28 -28 -66.5 -46.5t-78.5 -22.5q-4 -1 -8.5 -1h-8.5h-14t-14 2v-200h-180v95h64v480h-64v95h179v-283q0 -53 13 -73.5t56 -20.5q7 0 23 2.5t34 11.5q22 12 41 38.5t19 76.5v153h-71v95v0z" />
    <glyph glyph-name="questiondown" unicode="&#x2202;" 
 />
    <glyph glyph-name="exclamdown" unicode="&#x3a3;" 
 />
    <glyph glyph-name="florin" unicode="&#x220f;" 
 />
    <glyph glyph-name="guillemotleft" unicode="&#x3c0;" 
 />
    <glyph glyph-name="guillemotright" unicode="&#x222b;" 
 />
    <glyph glyph-name="ellipsis" unicode="&#xaa;" horiz-adv-x="400" 
d="M333 675v-165h46v-57h-108v40q-15 -17 -35 -29t-41 -16q-5 -1 -9.5 -1.5t-9.5 -0.5q-57 0 -89 22t-48 49q-11 19 -15.5 37t-4.5 27q0 62 29 96.5t63 48.5q15 6 29 8.5t26 2.5q32 0 58.5 -13t45.5 -35v43h109v-57h-46v0zM178 508q38 -1 57.5 23.5t19.5 57.5q0 39 -17.5 63
t-63.5 24q-6 0 -15 -1t-18 -5q-16 -7 -30 -25t-14 -56q0 -6 1 -13.5t3 -14.5q7 -20 24.5 -37t52.5 -17v1z" />
    <glyph glyph-name="Agrave" unicode="&#xba;" horiz-adv-x="400" 
d="M199 738q69 -1 116 -42.5t47 -104.5q0 -65 -47 -105t-115 -40q-70 0 -116 41t-46 104q0 65 46 105.5t115 40.5v1zM284 592q0 31 -19 57.5t-65 26.5t-65 -26.5t-19 -58.5q0 -7 1.5 -15.5t4.5 -16.5q6 -20 24.5 -36t53.5 -16t53 16t25 36q3 8 4.5 16.5t1.5 15.5v1z" />
    <glyph glyph-name="Atilde" unicode="&#x3a9;" 
 />
    <glyph glyph-name="Otilde" unicode="&#xe6;" horiz-adv-x="833" 
d="M805 198h-369q5 -61 46 -87t94 -26q29 0 48 7.5t31 16.5q10 8 15 15t7 9l115 1q-2 -13 -9 -29t-20 -32q-25 -32 -72.5 -57.5t-126.5 -25.5q-40 0 -81.5 13t-85.5 53q-52 -46 -95 -56t-84 -10q-87 0 -128 31.5t-54 70.5q-4 14 -6 27t-2 25t3 26.5t10 29.5q17 36 59.5 66.5
t119.5 30.5q15 0 30.5 -2.5t30.5 -6.5q13 -3 26.5 -7t26.5 -8q2 -1 4 -1.5t4 -1.5v32q0 41 -26 55.5t-58 16.5q-6 1 -11.5 1h-11.5q-34 0 -66.5 -8t-63.5 -21l-43 84q29 15 61.5 25t65.5 14q10 1 20 1.5t20 0.5h6.5h6.5q45 -1 88 -13t79 -40q5 4 9.5 7.5t8.5 6.5
q30 21 63 30t84 9q92 0 161.5 -73t69.5 -201v1zM143 143q0 -29 25.5 -47t68.5 -18h2.5h3.5q38 1 70 17t32 51v2.5v2.5q-3 24 -27.5 43.5t-75.5 19.5h-8t-8 -1q-31 -3 -57 -19t-26 -52v1zM436 275h254q0 4 -1 9.5t-2 11.5q-9 29 -40.5 53.5t-80.5 25.5q-46 -1 -84 -21.5
t-46 -79.5v1z" />
    <glyph glyph-name="OE" unicode="&#xf8;" horiz-adv-x="556" 
d="M556 543l-103 -135q35 -32 54.5 -77t19.5 -101q0 -109 -71 -174.5t-178 -65.5q-34 0 -65 7t-57 20l-79 -103h-81l107 140q-35 31 -54.5 76t-19.5 100q0 109 71.5 175t177.5 66q33 0 63.5 -7t57.5 -21l76 100h81v0zM387 321l-169 -222q12 -7 27.5 -10.5t32.5 -3.5
q70 0 101.5 44.5t32.5 97.5v1.5v1.5v5.5v5.5q-1 21 -7.5 41.5t-17.5 37.5v1zM169 142l169 221q-13 6 -28 9t-32 3q-70 0 -101.5 -44.5t-32.5 -97.5v-1.5v-1.5q0 -24 6 -47t19 -42v1z" />
    <glyph glyph-name="oe" unicode="&#xbf;" horiz-adv-x="500" 
d="M358 8h112q-7 -100 -64 -158t-159 -58q-82 0 -142.5 56t-60.5 141q0 81 41 132t122 67v108h115v-196h-12h-12h-15.5t-15.5 -1q-45 -2 -76.5 -27t-31.5 -72q0 -50 28 -74t77 -24q50 0 71.5 31t22.5 74v1zM259 524q37 -1 63 -26.5t26 -63.5q0 -37 -26 -63t-63 -26t-63 26
t-26 63q0 38 26 63.5t63 25.5v1z" />
    <glyph glyph-name="endash" unicode="&#xa1;" horiz-adv-x="333" 
d="M112 296h108v-85t1 -84q3 -84 8.5 -168t14.5 -167h-156q9 83 14.5 167t8.5 168q1 42 1.5 84t-0.5 84v1zM167 524q37 -1 63 -26.5t26 -63.5q0 -37 -26 -63t-63 -26t-63 26t-26 63q0 38 26 63.5t63 25.5v1z" />
    <glyph glyph-name="emdash" unicode="&#xac;" 
 />
    <glyph glyph-name="quotedblleft" unicode="&#x221a;" 
 />
    <glyph glyph-name="quotedblright" unicode="&#x192;" horiz-adv-x="500" 
d="M499 698l-23 -96q-5 2 -9.5 4.5t-8.5 4.5q-9 5 -18.5 7.5t-20.5 2.5q-31 0 -49.5 -25t-24.5 -59l-19 -107h105v-95h-117l-41 -271q-1 -6 -1.5 -10.5t-1.5 -9.5q-14 -78 -51 -144.5t-131 -66.5q-6 0 -13 0.5t-13 1.5q-17 2 -33 7t-29 14l16 99q4 -3 8 -5.5t8 -4.5
q10 -6 20 -9t22 -3q35 0 54 35t27 77q0 2 0.5 4t0.5 4l41 282h-107v95h122l17 110q11 70 48.5 125.5t119.5 55.5q23 0 44 -4.5t42 -12.5q4 -2 8 -3.5t8 -3.5v1z" />
    <glyph glyph-name="quoteleft" unicode="&#x2248;" 
 />
    <glyph glyph-name="quoteright" unicode="&#x2206;" 
 />
    <glyph glyph-name="ydieresis" unicode="&#xab;" horiz-adv-x="556" 
d="M295 410l-124 -154l123 -152h-113l-124 150l124 156h114v0zM499 410l-124 -154l123 -152h-113l-124 150l124 156h114v0z" />
    <glyph glyph-name="Ydieresis" unicode="&#xbb;" horiz-adv-x="556" 
d="M58 104l123 152l-124 154h114l124 -156l-124 -150h-113v0zM262 104l123 152l-124 154h114l124 -156l-124 -150h-113v0z" />
    <glyph glyph-name="fraction" unicode="&#x2026;" horiz-adv-x="1000" 
d="M167 168q37 -1 63 -26.5t26 -63.5q0 -37 -26 -62.5t-63 -25.5t-63 25.5t-26 62.5q0 38 26 63.5t63 25.5v1zM500 168q37 -1 63 -26.5t26 -63.5q0 -37 -26 -62.5t-63 -25.5t-63 25.5t-26 62.5q0 38 26 63.5t63 25.5v1zM833 168q37 -1 63 -26.5t26 -63.5q0 -37 -26 -62.5
t-63 -25.5t-63 25.5t-26 62.5q0 38 26 63.5t63 25.5v1z" />
    <glyph glyph-name="currency" unicode="&#xc0;" horiz-adv-x="722" 
d="M277 0h-259v98h59l180 526h-79v98h373v-98h-78l175 -526h55v-98h-266v98h79l-49 141h-219l-49 -141h78v-98v0zM276 337h166l-81 244h-2l-83 -244v0zM197 914h155l94 -146h-112l-137 146v0z" />
    <glyph glyph-name="guilsinglleft" unicode="&#xc3;" horiz-adv-x="722" 
d="M277 0h-259v98h59l180 526h-79v98h373v-98h-78l175 -526h55v-98h-266v98h79l-49 141h-219l-49 -141h78v-98v0zM276 337h166l-81 244h-2l-83 -244v0zM480 902h65q-10 -47 -33.5 -84t-77.5 -37q-20 0 -39 5t-38 12q-18 7 -35.5 12t-34.5 5q-19 0 -30 -12t-16 -29l-62 1
q7 47 34.5 84t80.5 37q20 0 39.5 -5t37.5 -13q19 -7 34.5 -13t27.5 -6q19 0 31 13t16 29v1z" />
    <glyph glyph-name="guilsinglright" unicode="&#xd5;" horiz-adv-x="833" 
d="M416 -16q-174 0 -264.5 97t-109.5 214q-2 16 -3.5 32t-1.5 32q0 157 108 267.5t271 110.5q164 0 272 -110.5t108 -267.5q0 -160 -112.5 -267.5t-267.5 -107.5v0zM420 618q-119 -1 -186 -79.5t-67 -193.5q0 -101 70.5 -171.5t171.5 -70.5q112 0 184.5 75.5t72.5 185.5
q0 104 -70.5 178.5t-175.5 74.5v1zM535 902h65q-10 -47 -33.5 -84t-77.5 -37q-20 0 -39 5t-38 12q-18 7 -35.5 12t-34.5 5q-19 0 -30 -12t-16 -29l-62 1q7 47 34.5 84t80.5 37q20 0 39.5 -5t37.5 -13q19 -7 34.5 -13t27.5 -6q19 0 31 13t16 29v1z" />
    <glyph glyph-name="fi" unicode="&#x152;" horiz-adv-x="1000" 
d="M857 219h115v-219h-528q-101 0 -144 8.5t-74 23.5l-12 6t-13 6q-13 6 -28 15.5t-30 22.5q-43 37 -79 104.5t-36 171.5q0 89 27.5 151t60.5 100q17 19 32.5 32t27.5 20l14 8l14 8q41 22 101 33t212 11l455 1v-188h-115v90h-228v-182h194v-114h-194v-230h228v121v0z
M499 200v353v0.5v1.5q0 35 -10 52.5t-72 17.5q-118 0 -188.5 -64t-70.5 -184q0 -114 38 -172t83 -81q36 -19 68 -23t46 -4q75 0 90.5 18.5t15.5 83.5v1z" />
    <glyph glyph-name="fl" unicode="&#x153;" horiz-adv-x="944" 
d="M909 198h-368q1 -59 44.5 -86t95.5 -27q41 0 67 12.5t43 35.5l107 1q-23 -74 -87.5 -109t-138.5 -35q-50 0 -86 11.5t-69 37.5q-10 8 -19 16t-19 18q-38 -52 -87.5 -67.5t-104.5 -15.5q-103 0 -178 62.5t-75 172.5q0 109 75 177.5t178 68.5h6.5h7.5q51 -3 99 -25t80 -63
q39 51 86 69.5t109 18.5q110 0 172.5 -75.5t61.5 -182.5v-8v-8v1zM426 236q0 56 -38 97.5t-96 41.5q-69 0 -106 -42.5t-37 -107.5v-5.5v-5.5q4 -48 41 -88.5t102 -40.5q58 0 96 46t38 104v1zM538 275h256q-4 52 -42.5 76t-88.5 24q-46 0 -82.5 -27.5t-42.5 -73.5v1z" />
    <glyph glyph-name="daggerdbl" horiz-adv-x="500" 
d="M0 212v90h500v-90h-500v0z" />
    <glyph glyph-name="periodcentered" unicode="&#x2014;" horiz-adv-x="1000" 
d="M1000 212h-1000v90h1000v-90v0z" />
    <glyph glyph-name="quotedblbase" unicode="&#x201c;" horiz-adv-x="556" 
d="M52 509l83 213h127l-83 -213h-127v0zM293 509l83 213h127l-83 -213h-127v0z" />
    <glyph glyph-name="perthousand" unicode="&#x201d;" horiz-adv-x="556" 
d="M53 509l83 213h127l-83 -213h-127v0zM294 509l83 213h127l-83 -213h-127v0z" />
    <glyph glyph-name="Acircumflex" unicode="&#x2018;" horiz-adv-x="278" 
d="M244 722l-83 -213h-127l83 213h127v0z" />
    <glyph glyph-name="Ecircumflex" unicode="&#x2019;" horiz-adv-x="278" 
d="M34 509l83 213h127l-83 -213h-127v0z" />
    <glyph glyph-name="Aacute" unicode="&#xf7;" 
 />
    <glyph glyph-name="Edieresis" unicode="&#x25ca;" 
 />
    <glyph glyph-name="Egrave" unicode="&#xff;" horiz-adv-x="556" 
d="M268 -113h76v-95h-271v95h80l57 122l-156 358h-41v95h220v-95h-62l98 -228h2l109 228h-63v95h226v-95h-51l-224 -480v0zM244 539h-125v114h125v-114v0zM438 539h-125v114h125v-114v0z" />
    <glyph glyph-name="Iacute" unicode="&#x178;" horiz-adv-x="667" 
d="M648 624h-49l-201 -282v-244h81v-98h-294v98h83v250l-198 276h-52v98h264v-98h-65l128 -181h2l126 181h-66v98h241v-98v0zM313 779h-125v114h125v-114v0zM507 779h-125v114h125v-114v0z" />
    <glyph glyph-name="Icircumflex" unicode="&#x2215;" horiz-adv-x="167" 
d="M-166 -16l425 738h74l-423 -738h-76v0z" />
    <glyph glyph-name="Idieresis" unicode="&#xa4;" horiz-adv-x="500" 
d="M60 117l-57 56l55 55q-21 24 -33 58.5t-12 73.5q0 40 11.5 76.5t33.5 58.5l-55 56l58 58l53 -54q21 16 52.5 27.5t65.5 13.5q5 1 9.5 1h8.5q41 0 77 -11.5t60 -32.5l54 54l57 -56l-56 -55q21 -25 33.5 -59.5t12.5 -74.5v-3.5v-3.5q-1 -37 -12.5 -71.5t-33.5 -56.5l55 -54
l-59 -59l-53 55q-19 -17 -49.5 -28t-62.5 -14q-6 0 -11.5 -0.5t-10.5 -0.5q-41 0 -77.5 11.5t-60.5 31.5l-53 -52v0zM118 361q0 -58 39 -96.5t96 -38.5q56 0 93 40t37 96q0 55 -36.5 95t-92.5 40q-58 0 -97 -39.5t-39 -97.5v1z" />
    <glyph glyph-name="Igrave" unicode="&#x2039;" horiz-adv-x="333" 
d="M285 410l-124 -154l123 -152h-113l-124 150l124 156h114v0z" />
    <glyph glyph-name="Oacute" unicode="&#x203a;" horiz-adv-x="333" 
d="M286 254l-124 -150h-113l123 152l-124 154h114l124 -156v0z" />
    <glyph glyph-name="Ocircumflex" unicode="&#xf001;" horiz-adv-x="611" 
d="M287 0h-263v95h70v272h-71v95h71v120q0 7 0.5 15t2.5 17q8 40 42.5 73.5t113.5 33.5l35 1v-96h-36q-25 -1 -34 -16.5t-9 -41.5v-106h76v-95h-76v-272h78v-95v0zM587 0h-255v95h70v272h-72v95h187v-367h70v-95v0zM522 667v-124h-160v124h160v0z" />
    <glyph glyph-name="Ograve" unicode="&#xf002;" horiz-adv-x="611" 
d="M287 0h-263v95h70v272h-71v95h71v120q0 7 0.5 15t2.5 17q8 40 42.5 73.5t113.5 33.5l35 1v-96h-36q-25 -1 -34 -16.5t-9 -41.5v-106h76v-95h-76v-272h78v-95v0zM587 0h-255v95h70v532h-70v95h185v-627h70v-95v0z" />
    <glyph glyph-name="Uacute" unicode="&#x2021;" horiz-adv-x="500" 
d="M110 42h-90v175h90v-40h85v253h-85v-40h-90v175h90v-40h85v107h-46v90h202v-90h-46v-107h85v40h90v-175h-90v40h-85v-253h85v40h90v-175h-90v40h-85v-108h46v-90h-202v90h46v108h-85v-40v0z" />
    <glyph glyph-name="Ucircumflex" unicode="&#x2219;" 
d="M125 320q37 -1 63 -26.5t26 -63.5q0 -37 -26 -63t-63 -26t-63 26t-26 63q0 38 26 63.5t63 25.5v1z" />
    <glyph glyph-name="Ugrave" unicode="&#x201a;" 
 />
    <glyph glyph-name="dotlessi" unicode="&#x201e;" horiz-adv-x="556" 
d="M53 -40l83 213h127l-83 -213h-127v0zM294 -40l83 213h127l-83 -213h-127v0z" />
    <glyph glyph-name="circumflex" unicode="&#x2030;" horiz-adv-x="1000" 
d="M75 -23l412 752h71l-414 -752h-69v0zM474 286q62 -1 106.5 -45.5t44.5 -106.5t-44.5 -106t-106.5 -44q-63 0 -107 44t-44 106t44.5 106.5t106.5 44.5v1zM474 200q-26 -1 -45.5 -20t-19.5 -46t19 -46t46 -19q26 0 45.5 19t19.5 46t-19 46t-46 19v1zM839 286
q62 -1 106.5 -45.5t44.5 -106.5t-44.5 -106t-106.5 -44q-63 0 -107 44t-44 106t44.5 106.5t106.5 44.5v1zM839 200q-26 -1 -45.5 -20t-19.5 -46t19 -46t46 -19q26 0 45.5 19t19.5 46t-19 46t-46 19v1zM161 722q62 -1 106.5 -45.5t44.5 -106.5t-44.5 -106.5t-106.5 -44.5
q-63 0 -107 44.5t-44 106.5t44.5 106.5t106.5 44.5v1zM161 636q-26 -1 -45.5 -20t-19.5 -46t19 -46t46 -19q26 0 45.5 19t19.5 46t-19 46t-46 19v1z" />
    <glyph glyph-name="tilde" unicode="&#xc2;" horiz-adv-x="722" 
d="M277 0h-259v98h59l180 526h-79v98h373v-98h-78l175 -526h55v-98h-266v98h79l-49 141h-219l-49 -141h78v-98v0zM276 337h166l-81 244h-2l-83 -244v0zM298 914h125l115 -146h-114l-63 82l-64 -82h-112l113 146v0z" />
    <glyph glyph-name="macron" unicode="&#xca;" horiz-adv-x="611" 
d="M583 0h-556v98h77v526h-77v98h556v-191h-115v93h-234v-182h201v-114h-201v-230h234v118h115v-216v0zM242 914h125l115 -146h-114l-63 82l-64 -82h-112l113 146v0z" />
    <glyph glyph-name="breve" unicode="&#xc1;" horiz-adv-x="722" 
d="M277 0h-259v98h59l180 526h-79v98h373v-98h-78l175 -526h55v-98h-266v98h79l-49 141h-219l-49 -141h78v-98v0zM276 337h166l-81 244h-2l-83 -244v0zM277 768l94 146h155l-137 -146h-112v0z" />
    <glyph glyph-name="dotaccent" unicode="&#xcb;" horiz-adv-x="611" 
d="M583 0h-556v98h77v526h-77v98h556v-191h-115v93h-234v-182h201v-114h-201v-230h234v118h115v-216v0zM271 779h-125v114h125v-114v0zM465 779h-125v114h125v-114v0z" />
    <glyph glyph-name="ring" unicode="&#xc8;" horiz-adv-x="611" 
d="M583 0h-556v98h77v526h-77v98h556v-191h-115v93h-234v-182h201v-114h-201v-230h234v118h115v-216v0zM141 914h155l94 -146h-112l-137 146v0z" />
    <glyph glyph-name="cedilla" unicode="&#xcd;" horiz-adv-x="333" 
d="M306 0h-280v98h76v526h-76v98h280v-98h-74v-526h74v-98v0zM75 768l94 146h155l-137 -146h-112v0z" />
    <glyph glyph-name="hungarumlaut" unicode="&#xce;" horiz-adv-x="333" 
d="M306 0h-280v98h76v526h-76v98h280v-98h-74v-526h74v-98v0zM96 914h125l115 -146h-114l-63 82l-64 -82h-112l113 146v0z" />
    <glyph glyph-name="ogonek" unicode="&#xcf;" horiz-adv-x="333" 
d="M306 0h-280v98h76v526h-76v98h280v-98h-74v-526h74v-98v0zM125 779h-125v114h125v-114v0zM319 779h-125v114h125v-114v0z" />
    <glyph glyph-name="caron" unicode="&#xcc;" horiz-adv-x="333" 
d="M306 0h-280v98h76v526h-76v98h280v-98h-74v-526h74v-98v0zM-5 914h155l94 -146h-112l-137 146v0z" />
    <glyph glyph-name="Lslash" unicode="&#xd3;" horiz-adv-x="833" 
d="M416 -16q-174 0 -264.5 97t-109.5 214q-2 16 -3.5 32t-1.5 32q0 157 108 267.5t271 110.5q164 0 272 -110.5t108 -267.5q0 -160 -112.5 -267.5t-267.5 -107.5v0zM420 618q-119 -1 -186 -79.5t-67 -193.5q0 -101 70.5 -171.5t171.5 -70.5q112 0 184.5 75.5t72.5 185.5
q0 104 -70.5 178.5t-175.5 74.5v1zM332 768l94 146h155l-137 -146h-112v0z" />
    <glyph glyph-name="lslash" unicode="&#xd4;" horiz-adv-x="833" 
d="M416 -16q-174 0 -264.5 97t-109.5 214q-2 16 -3.5 32t-1.5 32q0 157 108 267.5t271 110.5q164 0 272 -110.5t108 -267.5q0 -160 -112.5 -267.5t-267.5 -107.5v0zM420 618q-119 -1 -186 -79.5t-67 -193.5q0 -101 70.5 -171.5t171.5 -70.5q112 0 184.5 75.5t72.5 185.5
q0 104 -70.5 178.5t-175.5 74.5v1zM353 914h125l115 -146h-114l-63 82l-64 -82h-112l113 146v0z" />
    <glyph glyph-name="Scaron" unicode="&#xf000;" 
 />
    <glyph glyph-name="scaron" unicode="&#xd2;" 
 />
    <glyph glyph-name="Eth" unicode="&#xda;" horiz-adv-x="722" 
d="M31 624v98h280v-98h-78v-328v-11v-10v-10.5v-11.5q0 -56 21 -103t114 -47q85 0 103 47t18 103v10.5v10.5v10.5v10.5v329h-78v98h280v-98h-72v-383q0 -123 -62 -181.5t-137 -71.5q-13 -2 -25.5 -3t-24.5 -1q-109 0 -188 62t-79 178v400h-72v0zM275 768l94 146h155
l-137 -146h-112v0z" />
    <glyph glyph-name="eth" unicode="&#xdb;" horiz-adv-x="722" 
d="M31 624v98h280v-98h-78v-328v-11v-10v-10.5v-11.5q0 -56 21 -103t114 -47q85 0 103 47t18 103v10.5v10.5v10.5v10.5v329h-78v98h280v-98h-72v-383q0 -123 -62 -181.5t-137 -71.5q-13 -2 -25.5 -3t-24.5 -1q-109 0 -188 62t-79 178v400h-72v0zM296 914h125l115 -146h-114
l-63 82l-64 -82h-112l113 146v0z" />
    <glyph glyph-name="Thorn" unicode="&#xd9;" horiz-adv-x="722" 
d="M31 624v98h280v-98h-78v-328v-11v-10v-10.5v-11.5q0 -56 21 -103t114 -47q85 0 103 47t18 103v10.5v10.5v10.5v10.5v329h-78v98h280v-98h-72v-383q0 -123 -62 -181.5t-137 -71.5q-13 -2 -25.5 -3t-24.5 -1q-109 0 -188 62t-79 178v400h-72v0zM195 914h155l94 -146h-112
l-137 146v0z" />
    <glyph glyph-name="thorn" unicode="&#x131;" horiz-adv-x="333" 
d="M39 367v95h185v-367h70v-95h-253v95h68v272h-70v0z" />
    <glyph glyph-name="onehalf" unicode="&#x2dc;" horiz-adv-x="333" 
d="M103 674h125l115 -146h-114l-63 82l-64 -82h-112l113 146v0z" />
    <glyph glyph-name="arrowright" unicode="&#x2c6;" horiz-adv-x="333" 
d="M285 662h65q-10 -47 -33.5 -84t-77.5 -37q-20 0 -39 5t-38 12q-18 7 -35.5 12t-34.5 5q-19 0 -30 -12t-16 -29l-62 1q8 47 35 84t80 37q20 0 39.5 -5t37.5 -13q19 -7 34.5 -13t27.5 -6q19 0 31 13t16 29v1z" />
    <glyph glyph-name="house" unicode="&#x2c9;" horiz-adv-x="333" 
d="M340 559h-347v74h347v-74v0z" />
    <glyph glyph-name="endash" unicode="&#x2d8;" horiz-adv-x="333" 
d="M270 674h65q-10 -77 -55.5 -111t-119.5 -34q-70 0 -114 36t-47 108l65 1q4 -40 32.5 -54.5t62.5 -16.5h4.5h4.5q40 0 67.5 14.5t34.5 55.5v1z" />
    <glyph glyph-name="sfthyphen" unicode="&#x2d9;" horiz-adv-x="333" 
d="M229 539h-125v114h125v-114v0z" />
    <glyph glyph-name="filledbox" unicode="&#x2da;" horiz-adv-x="333" 
d="M166 531q-44 -1 -75 30.5t-31 75.5t31 75t75 31t75.5 -31t31.5 -75t-31.5 -75.5t-75.5 -31.5v1zM111 638q0 -26 15.5 -41.5t39.5 -15.5t40 16t16 40q0 23 -16.5 39t-39.5 16q-24 0 -39.5 -16t-15.5 -39v1z" />
    <glyph glyph-name="bullet" unicode="&#xb8;" horiz-adv-x="333" 
d="M37 -203l19 42q2 -1 3.5 -1.5t3.5 -0.5q11 -4 21.5 -7t21.5 -5q6 -2 12.5 -2.5t12.5 -0.5q22 0 38 9t16 34q0 13 -10 21.5t-22 10.5q-2 1 -3.5 1h-3.5q-8 0 -15.5 -1t-14.5 -3q-4 -1 -7.5 -2t-7.5 -2l-21 20l59 90h53l-43 -63q4 1 8.5 2t8.5 2t8.5 1.5t8.5 0.5
q35 0 62.5 -20t27.5 -57q0 -42 -31 -64.5t-69 -28.5q-7 -1 -13.5 -1.5t-13.5 -0.5q-28 0 -55.5 7.5t-53.5 18.5v0z" />
    <glyph glyph-name="uni02BA" unicode="&#x2ba;" horiz-adv-x="333" 
d="M89 528h-117l74 146h155l-112 -146v0zM279 528h-112l94 146h155l-137 -146v0z" />
    <glyph glyph-name="glyph223" unicode="&#x2db;" horiz-adv-x="333" 
d="M268 16v-12q-11 -4 -24 -9.5t-26 -11.5q-34 -17 -62 -42.5t-28 -61.5v-0.5v-0.5v-0.5v-0.5q0 -23 15.5 -34.5t35.5 -11.5q8 0 16.5 2t16.5 5q12 4 23 10t21 12l10 6t9 6l20 -36q-34 -23 -71.5 -41.5t-79.5 -18.5q-43 0 -73.5 23.5t-30.5 68.5q0 54 43 83.5t95 44.5
q24 7 47.5 11.5t42.5 7.5v1z" />
    <glyph glyph-name="glyph224" unicode="&#x2c7;" horiz-adv-x="333" 
d="M343 674l-115 -146h-125l-113 146h112l64 -83l63 83h114v0z" />
    <glyph glyph-name="glyph225" unicode="&#x141;" horiz-adv-x="556" 
d="M416 214h115v-214h-498v98h81v206l-81 -44v95l81 44v225h-81v98h299v-98h-88v-165l104 48v-95l-104 -48v-266h172v116v0z" />
    <glyph glyph-name="glyph226" unicode="&#x142;" horiz-adv-x="333" 
d="M224 722v-286l99 45v-90l-99 -45v-251h70v-95h-255v95h70v205l-88 -41v90l88 41v237h-70v95h185v0z" />
    <glyph glyph-name="glyph227" unicode="&#x160;" horiz-adv-x="611" 
d="M56 247h101q9 -72 55 -118t119 -46q44 0 76.5 30.5t32.5 75.5q0 54 -28.5 74.5t-79.5 34.5q-20 5 -42 11t-46 13q-10 3 -37 9.5t-58 23.5q-37 21 -68 63.5t-31 119.5q0 17 5 38t15 42q22 45 71 82t134 37q42 0 80.5 -16.5t67.5 -44.5v46h105v-216h-100q-6 28 -18.5 52
t-30.5 41q-19 18 -43.5 28t-54.5 10q-44 0 -72.5 -25.5t-28.5 -72.5q0 -40 38.5 -59t93.5 -34q15 -4 31.5 -8.5t32.5 -9.5q74 -22 134 -63t60 -158q0 -101 -65 -162t-164 -61q-50 0 -95.5 14t-84.5 46v-44h-105v247v0zM496 914l-115 -146h-125l-113 146h112l64 -83l63 83
h114v0z" />
    <glyph glyph-name="glyph228" unicode="&#x161;" horiz-adv-x="500" 
d="M334 437v25h92v-149h-97q-4 19 -12.5 33t-22.5 23q-13 9 -29.5 13.5t-35.5 4.5h-8.5t-9.5 -1q-21 -2 -39 -12.5t-18 -37.5q0 -24 27.5 -32.5t67.5 -14.5q13 -2 27.5 -4t29.5 -5q56 -10 103 -39t48 -106q1 -81 -52 -113t-124 -32q-11 0 -22.5 1t-23.5 3q-23 4 -44.5 12
t-36.5 23v-29h-100v157h99q8 -21 18.5 -36.5t24.5 -26.5q15 -10 33 -15.5t40 -5.5q7 0 14.5 0.5t15.5 1.5q20 2 37 11.5t17 32.5q0 30 -31.5 40.5t-75.5 17.5q-11 1 -22 3l-22 4q-57 10 -104.5 36.5t-47.5 99.5q0 77 51 114t122 37q30 0 58.5 -8.5t52.5 -26.5v1zM427 674
l-115 -146h-125l-113 146h112l64 -83l63 83h114v0z" />
    <glyph glyph-name="Zcaron" unicode="&#x17d;" 
 />
    <glyph glyph-name="zcaron" unicode="&#x17e;" 
 />
    <glyph glyph-name="brokenbar" unicode="&#xa6;" 
 />
    <glyph glyph-name="glyph232" unicode="&#xd0;" horiz-adv-x="722" 
d="M27 98h77v215h-94v98h94v213h-77v98h257q81 -1 131.5 -14.5t81.5 -30.5q19 -10 32 -19.5t23 -15.5q9 -6 27 -23t38 -45q27 -37 49 -93t22 -130q0 -58 -18.5 -105.5t-39.5 -81.5q-17 -25 -32 -41.5t-22 -21.5q-5 -4 -9.5 -7.5t-9.5 -7.5q-44 -32 -107.5 -59t-172.5 -27
h-250v98v0zM234 411h130v-98h-130v-217h73q129 -1 187.5 76.5t62.5 170.5q1 5 1 9.5v9.5q0 15 -1.5 30t-4.5 30q-14 75 -73 138t-182 63l-63 1v-213v0z" />
    <glyph glyph-name="glyph233" unicode="&#xf0;" horiz-adv-x="556" 
d="M382 616l-95 -29l99 -99q56 -59 86 -100t43 -79q7 -19 9.5 -39t2.5 -42q0 -106 -71.5 -172t-177.5 -66t-177.5 67.5t-71.5 173.5q0 105 67.5 172.5t166.5 67.5l-80 85l-133 -40v68l88 25l-112 113h136l81 -80l139 42v-68v0zM144 231q0 -13 2.5 -28.5t8.5 -30.5
q13 -33 42 -60t82 -27q52 0 80.5 27t41.5 60q6 15 8.5 30.5t2.5 27.5v1.5v1.5q-1 53 -32.5 97.5t-101.5 44.5t-101.5 -44.5t-32.5 -97.5v-1.5v-1.5v1z" />
    <glyph glyph-name="Yacute" unicode="&#xdd;" 
 />
    <glyph glyph-name="yacute" unicode="&#xfd;" 
 />
    <glyph glyph-name="glyph236" unicode="&#xde;" horiz-adv-x="611" 
d="M234 722v-98v-22h62q105 -1 192.5 -51.5t87.5 -176.5q0 -114 -67.5 -164t-148.5 -58q-9 -1 -19 -1.5t-19 -0.5l-88 1v-151h-207v98h77v526h-77v98h207v0zM234 504v-255h30q1 -1 3 -1h6q3 -1 7.5 -1h9.5q13 0 30 1.5t34 6.5q35 9 63.5 36t28.5 83q0 59 -29.5 86t-64.5 37
q-18 4 -35 5.5t-30 1.5h-8.5h-7.5q-3 -1 -5.5 -1h-4.5l-27 1v0z" />
    <glyph glyph-name="glyph237" unicode="&#xfe;" horiz-adv-x="611" 
d="M217 722v-322h2q29 36 61.5 53.5t86.5 17.5q14 0 29.5 -2.5t30.5 -6.5q58 -19 106.5 -75t48.5 -159q0 -115 -61.5 -176.5t-153.5 -61.5q-51 0 -90.5 15.5t-59.5 43.5l-2 1v-163h69v-95h-252v95h70v740h-68v95h183v0zM467 229q1 58 -34.5 102t-97.5 44q-61 0 -97 -44
t-36 -103v-1.5v-1.5q1 -52 36.5 -96t96.5 -44t96 44t36 96v1.5v1.5v1z" />
    <glyph glyph-name="minus" unicode="&#x2212;" 
 />
    <glyph glyph-name="multiply" unicode="&#xd7;" 
 />
    <glyph glyph-name="uni00B9" unicode="&#xb9;" 
 />
    <glyph glyph-name="uni00B2" unicode="&#xb2;" 
 />
    <glyph glyph-name="uni00B3" unicode="&#xb3;" 
 />
    <glyph glyph-name="glyph243" unicode="&#xbd;" horiz-adv-x="750" 
d="M135 -16l425 738h74l-423 -738h-76v0zM742 0h-276v63l128 142q4 3 8.5 8t8.5 9q17 20 31.5 42t14.5 47q0 23 -17 38.5t-43 15.5q-23 0 -38 -17t-15 -59v-36h-78v49q1 53 24 80.5t51 38.5q16 6 31 8t26 2q56 0 96.5 -31t40.5 -85q0 -28 -9.5 -48.5t-24.5 -40.5
q-6 -7 -13 -15.5t-14 -16.5l-111 -128h101v56h78v-122v0zM245 290h-186v62h54v297h-54v62h132v-359h54v-62v0z" />
    <glyph glyph-name="onequarter" unicode="&#xbc;" 
 />
    <glyph glyph-name="threequarters" unicode="&#xbe;" 
 />
    <glyph glyph-name="franc" unicode="&#x20a3;" 
 />
    <glyph glyph-name="Gbreve" unicode="&#x11e;" 
 />
    <glyph glyph-name="gbreve" unicode="&#x11f;" 
 />
    <glyph glyph-name="Idotaccent" unicode="&#x130;" 
 />
    <glyph glyph-name="Scedilla" unicode="&#x15e;" 
 />
    <glyph glyph-name="scedilla" unicode="&#x15f;" 
 />
    <glyph glyph-name="Cacute" unicode="&#x106;" 
 />
    <glyph glyph-name="cacute" unicode="&#x107;" 
 />
    <glyph glyph-name="Ccaron" unicode="&#x10c;" 
 />
    <glyph glyph-name="ccaron" unicode="&#x10d;" 
 />
    <glyph glyph-name="dcroat" unicode="&#x111;" 
 />
    <glyph glyph-name="glyph257" unicode="&#x2192;" horiz-adv-x="500" 
 />
    <glyph glyph-name="glyph258" unicode="&#x2302;" 
 />
    <glyph glyph-name="glyph259" unicode="&#x2013;" horiz-adv-x="500" 
d="M0 212v90h500v-90h-500v0z" />
    <glyph glyph-name="uni00AD" unicode="&#xad;" horiz-adv-x="500" 
 />
    <glyph glyph-name="glyph261" unicode="&#x25a0;" horiz-adv-x="500" 
 />
    <glyph glyph-name="glyph262" unicode="&#x2022;" horiz-adv-x="500" 
d="M431 361q0 -76 -53 -129t-128 -53t-128 52.5t-53 128.5q-1 76 52 128.5t129 52.5q75 0 128 -52.5t53 -128.5v1z" />
    <glyph glyph-name="glyph263" unicode="&#xaf;" 
 />
    <glyph glyph-name="glyph264" unicode="&#xb0;" 
 />
    <glyph glyph-name="glyph265" unicode="&#xb7;" 
 />
    <glyph glyph-name="underscoredbl" unicode="&#x2017;" 
 />
    <glyph glyph-name="exclamdbl" unicode="&#x203c;" 
 />
    <glyph glyph-name="uni207F" unicode="&#x207f;" 
 />
    <glyph glyph-name="peseta" unicode="&#x20a7;" 
 />
    <glyph glyph-name="Gamma" unicode="&#x393;" 
 />
    <glyph glyph-name="Theta" unicode="&#x398;" 
 />
    <glyph glyph-name="Phi" unicode="&#x3a6;" 
 />
    <glyph glyph-name="alpha" unicode="&#x3b1;" 
 />
    <glyph glyph-name="delta" unicode="&#x3b4;" 
 />
    <glyph glyph-name="epsilon" unicode="&#x3b5;" 
 />
    <glyph glyph-name="sigma" unicode="&#x3c3;" 
 />
    <glyph glyph-name="tau" unicode="&#x3c4;" 
 />
    <glyph glyph-name="phi" unicode="&#x3c6;" 
 />
    <glyph glyph-name="arrowleft" unicode="&#x2190;" 
 />
    <glyph glyph-name="arrowup" unicode="&#x2191;" 
 />
    <glyph glyph-name="arrowdown" unicode="&#x2193;" 
 />
    <glyph glyph-name="arrowboth" unicode="&#x2194;" 
 />
    <glyph glyph-name="arrowupdn" unicode="&#x2195;" 
 />
    <glyph glyph-name="arrowupdnbse" unicode="&#x21a8;" 
 />
    <glyph glyph-name="orthogonal" unicode="&#x221f;" 
 />
    <glyph glyph-name="intersection" unicode="&#x2229;" 
 />
    <glyph glyph-name="equivalence" unicode="&#x2261;" 
 />
    <glyph glyph-name="revlogicalnot" unicode="&#x2310;" 
 />
    <glyph glyph-name="integraltp" unicode="&#x2320;" 
 />
    <glyph glyph-name="integralbt" unicode="&#x2321;" 
 />
    <glyph glyph-name="filledrect" unicode="&#x25ac;" 
 />
    <glyph glyph-name="circle" unicode="&#x25cb;" 
 />
    <glyph glyph-name="triagup" unicode="&#x25b2;" 
 />
    <glyph glyph-name="triagrt" unicode="&#x25ba;" 
 />
    <glyph glyph-name="triagdn" unicode="&#x25bc;" 
 />
    <glyph glyph-name="triaglf" unicode="&#x25c4;" 
 />
    <glyph glyph-name="invbullet" unicode="&#x25d8;" 
 />
    <glyph glyph-name="invcircle" unicode="&#x25d9;" 
 />
    <glyph glyph-name="Rcaron" unicode="&#x158;" 
 />
    <glyph glyph-name="upblock" unicode="&#x2580;" 
 />
    <glyph glyph-name="dnblock" unicode="&#x2584;" 
 />
    <glyph glyph-name="block" unicode="&#x2588;" 
 />
    <glyph glyph-name="lfblock" unicode="&#x258c;" 
 />
    <glyph glyph-name="rtblock" unicode="&#x2590;" 
 />
    <glyph glyph-name="ltshade" unicode="&#x2591;" 
 />
    <glyph glyph-name="shade" unicode="&#x2592;" 
 />
    <glyph glyph-name="dkshade" unicode="&#x2593;" 
 />
    <glyph glyph-name="smileface" unicode="&#x263a;" 
 />
    <glyph glyph-name="invsmileface" unicode="&#x263b;" 
 />
    <glyph glyph-name="sun" unicode="&#x263c;" 
 />
    <glyph glyph-name="female" unicode="&#x2640;" 
 />
    <glyph glyph-name="male" unicode="&#x2642;" 
 />
    <glyph glyph-name="spade" unicode="&#x2660;" 
 />
    <glyph glyph-name="club" unicode="&#x2663;" 
 />
    <glyph glyph-name="heart" unicode="&#x2665;" 
 />
    <glyph glyph-name="diamond" unicode="&#x2666;" 
 />
    <glyph glyph-name="musicalnote" unicode="&#x266a;" 
 />
    <glyph glyph-name="musicalnotedbl" unicode="&#x266b;" 
 />
    <glyph glyph-name="Abreve" unicode="&#x102;" 
 />
    <glyph glyph-name="abreve" unicode="&#x103;" 
 />
    <glyph glyph-name="Aogonek" unicode="&#x104;" 
 />
    <glyph glyph-name="aogonek" unicode="&#x105;" 
 />
    <glyph glyph-name="Dcaron" unicode="&#x10e;" 
 />
    <glyph glyph-name="dcaron" unicode="&#x10f;" 
 />
    <glyph glyph-name="Dcroat" unicode="&#x110;" 
 />
    <glyph glyph-name="Eogonek" unicode="&#x118;" 
 />
    <glyph glyph-name="eogonek" unicode="&#x119;" 
 />
    <glyph glyph-name="Ecaron" unicode="&#x11a;" 
 />
    <glyph glyph-name="ecaron" unicode="&#x11b;" 
 />
    <glyph glyph-name="Lacute" unicode="&#x139;" 
 />
    <glyph glyph-name="lacute" unicode="&#x13a;" 
 />
    <glyph glyph-name="Lcaron" unicode="&#x13d;" 
 />
    <glyph glyph-name="lcaron" unicode="&#x13e;" 
 />
    <glyph glyph-name="Nacute" unicode="&#x143;" 
 />
    <glyph glyph-name="nacute" unicode="&#x144;" 
 />
    <glyph glyph-name="Ncaron" unicode="&#x147;" 
 />
    <glyph glyph-name="ncaron" unicode="&#x148;" 
 />
    <glyph glyph-name="Ohungarumlaut" unicode="&#x150;" 
 />
    <glyph glyph-name="ohungarumlaut" unicode="&#x151;" 
 />
    <glyph glyph-name="Racute" unicode="&#x154;" 
 />
    <glyph glyph-name="racute" unicode="&#x155;" 
 />
    <glyph glyph-name="rcaron" unicode="&#x159;" 
 />
    <glyph glyph-name="Sacute" unicode="&#x15a;" 
 />
    <glyph glyph-name="sacute" unicode="&#x15b;" 
 />
    <glyph glyph-name="uni0162" unicode="&#x162;" 
 />
    <glyph glyph-name="uni0163" unicode="&#x163;" 
 />
    <glyph glyph-name="Tcaron" unicode="&#x164;" 
 />
    <glyph glyph-name="tcaron" unicode="&#x165;" 
 />
    <glyph glyph-name="Uring" unicode="&#x16e;" 
 />
    <glyph glyph-name="uring" unicode="&#x16f;" 
 />
    <glyph glyph-name="uhungarumlaut" unicode="&#x171;" 
 />
    <glyph glyph-name="Uhungarumlaut" unicode="&#x170;" 
 />
    <glyph glyph-name="Zacute" unicode="&#x179;" 
 />
    <glyph glyph-name="zacute" unicode="&#x17a;" 
 />
    <glyph glyph-name="Zdotaccent" unicode="&#x17b;" 
 />
    <glyph glyph-name="zdotaccent" unicode="&#x17c;" 
 />
    <glyph glyph-name="Ldot" unicode="&#x13f;" 
 />
    <glyph glyph-name="ldot" unicode="&#x140;" 
 />
    <glyph glyph-name="SF100000" unicode="&#x2500;" 
 />
    <glyph glyph-name="SF110000" unicode="&#x2502;" 
 />
    <glyph glyph-name="SF010000" unicode="&#x250c;" 
 />
    <glyph glyph-name="SF030000" unicode="&#x2510;" 
 />
    <glyph glyph-name="SF020000" unicode="&#x2514;" 
 />
    <glyph glyph-name="SF040000" unicode="&#x2518;" 
 />
    <glyph glyph-name="SF080000" unicode="&#x251c;" 
 />
    <glyph glyph-name="SF090000" unicode="&#x2524;" 
 />
    <glyph glyph-name="SF060000" unicode="&#x252c;" 
 />
    <glyph glyph-name="SF070000" unicode="&#x2534;" 
 />
    <glyph glyph-name="SF050000" unicode="&#x253c;" 
 />
    <glyph glyph-name="SF430000" unicode="&#x2550;" 
 />
    <glyph glyph-name="SF240000" unicode="&#x2551;" 
 />
    <glyph glyph-name="SF510000" unicode="&#x2552;" 
 />
    <glyph glyph-name="SF520000" unicode="&#x2553;" 
 />
    <glyph glyph-name="SF390000" unicode="&#x2554;" 
 />
    <glyph glyph-name="SF220000" unicode="&#x2555;" 
 />
    <glyph glyph-name="SF210000" unicode="&#x2556;" 
 />
    <glyph glyph-name="SF250000" unicode="&#x2557;" 
 />
    <glyph glyph-name="SF500000" unicode="&#x2558;" 
 />
    <glyph glyph-name="SF490000" unicode="&#x2559;" 
 />
    <glyph glyph-name="SF380000" unicode="&#x255a;" 
 />
    <glyph glyph-name="SF280000" unicode="&#x255b;" 
 />
    <glyph glyph-name="SF270000" unicode="&#x255c;" 
 />
    <glyph glyph-name="SF260000" unicode="&#x255d;" 
 />
    <glyph glyph-name="SF360000" unicode="&#x255e;" 
 />
    <glyph glyph-name="SF370000" unicode="&#x255f;" 
 />
    <glyph glyph-name="SF420000" unicode="&#x2560;" 
 />
    <glyph glyph-name="SF190000" unicode="&#x2561;" 
 />
    <glyph glyph-name="SF200000" unicode="&#x2562;" 
 />
    <glyph glyph-name="SF230000" unicode="&#x2563;" 
 />
    <glyph glyph-name="SF470000" unicode="&#x2564;" 
 />
    <glyph glyph-name="SF480000" unicode="&#x2565;" 
 />
    <glyph glyph-name="SF410000" unicode="&#x2566;" 
 />
    <glyph glyph-name="SF450000" unicode="&#x2567;" 
 />
    <glyph glyph-name="SF460000" unicode="&#x2568;" 
 />
    <glyph glyph-name="SF400000" unicode="&#x2569;" 
 />
    <glyph glyph-name="SF540000" unicode="&#x256a;" 
 />
    <glyph glyph-name="SF530000" unicode="&#x256b;" 
 />
    <glyph glyph-name="SF440000" unicode="&#x256c;" 
 />
    </font>
</defs>
</svg>
