<?xml version="1.0" standalone="no"?>
<!DOCTYPE svg PUBLIC "-//W3C//DTD SVG 1.1//EN" "http://www.w3.org/Graphics/SVG/1.1/DTD/svg11.dtd" >
<svg xmlns="http://www.w3.org/2000/svg" xmlns:xlink="http://www.w3.org/1999/xlink" version="1.1">
<metadata>
Created by FontForge 20170910 at Fri Jan  1 01:00:00 1904
 By Jimmy Wärting
</metadata>
<defs>
<font id="Memphis-Medium" horiz-adv-x="250" >
  <font-face 
    font-family="Memphis-Medium"
    font-weight="500"
    font-stretch="normal"
    units-per-em="1000"
    panose-1="0 0 0 0 0 0 0 0 0 0"
    ascent="800"
    descent="-200"
    x-height="462"
    cap-height="722"
    bbox="-168 -224 1000 970"
    underline-thickness="50"
    underline-position="-105"
    unicode-range="U+0020-F002"
  />
<missing-glyph 
 />
    <glyph glyph-name=".notdef" 
 />
    <glyph glyph-name="glyph1" horiz-adv-x="0" 
 />
    <glyph glyph-name="glyph2" 
 />
    <glyph glyph-name="space" unicode=" " 
 />
    <glyph glyph-name="space" unicode="&#xa0;" 
 />
    <glyph glyph-name="exclam" unicode="!" horiz-adv-x="278" 
d="M138 122q26 -1 45 -20t19 -45q0 -27 -19 -44.5t-45 -17.5t-44.5 17.5t-18.5 44.5q0 26 18.5 45t44.5 19v1zM176 178h-66l-19 544h105l-20 -544v0z" />
    <glyph glyph-name="quotedbl" unicode="&#x22;" horiz-adv-x="333" 
d="M125 657l-18 -204q0 -3 -1 -7l-2 -8q-2 -6 -6.5 -11.5t-12.5 -5.5t-12.5 5.5t-6.5 11.5l-2 8t-1 6l-18 205v3.5v5.5q-1 3 -1 6v6v5.5v5.5q2 18 10 33t31 15q22 0 30.5 -14t9.5 -31q1 -3 1 -7v-7v-6v-6q-1 -3 -1 -5.5v-4.5v1zM286 657l-18 -204q0 -3 -1 -7l-2 -8
q-2 -6 -6.5 -11.5t-12.5 -5.5t-12.5 5.5t-6.5 11.5l-2 8t-1 6l-18 205v3.5v5.5q-1 3 -1 6v6v5.5v5.5q2 18 10 33t31 15q22 0 30.5 -14t9.5 -31q1 -3 1 -7v-7v-6v-6q-1 -3 -1 -5.5v-4.5v1z" />
    <glyph glyph-name="numbersign" unicode="#" horiz-adv-x="500" 
d="M496 281v-67h-100l-30 -214h-72l30 214h-119l-30 -214h-72l30 214h-99v67h108l20 138h-100v67h109l29 214h73l-30 -214h119l29 214h73l-30 -214h90v-67h-99l-20 -138h91v0zM353 419h-119l-20 -138h119l20 138v0z" />
    <glyph glyph-name="dollar" unicode="$" horiz-adv-x="500" 
d="M88 60v-60h-68v222h64q0 -13 2 -27t7 -28q13 -40 43 -72.5t76 -32.5v256q-5 0 -9.5 1.5t-8.5 2.5q-64 19 -116.5 61.5t-52.5 133.5q0 67 51.5 117t135.5 50v75h49v-74q27 -1 53.5 -16t49.5 -33q3 -1 5.5 -3t4.5 -4v43h68v-189h-65q-1 4 -2 9.5t-3 10.5q-5 18 -13.5 36
t-20.5 33q-15 20 -34.5 32t-42.5 12v-219q83 -22 151 -66.5t68 -145.5q0 -93 -66.5 -141.5t-152.5 -48.5v-82h-49v82q-34 0 -66.5 19t-57.5 45v1zM261 308v-245q56 -1 98.5 25t42.5 90q0 60 -38.5 84t-85.5 39l-4 2t-5 1q-2 1 -4 1.5t-4 1.5v1zM212 409v208q-49 -1 -79 -31
t-30 -82q0 -36 27 -59t59 -32q6 -2 11.5 -3t11.5 -2v1z" />
    <glyph glyph-name="percent" unicode="%" horiz-adv-x="833" 
d="M149 -16l470 738h63l-471 -738h-62v0zM456 153q0 69 48 117.5t118 48.5t120 -48.5t50 -118.5t-50 -119t-120 -49t-118 49t-48 119v1zM526 153q0 -43 27.5 -72.5t70.5 -29.5q42 0 70 30t28 71q0 40 -29 69.5t-69 29.5t-69 -29t-29 -70v1zM377 555q0 -71 -49 -120.5
t-119 -49.5t-119 49.5t-49 119.5t49 118.5t119 48.5t119 -48.5t49 -118.5v1zM307 555q0 39 -29 68.5t-69 29.5t-69 -29t-29 -70q0 -42 27.5 -71.5t70.5 -29.5q42 0 70 30t28 71v1z" />
    <glyph glyph-name="ampersand" unicode="&#x26;" horiz-adv-x="722" 
d="M539 0l-86 89q-45 -46 -101 -75.5t-121 -29.5q-81 0 -137 53.5t-56 134.5q0 72 42.5 121.5t97.5 87.5q-36 39 -61 85t-25 101q0 63 48.5 108.5t122.5 45.5q67 0 115.5 -45t48.5 -112q0 -60 -38 -105t-85 -83l147 -156q7 6 15.5 18.5t17.5 27.5q9 17 18 36.5t17 39.5
q5 13 9 26t7 25l-70 1v69h216v-69h-63q-3 -13 -6.5 -25.5t-7.5 -24.5q-16 -48 -38.5 -92.5t-45.5 -74.5q-4 -4 -7.5 -8t-6.5 -8l85 -92h90v-69h-142v0zM397 149l-166 177q-38 -27 -68 -65t-30 -88q0 -45 33.5 -74.5t74.5 -29.5q50 0 88.5 23.5t67.5 55.5v1zM249 435
q2 0 4 1.5t4 2.5q33 21 60 54.5t27 72.5q0 38 -25 62t-63 24q-36 0 -58.5 -24t-22.5 -59t19 -65t41 -55l7.5 -7.5t6.5 -7.5v1z" />
    <glyph glyph-name="quotesingle" unicode="'" horiz-adv-x="222" 
d="M150 657l-18 -204q0 -3 -1 -7l-2 -8q-2 -6 -6.5 -11.5t-12.5 -5.5t-12.5 5.5t-6.5 11.5l-2 8t-1 6l-18 205v3.5v5.5q-1 3 -1 6v6v5.5v5.5q2 18 10 33t31 15q22 0 30.5 -14t9.5 -31q1 -3 1 -7v-7v-6v-6q-1 -3 -1 -5.5v-4.5v1z" />
    <glyph glyph-name="parenleft" unicode="(" horiz-adv-x="278" 
d="M195 738h64q-4 -7 -7.5 -13.5t-7.5 -11.5q-2 -3 -3.5 -5t-3.5 -5q-3 -5 -6.5 -10.5t-6.5 -11.5q-2 -3 -3.5 -6t-2.5 -6q-5 -8 -9.5 -16t-8.5 -17q-17 -29 -31 -59t-24 -63q-7 -23 -12.5 -50t-9.5 -54q-3 -23 -5 -45.5t-2 -42.5q0 -120 35 -226t105 -203h-68
q-65 94 -105.5 200.5t-40.5 221.5t43 222.5t110 199.5v1z" />
    <glyph glyph-name="parenright" unicode=")" horiz-adv-x="278" 
d="M90 -107h-68q71 97 105.5 203t34.5 226q0 20 -2 42.5t-5 45.5q-4 27 -9.5 54t-12.5 50q-10 33 -24 63t-31 59q-4 9 -8.5 17t-9.5 16q-1 3 -2.5 6t-3.5 6q-3 6 -6.5 11.5t-6.5 10.5q-2 3 -3.5 5t-3.5 5q-4 5 -7.5 11.5t-7.5 12.5l64 1q68 -93 110.5 -200.5t42.5 -222.5
t-40.5 -221.5t-105.5 -200.5v0z" />
    <glyph glyph-name="asterisk" unicode="*" horiz-adv-x="389" 
d="M223 722v-106l97 33l15 -51l-100 -30l56 -90l-46 -29l-53 93l-69 -86l-40 32l74 86l-103 38l20 46l97 -38v102h52v0z" />
    <glyph glyph-name="plus" unicode="+" horiz-adv-x="600" 
d="M262 269v193h75v-193h193v-75h-193v-194h-75v194h-193v75h193v0z" />
    <glyph glyph-name="comma" unicode="," 
d="M49 -89l62 209h89l-62 -209h-89v0z" />
    <glyph glyph-name="hyphen" unicode="-" horiz-adv-x="333" 
d="M290 216h-247v78h247v-78v0z" />
    <glyph glyph-name="period" unicode="." 
d="M125 122q26 -1 45 -20t19 -45q0 -27 -19 -44.5t-45 -17.5t-44.5 17.5t-18.5 44.5q0 26 18.5 45t44.5 19v1z" />
    <glyph glyph-name="slash" unicode="/" horiz-adv-x="278" 
d="M-9 -16l224 754h71l-226 -754h-69v0z" />
    <glyph glyph-name="zero" unicode="0" horiz-adv-x="500" 
d="M38 226v248q0 122 56 184.5t156 62.5t156.5 -62.5t56.5 -185.5v-247q0 -124 -56.5 -183t-156.5 -59t-156 59t-56 182v1zM377 227v250q0 71 -21 118.5t-105 47.5q-85 0 -106 -47.5t-21 -119.5v-249q0 -73 21 -119.5t106 -46.5q84 0 105 46.5t21 118.5v1z" />
    <glyph glyph-name="one" unicode="1" horiz-adv-x="500" 
d="M392 0h-267v67h90v572h-90v67h176v-639h91v-67v0z" />
    <glyph glyph-name="two" unicode="2" horiz-adv-x="500" 
d="M458 0h-420v68l283 348q19 22 30 50t11 58q0 50 -33.5 84.5t-83.5 34.5q-70 0 -97 -45t-27 -107v-50h-82v49q0 97 54.5 164t162.5 67q83 0 137.5 -57.5t54.5 -139.5q0 -41 -11.5 -72.5t-31.5 -60.5q-7 -10 -15 -20t-16 -21l-227 -283h229v130h82v-197v0z" />
    <glyph glyph-name="three" unicode="3" horiz-adv-x="500" 
d="M37 216h84q0 -63 29 -109t96 -46q65 0 98 33t33 98q0 72 -40.5 101t-107.5 33v68q59 -1 98.5 30.5t39.5 93.5q0 55 -32 90t-90 35q-64 0 -89.5 -44.5t-29.5 -98.5v-9.5v-8.5v-4v-4v-4v-4l-84 1v21q0 97 56 165t161 68q89 0 141.5 -62t52.5 -142q0 -8 -0.5 -16.5
t-2.5 -17.5q-6 -37 -27.5 -71.5t-57.5 -52.5q41 -17 69.5 -60t28.5 -112q0 -97 -54.5 -145t-120.5 -56q-7 -1 -14.5 -1.5t-14.5 -0.5q-97 0 -159.5 53t-62.5 138v41v0z" />
    <glyph glyph-name="four" unicode="4" horiz-adv-x="500" 
d="M194 0v67h89v117h-253v68l264 454h75v-455h85v-67h-85v-117h85v-67h-260v0zM283 251v293h-2l-173 -293h175v0z" />
    <glyph glyph-name="five" unicode="5" horiz-adv-x="500" 
d="M98 364v342h307v-67h-229v-185h62q119 -1 172 -67t53 -177q0 -105 -57 -165.5t-164 -60.5q-100 0 -154 61t-53 158l82 1v-3v-2v-2v-2q0 -52 31 -93t94 -41q69 0 102 40t33 113q0 84 -46 122.5t-127 38.5q-27 0 -53.5 -3.5t-52.5 -8.5v1z" />
    <glyph glyph-name="six" unicode="6" horiz-adv-x="500" 
d="M452 532h-82q-5 52 -36 81.5t-85 29.5q-56 0 -91 -32t-35 -86v-140q4 2 8.5 5.5t8.5 6.5q26 18 54 28t65 10q14 0 28 -2t29 -6q55 -16 100.5 -67t45.5 -148q0 -94 -46 -146.5t-101 -70.5q-17 -5 -34 -8t-32 -3t-31.5 2.5t-33.5 8.5q-55 18 -101 71.5t-46 151.5v299
q0 91 54 147.5t158 56.5q85 0 144 -52t59 -138v1zM248 62q59 -1 93.5 44.5t34.5 102.5q0 65 -31 106.5t-101 41.5q-67 0 -94 -44.5t-27 -104.5q0 -56 33 -101.5t92 -45.5v1z" />
    <glyph glyph-name="seven" unicode="7" horiz-adv-x="500" 
d="M120 499h-82v207h430v-68l-265 -638h-90l261 639h-254v-140v0z" />
    <glyph glyph-name="eight" unicode="8" horiz-adv-x="500" 
d="M249 722q86 -1 145 -52.5t59 -143.5q0 -51 -15.5 -83t-47.5 -61q-6 -5 -13 -10.5t-14 -10.5q6 -4 11.5 -8.5t10.5 -8.5q39 -33 58.5 -70t19.5 -97q0 -83 -66 -138t-147 -55t-147.5 55t-66.5 138q0 60 20 97t59 70q5 4 10.5 8.5t11.5 8.5q-8 5 -14.5 10.5t-12.5 10.5
q-34 29 -49.5 61t-15.5 83q0 92 59 143.5t145 51.5v1zM249 321q-7 -1 -14 -1.5t-14 -2.5q-40 -8 -73.5 -39.5t-33.5 -85.5t33.5 -86.5t73.5 -41.5l14 -2t14 -1t14.5 1t14.5 2q40 10 73.5 42.5t33.5 85.5t-33.5 84.5t-73.5 40.5q-7 1 -14.5 2t-14.5 1v1zM253 644
q-54 -1 -92 -33.5t-38 -91.5t36 -92t90 -33t90 33t36 92t-34 91.5t-88 32.5v1z" />
    <glyph glyph-name="nine" unicode="9" horiz-adv-x="500" 
d="M47 174h82q5 -53 36 -83t85 -30q56 0 91 32t35 86v142q-4 -4 -8.5 -7.5t-8.5 -6.5q-26 -18 -54 -28t-65 -10q-14 0 -28 2t-29 6q-55 16 -100.5 67t-45.5 148q0 94 46 146.5t101 71.5q17 5 34 8t32 3t31.5 -2.5t33.5 -8.5q55 -19 101 -72.5t46 -151.5v-297
q0 -92 -54 -148.5t-158 -56.5q-85 0 -144 52t-59 137v1zM251 644q-59 -1 -93.5 -46.5t-34.5 -102.5q0 -65 31 -106.5t101 -41.5q68 0 94.5 45t26.5 104q0 56 -33 101.5t-92 45.5v1z" />
    <glyph glyph-name="colon" unicode=":" 
d="M125 122q26 -1 45 -20t19 -45q0 -27 -19 -44.5t-45 -17.5t-44.5 17.5t-18.5 44.5q0 26 18.5 45t44.5 19v1zM125 472q26 -1 45 -20t19 -45q0 -27 -19 -45t-45 -18t-44.5 18t-18.5 45q0 26 18.5 45t44.5 19v1z" />
    <glyph glyph-name="semicolon" unicode=";" 
d="M49 -89l62 209h89l-62 -209h-89v0zM136 472q26 -1 45 -20t19 -45q0 -27 -19 -45t-45 -18t-44.5 18t-18.5 45q0 26 18.5 45t44.5 19v1z" />
    <glyph glyph-name="less" unicode="&#x3c;" horiz-adv-x="600" 
d="M554 52v-82l-508 225v72l508 225v-82l-404 -179l404 -179v0z" />
    <glyph glyph-name="equal" unicode="=" horiz-adv-x="600" 
d="M530 194v-75h-461v75h461v0zM530 344v-75h-461v75h461v0z" />
    <glyph glyph-name="greater" unicode="&#x3e;" horiz-adv-x="600" 
d="M46 52l404 179l-404 179v82l508 -225v-72l-508 -225v82v0z" />
    <glyph glyph-name="question" unicode="?" horiz-adv-x="500" 
d="M231 122q26 -1 45 -20t19 -45q0 -27 -19 -44.5t-45 -17.5t-44.5 17.5t-18.5 44.5q0 26 18.5 45t44.5 19v1zM187 190v221q6 -2 12.5 -2.5t13.5 -1.5h6.5h6.5h5.5h5.5q44 3 81.5 32.5t37.5 96.5q0 53 -34 86t-87 33q-51 0 -80 -33t-32 -72v-4v-4v-2.5t1 -2.5v-3v-3l-83 1
q0 98 58 151.5t142 53.5t142 -53.5t58 -152.5q0 -75 -44 -129.5t-124 -65.5v-146h-86v0z" />
    <glyph glyph-name="at" unicode="@" horiz-adv-x="800" 
d="M624 541l-67 -272q0 -2 -0.5 -3.5t-0.5 -3.5q-1 -4 -1.5 -8t-0.5 -9v-4.5t1 -4.5q2 -15 10 -27t27 -12q46 0 78.5 49.5t45.5 108.5q3 16 4.5 31t1.5 29q0 15 -2 30t-7 30q-22 80 -97.5 146.5t-195.5 66.5q-113 0 -204.5 -87t-91.5 -269q0 -117 87.5 -205.5t218.5 -88.5
q65 0 109.5 12t85.5 31q6 2 11 4.5t10 4.5l13 -40q-35 -26 -88 -43.5t-110 -21.5q-7 0 -14.5 -0.5t-15.5 -0.5q-163 0 -258 77t-130 170q-11 29 -16.5 58t-5.5 55q0 176 118.5 284.5t280.5 108.5q151 0 254.5 -91.5t103.5 -229.5q0 -16 -2 -33.5t-6 -34.5
q-17 -72 -66.5 -132t-127.5 -60q-31 0 -51 12.5t-31 27.5q-9 12 -12.5 22t-3.5 15v1v0l-2 1q-3 -7 -11.5 -16.5t-19.5 -19.5q-18 -16 -42.5 -28.5t-52.5 -13.5h-1.5h-1.5q-8 0 -19 2t-23 8q-22 11 -41 39.5t-19 84.5q0 22 6.5 51.5t19.5 60.5q24 58 71 105.5t118 47.5
q34 0 48 -14.5t23 -31.5q0 -1 0.5 -1t0.5 -1q1 -1 2 -3l2 -4l11 40h77v0zM516 433q0 34 -10.5 51.5t-34.5 17.5q-12 0 -25.5 -5.5t-27.5 -15.5q-33 -23 -60.5 -70t-27.5 -111q0 -46 18 -68t43 -22q8 0 17 3t18 9q30 19 56 71t34 139v1z" />
    <glyph glyph-name="A" unicode="A" horiz-adv-x="722" 
d="M202 653v69h328v-69h-87l194 -584h67v-69h-251v69h87l-57 178h-250l-59 -178h87v-69h-243v69h69l203 584h-88v0zM461 316l-100 308h-2l-101 -308h203v0z" />
    <glyph glyph-name="B" unicode="B" horiz-adv-x="611" 
d="M25 0v69h86v584h-84v69h270q119 -1 175.5 -45t56.5 -135q0 -67 -35.5 -104t-82.5 -49v-1q12 -4 27.5 -9t32.5 -15q31 -18 57.5 -57t26.5 -108q0 -112 -74 -155.5t-187 -43.5h-269v0zM206 348v-279h77q97 -1 137 34.5t40 105.5q0 74 -44 106t-134 32l-76 1v0zM206 653
v-236h99q49 -1 89 31.5t40 79.5q0 59 -36 91.5t-98 32.5l-94 1v0z" />
    <glyph glyph-name="C" unicode="C" horiz-adv-x="778" 
d="M697 498h-73q-22 76 -84.5 114.5t-140.5 38.5q-117 0 -189.5 -84.5t-72.5 -203.5t72.5 -206.5t189.5 -87.5q91 0 150.5 39t92.5 121l88 1q-31 -111 -115.5 -178.5t-213.5 -67.5q-160 0 -259.5 111.5t-99.5 265.5t98.5 265t255.5 111h10.5t10.5 -1q55 -3 107.5 -21.5
t94.5 -54.5v62h78v-224v0z" />
    <glyph glyph-name="D" unicode="D" horiz-adv-x="722" 
d="M111 653h-86v69h303q137 -1 246.5 -93.5t109.5 -268.5v-4.5v-4.5q-3 -132 -95 -241.5t-281 -109.5h-283v69h86v584v0zM206 654v-585h87q143 -1 219.5 86.5t76.5 208.5q0 122 -75.5 205.5t-230.5 83.5l-77 1v0z" />
    <glyph glyph-name="E" unicode="E" horiz-adv-x="611" 
d="M584 0h-558v69h86v584h-86v69h558v-193h-86v124h-291v-230h245v-78h-245v-276h291v146h86v-215v0z" />
    <glyph glyph-name="F" unicode="F" horiz-adv-x="611" 
d="M116 653h-86v69h553v-193h-86v124h-286v-230h252v-78h-252v-276h102v-69h-285v69h88v584v0z" />
    <glyph glyph-name="G" unicode="G" horiz-adv-x="833" 
d="M709 471h-69q-16 79 -85 129.5t-149 50.5q-14 0 -29 -2t-30 -5q-81 -20 -148 -91.5t-67 -192.5t67 -192.5t148 -91.5q15 -3 30 -5t29 -2q92 0 158 55.5t82 122.5l-189 1v78h349v-78h-84v-248h-78v86q-13 -13 -26.5 -24t-26.5 -20q-42 -30 -86.5 -44t-98.5 -14
q-153 0 -261 109.5t-108 266.5t108 267t261 110h6h6q57 -2 113 -24.5t100 -63.5v73h78v-251v0z" />
    <glyph glyph-name="H" unicode="H" horiz-adv-x="722" 
d="M294 0h-270v69h83v584h-83v69h271v-69h-93v-236h318v236h-92v69h270v-69h-83v-584h83v-69h-271v69h93v270h-318v-270h92v-69v0z" />
    <glyph glyph-name="I" unicode="I" horiz-adv-x="333" 
d="M300 0h-269v69h87v584h-85v69h269v-69h-89v-584h87v-69v0z" />
    <glyph glyph-name="J" unicode="J" horiz-adv-x="333" 
d="M28 653v69h282v-69h-90v-583q0 -83 -35.5 -135.5t-122.5 -52.5h-50v86h38q36 0 55.5 16t19.5 53v616h-97v0z" />
    <glyph glyph-name="K" unicode="K" horiz-adv-x="667" 
d="M33 722h269v-69h-91v-278h2l255 278h-77v69h259v-69h-66l-261 -284v-2l257 -298h70v-69h-260v69h77l-254 291h-2v-291h90v-69h-270v69h85v584h-83v69v0z" />
    <glyph glyph-name="L" unicode="L" horiz-adv-x="556" 
d="M116 653h-86v69h274v-69h-93v-584h224v143h86v-212h-493v69h88v584v0z" />
    <glyph glyph-name="M" unicode="M" horiz-adv-x="889" 
d="M207 618v-549h91v-69h-267v69h86v584h-86v69h233l185 -493h2l187 493h220v-69h-86v-584h86v-69h-264v69h88v549h-2l-210 -555h-49l-212 555h-2v0z" />
    <glyph glyph-name="N" unicode="N" horiz-adv-x="722" 
d="M111 69v584h-80v69h186l303 -529h2v460h-83v69h254v-69h-81v-653h-82l-327 564h-2v-495h89v-69h-261v69h82v0z" />
    <glyph glyph-name="O" unicode="O" horiz-adv-x="833" 
d="M416 738q161 -1 270 -111t109 -267t-109 -266.5t-270 -109.5q-160 0 -269.5 109.5t-109.5 266.5t109.5 267t269.5 110v1zM416 652q-11 -1 -21.5 -2t-21.5 -2q-90 -15 -165.5 -87.5t-75.5 -200.5t75.5 -200.5t165.5 -87.5q11 -1 21.5 -2t21.5 -1t21.5 1t21.5 2
q90 15 165.5 87.5t75.5 200.5t-75.5 200.5t-165.5 87.5q-11 1 -21.5 2t-21.5 1v1z" />
    <glyph glyph-name="P" unicode="P" horiz-adv-x="611" 
d="M304 0h-273v69h86v584h-86v69h269q120 -1 199.5 -52t79.5 -171q0 -116 -67.5 -164.5t-149.5 -59.5q-16 -2 -32.5 -3t-32.5 -1l-85 1v-203h92v-69v0zM212 653v-312h79q110 1 150.5 48t42.5 102v4.5v4.5q0 80 -48.5 116t-162.5 36l-61 1v0z" />
    <glyph glyph-name="Q" unicode="Q" horiz-adv-x="833" 
d="M718 -118h-167l-56 111q-19 -5 -39 -7t-40 -2q-160 0 -269.5 109.5t-109.5 266.5t109.5 267t269.5 110q161 0 270 -110t109 -267q0 -114 -59.5 -205.5t-157.5 -135.5l35 -68h105v-69v0zM414 154l76 42l48 -97q68 30 115 96t47 165q0 128 -75.5 200.5t-165.5 87.5
q-11 1 -21.5 2t-21.5 1t-21.5 -1t-21.5 -2q-90 -15 -165.5 -87.5t-75.5 -200.5t75.5 -200.5t165.5 -87.5q11 -1 21.5 -2t21.5 -1q10 0 19.5 1t19.5 2l-41 82v0z" />
    <glyph glyph-name="R" unicode="R" horiz-adv-x="667" 
d="M296 0h-266v69h85v584h-85v69h349q96 -2 148.5 -50t52.5 -131q0 -67 -32.5 -103t-90.5 -62v-1q43 -1 69 -31.5t26 -75.5v-199h84v-69h-179v260q0 55 -39.5 69t-88.5 14l-119 1v-275h86v-69v0zM210 653v-240h106q66 -1 117.5 26t51.5 103q0 64 -43.5 85.5t-95.5 23.5
q-8 1 -15.5 1h-14.5l-106 1v0z" />
    <glyph glyph-name="S" unicode="S" horiz-adv-x="611" 
d="M46 245h77q14 -79 68 -129.5t134 -50.5h4h4q55 2 100 34t45 91q0 68 -56 95.5t-128 46.5q-9 2 -17 4t-16 5q-81 21 -149 61t-68 143q0 98 66 145t156 47q51 0 89.5 -15t74.5 -46q4 -4 8.5 -8t8.5 -8v62h78v-212h-80q-10 62 -58.5 103.5t-112.5 41.5q-69 0 -104.5 -31.5
t-35.5 -75.5q0 -54 48.5 -77.5t113.5 -40.5q14 -3 27.5 -7t27.5 -7q81 -23 149 -67.5t68 -152.5q0 -94 -66.5 -153t-157.5 -59q-46 0 -82 7t-70 24q-17 8 -33.5 19t-34.5 25v-59h-78v245v0z" />
    <glyph glyph-name="T" unicode="T" horiz-adv-x="611" 
d="M119 522h-86v200h545v-200h-86v131h-139v-584h90v-69h-275v69h90v584h-139v-131v0z" />
    <glyph glyph-name="U" unicode="U" horiz-adv-x="722" 
d="M434 653v69h257v-69h-76v-397q0 -136 -70.5 -204t-183.5 -68t-183.5 68t-70.5 203v398h-76v69h257v-69h-86v-425q0 -82 45.5 -120.5t113.5 -38.5t113.5 38.5t45.5 119.5v426h-86v0z" />
    <glyph glyph-name="V" unicode="V" horiz-adv-x="667" 
d="M19 653v69h248v-69h-76l142 -478h2l152 478h-79v69h240v-69h-70l-209 -653h-74l-203 653h-73v0z" />
    <glyph glyph-name="W" unicode="W" horiz-adv-x="1000" 
d="M20 653v69h236v-69h-79l142 -485h2l136 485h-81v69h252v-69h-81l146 -487h2l142 487h-77v69h220v-69h-60l-193 -653h-71l-158 505h-2l-144 -505h-73l-198 653h-61v0z" />
    <glyph glyph-name="X" unicode="X" horiz-adv-x="667" 
d="M22 722h259v-69h-74l128 -210h2l134 210h-91v69h269v-69h-81l-182 -289v-2l183 -293h80v-69h-269v69h83l-131 209h-2l-133 -209h84v-69h-262v69h72l191 287v2l-179 295h-81v69v0z" />
    <glyph glyph-name="Y" unicode="Y" horiz-adv-x="667" 
d="M20 653v69h254v-69h-83l147 -239h2l142 239h-74v69h239v-69h-72l-194 -322v-262h85v-69h-266v69h86v255l-192 329h-74v0z" />
    <glyph glyph-name="Z" unicode="Z" horiz-adv-x="556" 
d="M40 527v195h494v-69l-394 -584h309v153h86v-222h-513v68l395 585h-291v-126h-86v0z" />
    <glyph glyph-name="bracketleft" unicode="[" horiz-adv-x="278" 
d="M255 -96h-206v818h206v-55h-132v-708h132v-55v0z" />
    <glyph glyph-name="backslash" unicode="\" horiz-adv-x="278" 
d="M-67 738h70l342 -754h-69l-343 754v0z" />
    <glyph glyph-name="bracketright" unicode="]" horiz-adv-x="278" 
d="M229 -96h-206v55h132v708h-132v55h206v-818v0z" />
    <glyph glyph-name="asciicircum" unicode="^" horiz-adv-x="600" 
d="M84 341l180 365h72l180 -365h-83l-132 277h-2l-133 -277h-82v0z" />
    <glyph glyph-name="underscore" unicode="_" horiz-adv-x="500" 
d="M500 -125h-500v60h500v-60v0z" />
    <glyph glyph-name="grave" unicode="`" horiz-adv-x="333" 
d="M36 669h109l89 -141h-67l-131 141v0z" />
    <glyph glyph-name="a" unicode="a" horiz-adv-x="611" 
d="M496 395v-328h78v-67h-154v70h-3q-20 -30 -54.5 -50.5t-71.5 -26.5q-8 -2 -15.5 -2.5t-15.5 -0.5q-107 0 -168 70t-61 171t61 170.5t168 69.5q8 0 15.5 -0.5t15.5 -2.5q37 -7 71.5 -27.5t54.5 -49.5l3 1v70h154v-67h-78v0zM117 232q0 -68 36 -121.5t115 -53.5
q56 0 103 46t47 128q0 83 -47 127.5t-103 44.5q-79 0 -115 -53.5t-36 -118.5v1z" />
    <glyph glyph-name="b" unicode="b" horiz-adv-x="611" 
d="M107 67v588h-78v67h164v-325q32 35 71.5 54.5t82.5 19.5q107 0 169.5 -70.5t62.5 -171.5t-62.5 -170t-169.5 -69q-47 0 -88.5 18t-68.5 57l-2 1v-66h-159v67h78v0zM343 404q-6 -1 -12 -1.5t-12 -1.5q-51 -9 -93.5 -53.5t-42.5 -118.5q0 -67 39 -119.5t121 -52.5
q79 0 114.5 53.5t35.5 118.5t-43 119.5t-107 54.5v1z" />
    <glyph glyph-name="c" unicode="c" horiz-adv-x="500" 
d="M455 303h-64q-12 44 -49 72t-84 28q-61 0 -102 -50t-41 -122q0 -79 39.5 -126.5t105.5 -47.5q48 0 88 24.5t71 58.5l51 -45q-40 -49 -93.5 -77t-120.5 -28q-111 0 -169 69t-58 171t58 171.5t169 69.5q10 0 20.5 -1.5t20.5 -4.5q26 -6 50 -20t38 -34l2 1v50h68v-159v0z
" />
    <glyph glyph-name="d" unicode="d" horiz-adv-x="611" 
d="M421 0v70h-2q-20 -29 -53 -49.5t-69 -26.5q-9 -2 -18 -3t-17 -1q-107 0 -168.5 69.5t-61.5 170.5t61.5 171t168.5 70q8 0 16.5 -1t16.5 -2q36 -8 69.5 -28.5t52.5 -48.5l-1 1h2v263h-88v67h174v-655h72v-67h-155v0zM269 404q-79 -1 -115 -55t-36 -119t36 -119t115 -54
q56 0 102.5 45.5t46.5 127.5q0 83 -46.5 128t-102.5 45v1z" />
    <glyph glyph-name="e" unicode="e" horiz-adv-x="556" 
d="M518 202h-401q6 -66 49.5 -103.5t94.5 -41.5h4.5h4.5q53 0 93 21t60 55l85 1q-19 -67 -89 -105.5t-150 -38.5q-96 0 -167 67.5t-71 170.5q0 104 72 173.5t172 69.5q109 0 176 -78t67 -192v1zM117 269h315q0 54 -48.5 94t-109.5 40q-59 0 -105 -39.5t-52 -95.5v1z" />
    <glyph glyph-name="f" unicode="f" horiz-adv-x="333" 
d="M296 0h-258v67h85v328h-84v67h84v141q0 49 33.5 83.5t85.5 34.5l54 1v-67h-36q-22 -1 -36.5 -16.5t-14.5 -48.5v-128h87v-67h-87v-328h87v-67v0z" />
    <glyph glyph-name="g" unicode="g" horiz-adv-x="611" 
d="M507 395v-372q0 -120 -61 -175.5t-179 -55.5h-6h-6q-68 3 -128 36.5t-83 101.5h98q12 -33 43 -49t65 -20q5 0 10.5 -0.5t10.5 -0.5q69 1 109.5 33.5t40.5 117.5v56h-2q-1 -7 -7 -15t-15 -16q-21 -18 -55 -32t-75 -14q-109 0 -166 68t-63 150q-1 5 -1 10.5v10.5
q0 6 0.5 12.5t0.5 13.5q8 81 64.5 148.5t164.5 67.5q47 0 89 -20t70 -56l2 1v66h159v-67h-80v0zM274 404q-58 -1 -104.5 -43.5t-46.5 -131.5q0 -5 0.5 -10t0.5 -10q6 -57 43.5 -104.5t106.5 -47.5q11 0 22.5 2.5t23.5 7.5q38 17 69.5 58t31.5 104q0 81 -38 127.5t-109 46.5
v1z" />
    <glyph glyph-name="h" unicode="h" horiz-adv-x="611" 
d="M272 0h-239v67h77v588h-77v67h163v-330q20 21 50 40.5t63 29.5q13 4 26.5 6.5t25.5 2.5q55 0 97.5 -34t42.5 -100v-270h73v-67h-236v67h77v250q0 42 -16.5 62t-45.5 20q-47 0 -82.5 -20.5t-68.5 -50.5q-1 -2 -2.5 -3.5t-3.5 -2.5v-255h76v-67v0z" />
    <glyph glyph-name="i" unicode="i" horiz-adv-x="333" 
d="M289 0h-245v67h82v328h-79v67h165v-395h77v-67v0zM88 575v92h122v-92h-122v0z" />
    <glyph glyph-name="j" unicode="j" horiz-adv-x="278" 
d="M32 462h171v-455q0 -106 -35 -157t-149 -58v76q50 0 74 27.5t24 76.5v423h-85v67v0zM201 575h-122v92h122v-92v0z" />
    <glyph glyph-name="k" unicode="k" horiz-adv-x="556" 
d="M255 0h-220v67h76v588h-72v67h158v-472l166 145h-62v67h224v-67h-53l-173 -154l173 -174h53v-67h-217v67h57l-168 168v-168h58v-67v0z" />
    <glyph glyph-name="l" unicode="l" horiz-adv-x="333" 
d="M289 0h-244v67h81v588h-79v67h165v-655h77v-67v0z" />
    <glyph glyph-name="m" unicode="m" horiz-adv-x="889" 
d="M199 462v-65q2 1 3.5 3t3.5 4q19 18 45 35t54 25q10 4 20 5.5t20 1.5q43 0 76 -22.5t52 -60.5q11 11 22 21t22 18q28 22 58 33t70 11q66 0 97 -47t35 -103v-8v-8v-238h65v-67h-221v67h70v248q0 40 -18.5 62t-61.5 22q-9 0 -18.5 -2.5t-19.5 -6.5q-18 -8 -35 -20t-30 -25
q-6 -6 -11 -12t-9 -12v-254h66v-67h-220v67h68v248q0 40 -18.5 62t-61.5 22q-9 0 -18.5 -2.5t-19.5 -6.5q-18 -8 -35 -20t-30 -25q-6 -6 -11 -12t-9 -12v-254h70v-67h-229v67h73v328h-73v67h159v0z" />
    <glyph glyph-name="n" unicode="n" horiz-adv-x="611" 
d="M195 462v-70q20 21 50 40.5t63 29.5q13 4 26.5 6.5t25.5 2.5q55 0 98.5 -34t43.5 -100v-270h71v-67h-236v67h79v250q0 35 -16.5 58.5t-47.5 23.5q-47 0 -82.5 -20.5t-68.5 -50.5q-1 -2 -2.5 -3.5t-3.5 -2.5v-255h76v-67h-239v67h77v328h-77v67h163v0z" />
    <glyph glyph-name="o" unicode="o" horiz-adv-x="556" 
d="M278 -10q-112 0 -179.5 62.5t-67.5 177.5q0 111 71.5 176t175.5 65t175.5 -65t71.5 -176q0 -115 -67.5 -177.5t-179.5 -62.5v0zM278 404q-73 -1 -117 -49t-44 -125t44 -125t117 -48t117 48t44 125t-44 125t-117 48v1z" />
    <glyph glyph-name="p" unicode="p" horiz-adv-x="611" 
d="M186 462v-66q6 6 12.5 12t12.5 11q31 28 65 40t81 12q86 0 151.5 -68t65.5 -175q0 -106 -65.5 -172t-151.5 -66q-55 0 -97 16t-68 56l-2 1v-204h86v-67h-250v67h78v536h-79v67h161v0zM335 404q-61 -1 -103 -49t-42 -124t42 -125t103 -49q66 0 108 51.5t45 113.5v4v4
q0 66 -41 119.5t-112 53.5v1z" />
    <glyph glyph-name="q" unicode="q" horiz-adv-x="611" 
d="M507 395v-536h78v-67h-250v67h86v204h-2q-26 -34 -68 -53.5t-97 -19.5q-7 0 -14 0.5t-13 1.5q-71 10 -130.5 72t-59.5 164q0 109 65.5 176t151.5 67q59 0 101.5 -20t67.5 -56l2 1v66h161v-67h-79v0zM273 404q-69 -1 -109.5 -50t-40.5 -125t44.5 -124t105.5 -48t104 52.5
t44 115.5v1.5v1.5q0 76 -38.5 125.5t-109.5 49.5v1z" />
    <glyph glyph-name="r" unicode="r" horiz-adv-x="389" 
d="M190 462v-91h2q25 55 72 77.5t106 22.5v-75q-106 -8 -140.5 -46t-34.5 -126v-157h86v-67h-249v67h77v328h-77v67h158v0z" />
    <glyph glyph-name="s" unicode="s" horiz-adv-x="500" 
d="M119 46v-46h-67v150h67q12 -39 41.5 -59.5t63.5 -28.5q11 -3 22 -4t21 -1q9 0 20.5 0.5t23.5 2.5q26 4 47.5 17.5t21.5 46.5q0 37 -36 47.5t-85 15.5q-11 1 -21.5 2.5t-21.5 2.5q-61 9 -112.5 36t-51.5 110q0 72 52 102.5t116 30.5q38 0 74.5 -14t65.5 -39v44h67v-141
h-71q-6 19 -17.5 34.5t-28.5 25.5q-16 11 -34.5 16.5t-38.5 5.5q-44 0 -75.5 -12t-31.5 -51q0 -37 37.5 -49t88.5 -19q9 -1 18.5 -2.5t19.5 -2.5q62 -10 113 -35.5t51 -100.5q0 -77 -55.5 -109t-124.5 -32q-9 0 -17.5 0.5t-17.5 1.5q-35 3 -68 15t-56 38v1z" />
    <glyph glyph-name="t" unicode="t" horiz-adv-x="333" 
d="M197 462h88v-67h-88v-261q0 -49 9 -59t35 -10q5 0 10.5 0.5t11.5 0.5q1 0 3 0.5t4 0.5q3 0 7 0.5t7 0.5v-68q-18 -5 -36.5 -7.5t-37.5 -2.5q-60 0 -79.5 23t-19.5 97v285h-79v67h79v160h86v-160v0z" />
    <glyph glyph-name="u" unicode="u" horiz-adv-x="611" 
d="M418 0v72h-2q-30 -39 -75 -60.5t-95 -21.5q-72 0 -109.5 34.5t-37.5 107.5v2v2v2v2v255h-67v67h153v-326q0 -40 24 -57.5t52 -17.5q47 0 82.5 20.5t68.5 50.5q1 2 2.5 3.5t3.5 2.5v257h-79v67h165v-395h74v-67h-160v0z" />
    <glyph glyph-name="v" unicode="v" horiz-adv-x="556" 
d="M21 462h220v-67h-70l105 -269h2l116 269h-75v67h216v-67h-63l-172 -395h-59l-159 395h-61v67v0z" />
    <glyph glyph-name="w" unicode="w" horiz-adv-x="833" 
d="M242 0l-151 395h-60v67h214v-67h-68l97 -262h2l103 262h-68v67h219v-67h-71l104 -260h2l100 260h-66v67h203v-67h-60l-157 -395h-54l-117 293h-2l-114 -293h-56v0z" />
    <glyph glyph-name="x" unicode="x" horiz-adv-x="556" 
d="M526 395h-60l-138 -159v-2l138 -167h60v-67h-215v67h53l-90 105h-2l-91 -105h53v-67h-203v67h60l139 159v2l-138 167h-60v67h214v-67h-51l85 -107h2l93 107h-51v67h202v-67v0z" />
    <glyph glyph-name="y" unicode="y" horiz-adv-x="556" 
d="M15 462h216v-67h-72l110 -278h2l120 278h-69v67h208v-67h-55l-239 -536h87v-67h-249v67h82l69 157l-154 379h-56v67v0z" />
    <glyph glyph-name="z" unicode="z" horiz-adv-x="444" 
d="M410 462v-68l-279 -327h211v99h78v-166h-397v69l279 326h-192v-86h-78v153h378v0z" />
    <glyph glyph-name="braceleft" unicode="{" horiz-adv-x="333" 
d="M127 30v174q0 46 -14.5 71.5t-61.5 38.5q47 14 61.5 39.5t14.5 72.5v175q0 87 40 111.5t115 24.5v-10q-41 -12 -61 -41.5t-20 -80.5v-163q0 -53 -10.5 -83t-62.5 -44v-1q52 -14 62.5 -43.5t10.5 -82.5v-163q0 -51 20 -80.5t61 -40.5v-11q-75 0 -115 24.5t-40 111.5v1z
" />
    <glyph glyph-name="bar" unicode="|" horiz-adv-x="222" 
d="M74 0v722h75v-722h-75v0z" />
    <glyph glyph-name="braceright" unicode="}" horiz-adv-x="333" 
d="M206 204v-174q0 -88 -40 -112.5t-115 -24.5v11q41 11 61 40.5t20 79.5v165q0 52 10.5 82t62.5 43v3q-52 12 -62.5 42t-10.5 82v165q0 50 -20 79.5t-61 40.5v12q75 -1 115 -25.5t40 -112.5v-173q0 -48 15 -73.5t61 -39.5q-46 -13 -61 -38.5t-15 -72.5v1z" />
    <glyph glyph-name="asciitilde" unicode="~" horiz-adv-x="600" 
d="M495 307l36 -62q-1 -2 -2 -3.5t-2 -2.5q-22 -31 -49.5 -56t-71.5 -25q-23 0 -44 7t-42 17q-4 2 -8 4.5t-8 4.5q-24 14 -51 24.5t-64 10.5q-31 0 -50 -21t-31 -46q-1 -1 -1.5 -2.5t-1.5 -2.5l-36 63q1 0 1.5 1.5t1.5 2.5q17 31 45.5 56t76.5 25q21 0 44.5 -7t47.5 -17
q5 -2 9.5 -4t9.5 -4q2 -1 4.5 -2t4.5 -2q3 -1 5 -2t5 -2q23 -11 44.5 -19.5t38.5 -8.5q28 0 48 21t36 46q1 1 2 2.5t2 2.5v1z" />
    <glyph glyph-name="Adieresis" unicode="&#xc4;" horiz-adv-x="722" 
d="M202 653v69h328v-69h-87l194 -584h67v-69h-251v69h87l-57 178h-250l-59 -178h87v-69h-243v69h69l203 584h-88v0zM461 316l-100 308h-2l-101 -308h203v0zM324 777h-91v102h91v-102v0zM485 777h-91v102h91v-102v0z" />
    <glyph glyph-name="Aring" unicode="&#xc5;" horiz-adv-x="722" 
d="M202 653v69h328v-69h-87l194 -584h67v-69h-251v69h87l-57 178h-250l-59 -178h87v-69h-243v69h69l203 584h-88v0zM461 316l-100 308h-2l-101 -308h203v0zM372 767q-43 -1 -72 29t-29 72q0 41 29.5 71.5t71.5 30.5t72 -30.5t30 -71.5q0 -43 -30 -72.5t-72 -29.5v1zM316 869
q0 -26 15 -42t41 -16t41.5 15.5t15.5 41.5t-16 41t-41 16q-25 -1 -40.5 -16.5t-15.5 -40.5v1z" />
    <glyph glyph-name="Ccedilla" unicode="&#xc7;" horiz-adv-x="778" 
d="M396 0h48l-47 -60l2 -2q5 2 12 3t15 1q6 0 12.5 -0.5t13.5 -2.5q23 -5 42 -21.5t19 -49.5q0 -47 -34 -68.5t-75 -23.5h-4h-4q-25 0 -50 5.5t-48 15.5l17 40q11 -5 23.5 -8.5t24.5 -5.5q5 0 9 -0.5t8 -0.5h6.5t7.5 1q16 2 29.5 11t13.5 28q0 22 -14.5 31t-34.5 9
q-10 0 -19.5 -2t-18.5 -5l-17 19l63 86v0zM697 498h-73q-22 76 -84.5 114.5t-140.5 38.5q-117 0 -189.5 -84.5t-72.5 -203.5t72.5 -206.5t189.5 -87.5q91 0 150.5 39t92.5 121l88 1q-31 -111 -115.5 -178.5t-213.5 -67.5q-160 0 -259.5 111.5t-99.5 265.5t98.5 265
t255.5 111h10.5t10.5 -1q55 -3 107.5 -21.5t94.5 -54.5v62h78v-224v0z" />
    <glyph glyph-name="Eacute" unicode="&#xc9;" horiz-adv-x="611" 
d="M584 0h-558v69h86v584h-86v69h558v-193h-86v124h-291v-230h245v-78h-245v-276h291v146h86v-215v0zM238 766l89 141h109l-131 -141h-67v0z" />
    <glyph glyph-name="Ntilde" unicode="&#xd1;" horiz-adv-x="722" 
d="M111 69v584h-80v69h186l303 -529h2v460h-83v69h254v-69h-81v-653h-82l-327 564h-2v-495h89v-69h-261v69h82v0zM481 891h51q0 -5 -1 -9t-1 -9q-8 -34 -33.5 -63t-62.5 -29q-18 0 -36 5t-35 12q-2 0 -3.5 0.5t-3.5 1.5q-13 5 -25.5 9.5t-24.5 6.5q-6 2 -12.5 2.5t-12.5 0.5
q-13 0 -24.5 -11t-16.5 -24q-1 -2 -1.5 -4.5t-0.5 -5.5l-46 1q2 44 30 75.5t74 31.5q20 0 38.5 -5.5t35.5 -13.5q2 -1 3.5 -1.5t2.5 -0.5q16 -7 30 -12t28 -5q21 0 33 13t14 33v1z" />
    <glyph glyph-name="Odieresis" unicode="&#xd6;" horiz-adv-x="833" 
d="M416 738q161 -1 270 -111t109 -267t-109 -266.5t-270 -109.5q-160 0 -269.5 109.5t-109.5 266.5t109.5 267t269.5 110v1zM416 652q-11 -1 -21.5 -2t-21.5 -2q-90 -15 -165.5 -87.5t-75.5 -200.5t75.5 -200.5t165.5 -87.5q11 -1 21.5 -2t21.5 -1t21.5 1t21.5 2
q90 15 165.5 87.5t75.5 200.5t-75.5 200.5t-165.5 87.5q-11 1 -21.5 2t-21.5 1v1zM382 777h-91v102h91v-102v0zM543 777h-91v102h91v-102v0z" />
    <glyph glyph-name="Udieresis" unicode="&#xdc;" horiz-adv-x="722" 
d="M434 653v69h257v-69h-76v-397q0 -136 -70.5 -204t-183.5 -68t-183.5 68t-70.5 203v398h-76v69h257v-69h-86v-425q0 -82 45.5 -120.5t113.5 -38.5t113.5 38.5t45.5 119.5v426h-86v0zM327 777h-91v102h91v-102v0zM488 777h-91v102h91v-102v0z" />
    <glyph glyph-name="aacute" unicode="&#xe1;" horiz-adv-x="611" 
d="M496 395v-328h78v-67h-154v70h-3q-20 -30 -54.5 -50.5t-71.5 -26.5q-8 -2 -15.5 -2.5t-15.5 -0.5q-107 0 -168 70t-61 171t61 170.5t168 69.5q8 0 15.5 -0.5t15.5 -2.5q37 -7 71.5 -27.5t54.5 -49.5l3 1v70h154v-67h-78v0zM117 232q0 -68 36 -121.5t115 -53.5
q56 0 103 46t47 128q0 83 -47 127.5t-103 44.5q-79 0 -115 -53.5t-36 -118.5v1zM247 528l89 141h109l-131 -141h-67v0z" />
    <glyph glyph-name="agrave" unicode="&#xe0;" horiz-adv-x="611" 
d="M496 395v-328h78v-67h-154v70h-3q-20 -30 -54.5 -50.5t-71.5 -26.5q-8 -2 -15.5 -2.5t-15.5 -0.5q-107 0 -168 70t-61 171t61 170.5t168 69.5q8 0 15.5 -0.5t15.5 -2.5q37 -7 71.5 -27.5t54.5 -49.5l3 1v70h154v-67h-78v0zM117 232q0 -68 36 -121.5t115 -53.5
q56 0 103 46t47 128q0 83 -47 127.5t-103 44.5q-79 0 -115 -53.5t-36 -118.5v1zM184 669h109l89 -141h-67l-131 141v0z" />
    <glyph glyph-name="acircumflex" unicode="&#xe2;" horiz-adv-x="611" 
d="M496 395v-328h78v-67h-154v70h-3q-20 -30 -54.5 -50.5t-71.5 -26.5q-8 -2 -15.5 -2.5t-15.5 -0.5q-107 0 -168 70t-61 171t61 170.5t168 69.5q8 0 15.5 -0.5t15.5 -2.5q37 -7 71.5 -27.5t54.5 -49.5l3 1v70h154v-67h-78v0zM117 232q0 -68 36 -121.5t115 -53.5
q56 0 103 46t47 128q0 83 -47 127.5t-103 44.5q-79 0 -115 -53.5t-36 -118.5v1zM169 528l100 141h92l100 -141h-80l-66 94l-66 -94h-80v0z" />
    <glyph glyph-name="adieresis" unicode="&#xe4;" horiz-adv-x="611" 
d="M496 395v-328h78v-67h-154v70h-3q-20 -30 -54.5 -50.5t-71.5 -26.5q-8 -2 -15.5 -2.5t-15.5 -0.5q-107 0 -168 70t-61 171t61 170.5t168 69.5q8 0 15.5 -0.5t15.5 -2.5q37 -7 71.5 -27.5t54.5 -49.5l3 1v70h154v-67h-78v0zM117 232q0 -68 36 -121.5t115 -53.5
q56 0 103 46t47 128q0 83 -47 127.5t-103 44.5q-79 0 -115 -53.5t-36 -118.5v1zM280 539h-91v102h91v-102v0zM441 539h-91v102h91v-102v0z" />
    <glyph glyph-name="atilde" unicode="&#xe3;" horiz-adv-x="611" 
d="M496 395v-328h78v-67h-154v70h-3q-20 -30 -54.5 -50.5t-71.5 -26.5q-8 -2 -15.5 -2.5t-15.5 -0.5q-107 0 -168 70t-61 171t61 170.5t168 69.5q8 0 15.5 -0.5t15.5 -2.5q37 -7 71.5 -27.5t54.5 -49.5l3 1v70h154v-67h-78v0zM117 232q0 -68 36 -121.5t115 -53.5
q56 0 103 46t47 128q0 83 -47 127.5t-103 44.5q-79 0 -115 -53.5t-36 -118.5v1zM434 653h51q0 -5 -1 -9t-1 -9q-8 -34 -33.5 -63t-62.5 -29q-18 0 -36 5t-35 12q-2 0 -3.5 0.5t-3.5 1.5q-13 5 -25.5 9.5t-24.5 6.5q-6 2 -12.5 2.5t-12.5 0.5q-13 0 -24.5 -11t-16.5 -24
q-1 -2 -1.5 -4.5t-0.5 -5.5l-46 1q2 44 30 75.5t74 31.5q20 0 38.5 -5.5t35.5 -13.5q2 -1 3.5 -1.5t2.5 -0.5q16 -7 30 -12t28 -5q21 0 33 13t14 33v1z" />
    <glyph glyph-name="aring" unicode="&#xe5;" horiz-adv-x="611" 
d="M496 395v-328h78v-67h-154v70h-3q-20 -30 -54.5 -50.5t-71.5 -26.5q-8 -2 -15.5 -2.5t-15.5 -0.5q-107 0 -168 70t-61 171t61 170.5t168 69.5q8 0 15.5 -0.5t15.5 -2.5q37 -7 71.5 -27.5t54.5 -49.5l3 1v70h154v-67h-78v0zM117 232q0 -68 36 -121.5t115 -53.5
q56 0 103 46t47 128q0 83 -47 127.5t-103 44.5q-79 0 -115 -53.5t-36 -118.5v1zM328 529q-43 -1 -72 29t-29 72q0 41 29.5 71.5t71.5 30.5t72 -30.5t30 -71.5q0 -43 -30 -72.5t-72 -29.5v1zM272 631q0 -26 15 -42t41 -16t41.5 15.5t15.5 41.5t-16 41t-41 16
q-25 -1 -40.5 -16.5t-15.5 -40.5v1z" />
    <glyph glyph-name="ccedilla" unicode="&#xe7;" horiz-adv-x="500" 
d="M246 0h48l-47 -60l2 -2q5 2 12 3t15 1q6 0 12.5 -0.5t13.5 -2.5q23 -5 42 -21.5t19 -49.5q0 -47 -34 -68.5t-75 -23.5h-4h-4q-25 0 -50 5.5t-48 15.5l17 40q11 -5 23.5 -8.5t24.5 -5.5q5 0 9 -0.5t8 -0.5h6.5t7.5 1q16 2 29.5 11t13.5 28q0 22 -14.5 31t-34.5 9
q-10 0 -19.5 -2t-18.5 -5l-17 19l63 86v0zM455 303h-64q-12 44 -49 72t-84 28q-61 0 -102 -50t-41 -122q0 -79 39.5 -126.5t105.5 -47.5q48 0 88 24.5t71 58.5l51 -45q-40 -49 -93.5 -77t-120.5 -28q-111 0 -169 69t-58 171t58 171.5t169 69.5q10 0 20.5 -1.5t20.5 -4.5
q26 -6 50 -20t38 -34l2 1v50h68v-159v0z" />
    <glyph glyph-name="eacute" unicode="&#xe9;" horiz-adv-x="556" 
d="M518 202h-401q6 -66 49.5 -103.5t94.5 -41.5h4.5h4.5q53 0 93 21t60 55l85 1q-19 -67 -89 -105.5t-150 -38.5q-96 0 -167 67.5t-71 170.5q0 104 72 173.5t172 69.5q109 0 176 -78t67 -192v1zM117 269h315q0 54 -48.5 94t-109.5 40q-59 0 -105 -39.5t-52 -95.5v1zM211 528
l89 141h109l-131 -141h-67v0z" />
    <glyph glyph-name="egrave" unicode="&#xe8;" horiz-adv-x="556" 
d="M518 202h-401q6 -66 49.5 -103.5t94.5 -41.5h4.5h4.5q53 0 93 21t60 55l85 1q-19 -67 -89 -105.5t-150 -38.5q-96 0 -167 67.5t-71 170.5q0 104 72 173.5t172 69.5q109 0 176 -78t67 -192v1zM117 269h315q0 54 -48.5 94t-109.5 40q-59 0 -105 -39.5t-52 -95.5v1zM148 669
h109l89 -141h-67l-131 141v0z" />
    <glyph glyph-name="ecircumflex" unicode="&#xea;" horiz-adv-x="556" 
d="M518 202h-401q6 -66 49.5 -103.5t94.5 -41.5h4.5h4.5q53 0 93 21t60 55l85 1q-19 -67 -89 -105.5t-150 -38.5q-96 0 -167 67.5t-71 170.5q0 104 72 173.5t172 69.5q109 0 176 -78t67 -192v1zM117 269h315q0 54 -48.5 94t-109.5 40q-59 0 -105 -39.5t-52 -95.5v1zM133 528
l100 141h92l100 -141h-80l-66 94l-66 -94h-80v0z" />
    <glyph glyph-name="edieresis" unicode="&#xeb;" horiz-adv-x="556" 
d="M518 202h-401q6 -66 49.5 -103.5t94.5 -41.5h4.5h4.5q53 0 93 21t60 55l85 1q-19 -67 -89 -105.5t-150 -38.5q-96 0 -167 67.5t-71 170.5q0 104 72 173.5t172 69.5q109 0 176 -78t67 -192v1zM117 269h315q0 54 -48.5 94t-109.5 40q-59 0 -105 -39.5t-52 -95.5v1zM244 539
h-91v102h91v-102v0zM405 539h-91v102h91v-102v0z" />
    <glyph glyph-name="iacute" unicode="&#xed;" horiz-adv-x="333" 
d="M289 0h-245v67h82v328h-79v67h165v-395h77v-67v0zM85 528l89 141h109l-131 -141h-67v0z" />
    <glyph glyph-name="igrave" unicode="&#xec;" horiz-adv-x="333" 
d="M289 0h-245v67h82v328h-79v67h165v-395h77v-67v0zM22 669h109l89 -141h-67l-131 141v0z" />
    <glyph glyph-name="icircumflex" unicode="&#xee;" horiz-adv-x="333" 
d="M289 0h-245v67h82v328h-79v67h165v-395h77v-67v0zM7 528l100 141h92l100 -141h-80l-66 94l-66 -94h-80v0z" />
    <glyph glyph-name="idieresis" unicode="&#xef;" horiz-adv-x="333" 
d="M289 0h-245v67h82v328h-79v67h165v-395h77v-67v0zM118 539h-91v102h91v-102v0zM279 539h-91v102h91v-102v0z" />
    <glyph glyph-name="ntilde" unicode="&#xf1;" horiz-adv-x="611" 
d="M195 462v-70q20 21 50 40.5t63 29.5q13 4 26.5 6.5t25.5 2.5q55 0 98.5 -34t43.5 -100v-270h71v-67h-236v67h79v250q0 35 -16.5 58.5t-47.5 23.5q-47 0 -82.5 -20.5t-68.5 -50.5q-1 -2 -2.5 -3.5t-3.5 -2.5v-255h76v-67h-239v67h77v328h-77v67h163v0zM425 653h51
q0 -5 -1 -9t-1 -9q-8 -34 -33.5 -63t-62.5 -29q-18 0 -36 5t-35 12q-2 0 -3.5 0.5t-3.5 1.5q-13 5 -25.5 9.5t-24.5 6.5q-6 2 -12.5 2.5t-12.5 0.5q-13 0 -24.5 -11t-16.5 -24q-1 -2 -1.5 -4.5t-0.5 -5.5l-46 1q2 44 30 75.5t74 31.5q20 0 38.5 -5.5t35.5 -13.5
q2 -1 3.5 -1.5t2.5 -0.5q16 -7 30 -12t28 -5q21 0 33 13t14 33v1z" />
    <glyph glyph-name="oacute" unicode="&#xf3;" horiz-adv-x="556" 
d="M278 -10q-112 0 -179.5 62.5t-67.5 177.5q0 111 71.5 176t175.5 65t175.5 -65t71.5 -176q0 -115 -67.5 -177.5t-179.5 -62.5v0zM278 404q-73 -1 -117 -49t-44 -125t44 -125t117 -48t117 48t44 125t-44 125t-117 48v1zM211 528l89 141h109l-131 -141h-67v0z" />
    <glyph glyph-name="ograve" unicode="&#xf2;" horiz-adv-x="556" 
d="M278 -10q-112 0 -179.5 62.5t-67.5 177.5q0 111 71.5 176t175.5 65t175.5 -65t71.5 -176q0 -115 -67.5 -177.5t-179.5 -62.5v0zM278 404q-73 -1 -117 -49t-44 -125t44 -125t117 -48t117 48t44 125t-44 125t-117 48v1zM148 669h109l89 -141h-67l-131 141v0z" />
    <glyph glyph-name="ocircumflex" unicode="&#xf4;" horiz-adv-x="556" 
d="M278 -10q-112 0 -179.5 62.5t-67.5 177.5q0 111 71.5 176t175.5 65t175.5 -65t71.5 -176q0 -115 -67.5 -177.5t-179.5 -62.5v0zM278 404q-73 -1 -117 -49t-44 -125t44 -125t117 -48t117 48t44 125t-44 125t-117 48v1zM133 528l100 141h92l100 -141h-80l-66 94l-66 -94
h-80v0z" />
    <glyph glyph-name="odieresis" unicode="&#xf6;" horiz-adv-x="556" 
d="M278 -10q-112 0 -179.5 62.5t-67.5 177.5q0 111 71.5 176t175.5 65t175.5 -65t71.5 -176q0 -115 -67.5 -177.5t-179.5 -62.5v0zM278 404q-73 -1 -117 -49t-44 -125t44 -125t117 -48t117 48t44 125t-44 125t-117 48v1zM244 539h-91v102h91v-102v0zM405 539h-91v102h91
v-102v0z" />
    <glyph glyph-name="otilde" unicode="&#xf5;" horiz-adv-x="556" 
d="M278 -10q-112 0 -179.5 62.5t-67.5 177.5q0 111 71.5 176t175.5 65t175.5 -65t71.5 -176q0 -115 -67.5 -177.5t-179.5 -62.5v0zM278 404q-73 -1 -117 -49t-44 -125t44 -125t117 -48t117 48t44 125t-44 125t-117 48v1zM398 653h51q0 -5 -1 -9t-1 -9q-8 -34 -33.5 -63
t-62.5 -29q-18 0 -36 5t-35 12q-2 0 -3.5 0.5t-3.5 1.5q-13 5 -25.5 9.5t-24.5 6.5q-6 2 -12.5 2.5t-12.5 0.5q-13 0 -24.5 -11t-16.5 -24q-1 -2 -1.5 -4.5t-0.5 -5.5l-46 1q2 44 30 75.5t74 31.5q20 0 38.5 -5.5t35.5 -13.5q2 -1 3.5 -1.5t2.5 -0.5q16 -7 30 -12t28 -5
q21 0 33 13t14 33v1z" />
    <glyph glyph-name="uacute" unicode="&#xfa;" horiz-adv-x="611" 
d="M418 0v72h-2q-30 -39 -75 -60.5t-95 -21.5q-72 0 -109.5 34.5t-37.5 107.5v2v2v2v2v255h-67v67h153v-326q0 -40 24 -57.5t52 -17.5q47 0 82.5 20.5t68.5 50.5q1 2 2.5 3.5t3.5 2.5v257h-79v67h165v-395h74v-67h-160v0zM224 528l89 141h109l-131 -141h-67v0z" />
    <glyph glyph-name="ugrave" unicode="&#xf9;" horiz-adv-x="611" 
d="M418 0v72h-2q-30 -39 -75 -60.5t-95 -21.5q-72 0 -109.5 34.5t-37.5 107.5v2v2v2v2v255h-67v67h153v-326q0 -40 24 -57.5t52 -17.5q47 0 82.5 20.5t68.5 50.5q1 2 2.5 3.5t3.5 2.5v257h-79v67h165v-395h74v-67h-160v0zM161 669h109l89 -141h-67l-131 141v0z" />
    <glyph glyph-name="ucircumflex" unicode="&#xfb;" horiz-adv-x="611" 
d="M418 0v72h-2q-30 -39 -75 -60.5t-95 -21.5q-72 0 -109.5 34.5t-37.5 107.5v2v2v2v2v255h-67v67h153v-326q0 -40 24 -57.5t52 -17.5q47 0 82.5 20.5t68.5 50.5q1 2 2.5 3.5t3.5 2.5v257h-79v67h165v-395h74v-67h-160v0zM146 528l100 141h92l100 -141h-80l-66 94l-66 -94
h-80v0z" />
    <glyph glyph-name="udieresis" unicode="&#xfc;" horiz-adv-x="611" 
d="M418 0v72h-2q-30 -39 -75 -60.5t-95 -21.5q-72 0 -109.5 34.5t-37.5 107.5v2v2v2v2v255h-67v67h153v-326q0 -40 24 -57.5t52 -17.5q47 0 82.5 20.5t68.5 50.5q1 2 2.5 3.5t3.5 2.5v257h-79v67h165v-395h74v-67h-160v0zM257 539h-91v102h91v-102v0zM418 539h-91v102h91
v-102v0z" />
    <glyph glyph-name="dagger" unicode="&#x2020;" horiz-adv-x="500" 
d="M92 355h-58v176h58v-58h124v191h-65v58h199v-58h-66v-191h124v56h58v-174h-58v56h-124v-504h-68v504h-124v-56v0z" />
    <glyph glyph-name="degree" horiz-adv-x="400" 
d="M57 579q0 59 41.5 100.5t101.5 41.5t101.5 -41.5t41.5 -101.5t-41.5 -102.5t-101.5 -42.5t-101.5 42.5t-41.5 102.5v1zM295 579q0 41 -26.5 70t-68.5 29t-68.5 -29t-26.5 -71t26.5 -72t68.5 -30t68.5 30t26.5 72v1z" />
    <glyph glyph-name="cent" unicode="&#xa2;" horiz-adv-x="500" 
d="M318 390l-106 -324q11 -5 23 -7t25 -2q48 0 88 24.5t71 58.5l51 -45q-40 -49 -93.5 -77t-120.5 -28q-18 0 -34.5 2t-31.5 7l-45 -136h-41l48 149q-61 27 -92 85.5t-31 132.5q0 102 58 171.5t169 69.5q5 0 10.5 -0.5t11.5 -1.5q6 0 11.5 -1.5t10.5 -3.5l40 123h42
l-45 -137q15 -8 27.5 -17.5t20.5 -21.5l2 1v50h68v-159h-64q-7 28 -26.5 50.5t-46.5 35.5v1zM176 85l103 317q-5 1 -10.5 1h-10.5q-61 0 -102 -50t-41 -122q0 -49 16 -87t45 -60v1z" />
    <glyph glyph-name="sterling" unicode="&#xa3;" horiz-adv-x="500" 
d="M21 -16v92q59 9 83 44.5t24 92.5q0 17 -2 32l-4 30q-2 10 -3.5 20t-2.5 20l-95 1v67h81l-4.5 18t-4.5 20q-5 20 -9.5 41t-6.5 42q0 6 -0.5 12.5t-0.5 12.5q0 97 52 144.5t146 47.5q102 0 140 -68.5t38 -159.5l-84 1v4.5v5.5q-1 52 -20 95.5t-83 43.5q-53 0 -79 -29
t-26 -79q0 -16 2.5 -33.5t5.5 -35.5q4 -18 9 -36t10 -34q1 -3 2.5 -7t2.5 -7l125 1v-67h-113q0 -9 1.5 -17t2.5 -17q1 -10 2.5 -20t1.5 -20v-8v-8q-1 -33 -7 -65t-24 -60q26 -19 56.5 -26.5t61.5 -7.5q61 0 77.5 37t16.5 89l84 1q2 -86 -33.5 -148t-132.5 -62
q-45 0 -86.5 17.5t-76.5 43.5q-21 -27 -53.5 -43t-66.5 -18h-3.5h-3.5v0z" />
    <glyph glyph-name="section" unicode="&#xa7;" horiz-adv-x="500" 
d="M404 722v-154h-68v99h-45q-53 -1 -72 -19t-19 -57q0 -21 5.5 -34.5t11.5 -21.5q3 -4 5.5 -6.5l4.5 -4.5l152 -149q14 -15 26.5 -27.5t22.5 -24.5q17 -19 26.5 -39t9.5 -48q0 -54 -36.5 -83.5t-89.5 -37.5q7 -7 13 -14.5t11 -15.5q16 -26 20 -49t4 -32q0 -56 -39 -77.5
t-96 -21.5h-150v153h68v-98h73q32 0 52.5 12.5t20.5 40.5q0 20 -12 42t-40 50l-142 145q-14 13 -26.5 25.5t-22.5 24.5q-17 19 -26.5 39t-9.5 48q0 54 36 87.5t90 33.5q-12 14 -21 40t-9 54q0 60 38.5 89.5t94.5 29.5l139 1v0zM127 344l135 -140q16 -17 31.5 -23t29.5 -6
q3 0 6.5 0.5t6.5 0.5q22 3 39.5 17.5t17.5 41.5q0 16 -9.5 31t-21.5 27q-3 4 -6 7l-6 6l-130 128q-10 10 -24 16.5t-29 6.5q-26 0 -43 -17.5t-17 -46.5q0 -13 4 -25.5t16 -24.5v1z" />
    <glyph glyph-name="bullet" horiz-adv-x="500" 
d="M425 361q0 -74 -51 -125t-124 -51t-124 51t-51 124t51 124t124 51t124 -51t51 -124v1z" />
    <glyph glyph-name="paragraph" unicode="&#xb6;" horiz-adv-x="600" 
d="M463 662v-742h77v-60h-377v60h77v391q-90 -1 -135.5 58.5t-45.5 153.5q0 104 48.5 151t160.5 47l272 1v-60h-77v0zM322 -80h59v742h-59v-742v0z" />
    <glyph glyph-name="germandbls" unicode="&#xdf;" horiz-adv-x="611" 
d="M272 0h-233v67h72v493q0 71 53 124t145 53q88 0 144 -50.5t56 -127.5v-8t-1 -9q-3 -43 -26.5 -81t-76.5 -49v-1q77 -18 119.5 -75.5t42.5 -135.5q0 -111 -63.5 -160.5t-164.5 -49.5v76q2 -1 4 -1h3q2 -1 4 -1h3q63 1 95.5 40.5t32.5 99.5q0 86 -51.5 125t-132.5 39v67
q77 15 101.5 41t24.5 90q0 48 -32 73.5t-77 25.5q-60 0 -88.5 -35.5t-28.5 -112.5v-450h75v-67v0z" />
    <glyph glyph-name="registered" unicode="&#xae;" horiz-adv-x="800" 
d="M400 -16q-156 0 -262.5 109t-106.5 266q0 158 106.5 268t262.5 110t262.5 -110t106.5 -268q0 -157 -106.5 -266t-262.5 -109v0zM400 36q127 -1 212.5 95.5t85.5 227.5q0 132 -85.5 229t-212.5 97t-212.5 -97.5t-85.5 -228.5t86 -227.5t212 -96.5v1zM224 552v17h201
q50 -1 86.5 -25.5t36.5 -77.5q0 -39 -23.5 -69.5t-62.5 -41.5l63 -88q1 -2 2 -3.5t2 -3.5q4 -5 8.5 -11t9.5 -11q14 -19 28.5 -35t25.5 -26v-11h-79q-5 -1 -10 1t-9 6q-22 18 -45.5 65.5t-60.5 103.5l-43 1v-110v-2.5v-0.5q0 -28 5 -35.5t35 -10.5q2 0 4.5 -0.5t5.5 -0.5
v-17h-180v18q3 -1 5.5 -0.5t4.5 0.5q31 3 36.5 11t5.5 37v270q0 28 -5 36t-34 11q-3 1 -6.5 1.5t-6.5 0.5v1zM354 546v-180h41q38 -1 53.5 27.5t15.5 68.5q0 47 -20 65t-49 18l-41 1v0z" />
    <glyph glyph-name="copyright" unicode="&#xa9;" horiz-adv-x="800" 
d="M31 360q0 157 106.5 267t262.5 110t262.5 -110t106.5 -268q0 -157 -106.5 -266t-262.5 -109t-262.5 109t-106.5 266v1zM102 360q0 -132 86 -228.5t212 -96.5q127 0 212.5 96.5t85.5 227.5q0 132 -85.5 229t-212.5 97t-212.5 -97.5t-85.5 -228.5v1zM561 274h20l-16 -79
q-1 -8 -6 -12t-15 -6q-2 -1 -4.5 -1.5t-4.5 -1.5q-4 -1 -8.5 -3t-10.5 -3q-17 -6 -41.5 -10t-52.5 -4q-99 0 -165 52t-66 164q0 13 2 27t6 28q16 59 71 107.5t159 48.5q35 0 57 -5t41 -11q2 0 3 -0.5t2 -0.5q3 -1 5 -1.5t4 -1.5q12 -4 17.5 -10t5.5 -13v-75h-20q-1 2 -1.5 5
t-1.5 6q-9 31 -34.5 57t-78.5 26q-70 0 -103 -50.5t-34 -130.5q-1 -85 31.5 -141.5t108.5 -56.5q51 0 82.5 27.5t47.5 67.5v1z" />
    <glyph glyph-name="trademark" unicode="&#x2122;" horiz-adv-x="990" 
d="M664 317l-143 297h-2v-206q0 -37 8.5 -51.5t43.5 -17.5v-21h-132v22q35 2 43 16.5t8 50.5v242q0 17 -16 30t-35 18q-5 1 -9.5 1.5t-9.5 0.5v23h133l146 -296l154 296h114v-22q-34 -2 -44 -14.5t-10 -37.5v-258v-3v-3q0 -26 5 -33.5t34 -10.5q3 0 5 -0.5t5 -0.5v-21h-185
v22q3 -1 5 -0.5t5 0.5q30 3 35 10.5t5 36.5v0.5v1.5v226h-2l-149 -298h-12v0zM244 699v-309v-2.5v-0.5q0 -29 5 -36.5t34 -10.5q3 0 5 -0.5t5 -0.5v-21h-186v22q3 -1 5.5 -0.5t4.5 0.5q31 3 36 10.5t5 36.5v0.5v1.5v310h-48q-30 -1 -45 -20.5t-21 -45.5l-22 1v88h356v-88
h-22q-6 25 -20.5 44.5t-44.5 19.5l-47 1v0z" />
    <glyph glyph-name="acute" unicode="&#xb4;" horiz-adv-x="333" 
d="M99 528l89 141h109l-131 -141h-67v0z" />
    <glyph glyph-name="dieresis" unicode="&#xa8;" horiz-adv-x="333" 
d="M132 539h-91v102h91v-102v0zM293 539h-91v102h91v-102v0z" />
    <glyph glyph-name="AE" unicode="&#x2260;" 
 />
    <glyph glyph-name="Oslash" unicode="&#xc6;" horiz-adv-x="1000" 
d="M609 345v-276h275v149h86v-218h-542v69h86v178h-254l-93 -178h83v-69h-238v69h62l326 584h-87v69h657v-193h-86v124h-275v-230h238v-78h-238v0zM301 316h213v337h-23l-190 -337v0z" />
    <glyph glyph-name="plusminus" unicode="&#xd8;" horiz-adv-x="833" 
d="M775 766l-102 -127q56 -52 89 -124t33 -155q0 -157 -109 -266.5t-270 -109.5q-61 0 -116 17t-99 48l-77 -95h-82l109 136q-53 51 -83.5 120.5t-30.5 149.5q0 157 109.5 267t269.5 110q57 0 109 -15t96 -44l69 88h85v0zM617 569l-361 -450q27 -18 56 -29.5t59 -16.5
q12 -2 23 -3t22 -1t21.5 1t21.5 2q90 15 165.5 87.5t75.5 200.5q0 68 -23 120.5t-60 87.5v1zM207 161l358 448q-24 14 -50.5 24t-52.5 14q-12 2 -23.5 3t-22.5 1t-21.5 -1t-21.5 -2q-90 -15 -165.5 -87.5t-75.5 -200.5q0 -64 20.5 -114t54.5 -86v1z" />
    <glyph glyph-name="yen" unicode="&#x221e;" 
 />
    <glyph glyph-name="mu" unicode="&#xb1;" horiz-adv-x="600" 
d="M69 0v75h461v-75h-461v0zM262 328v134h75v-134h193v-75h-193v-136h-75v136h-193v75h193v0z" />
    <glyph glyph-name="ordfeminine" unicode="&#x2264;" 
 />
    <glyph glyph-name="ordmasculine" unicode="&#x2265;" 
 />
    <glyph glyph-name="ae" unicode="&#xa5;" horiz-adv-x="500" 
d="M482 639h-54l-89 -190h112v-67h-150l-8 -18v-30h158v-67h-158v-200h55v-67h-198v67h57v200h-157v67h156v30l-8 18h-150v67h112l-89 190h-54v67h189v-67h-62l108 -234h2l105 234h-54v67h177v-67v0z" />
    <glyph glyph-name="oslash" unicode="&#xb5;" horiz-adv-x="611" 
d="M418 139v256h-79v67h165v-395h74v-67h-160v72h-2q-30 -39 -75 -60.5t-95 -21.5q-17 0 -32.5 2t-28.5 6v-206h-153v67h67v536h-67v67h153v-326q0 -40 24 -57.5t52 -17.5q47 0 82.5 20.5t68.5 50.5q1 2 2.5 3.5t3.5 2.5v1z" />
    <glyph glyph-name="questiondown" unicode="&#x2202;" 
 />
    <glyph glyph-name="exclamdown" unicode="&#x3a3;" 
 />
    <glyph glyph-name="florin" unicode="&#x220f;" 
 />
    <glyph glyph-name="guillemotleft" unicode="&#x3c0;" 
 />
    <glyph glyph-name="guillemotright" unicode="&#x222b;" 
 />
    <glyph glyph-name="ellipsis" unicode="&#xaa;" horiz-adv-x="367" 
d="M257 453v44h-2q-13 -19 -35 -33t-46 -19q-5 -1 -10.5 -1.5t-10.5 -0.5q-70 0 -110 43.5t-40 104.5q0 62 40 104t110 42q5 0 10.5 -0.5t10.5 -1.5q24 -4 46 -16.5t35 -30.5v-2h2v43h100v-42h-52v-192h52v-42h-100v0zM61 592q0 -41 23 -74t74 -33q37 0 67 28t30 78t-30 77
t-67 27q-51 0 -74 -32t-23 -72v1z" />
    <glyph glyph-name="Agrave" unicode="&#xba;" horiz-adv-x="334" 
d="M328 593q0 -71 -45 -110.5t-119 -39.5q-70 0 -114.5 40.5t-44.5 105.5q0 62 46 105t113 43q70 0 117 -39t47 -106v1zM270 590q0 47 -28 76t-75 29t-75.5 -29t-28.5 -77t28.5 -76t75.5 -28t75 28t28 76v1z" />
    <glyph glyph-name="Atilde" unicode="&#x3a9;" 
 />
    <glyph glyph-name="Otilde" unicode="&#xe6;" horiz-adv-x="833" 
d="M88 378l-32 62q43 19 88.5 25t91.5 6q51 0 96 -14.5t74 -59.5q33 44 79 59t98 15q106 0 161 -77.5t60 -171.5q1 -5 1 -10.5v-10.5l-377 1q8 -70 46.5 -107.5t109.5 -37.5h4.5h5.5q37 3 71 22.5t51 53.5l78 1q-29 -68 -87 -106t-132 -38q-56 0 -100 18t-79 63
q-24 -26 -59.5 -45.5t-73.5 -28.5q-15 -3 -29 -5t-28 -2q-70 0 -124.5 36t-54.5 112q0 80 57.5 121t131.5 41q8 0 17 -1t17 -2q26 -6 51 -16.5t46 -24.5q2 10 2 19v17q0 59 -31.5 85t-96.5 26q-34 0 -67.5 -5.5t-65.5 -20.5v1zM228 233q-44 -1 -79.5 -23.5t-35.5 -72.5
q0 -34 25.5 -54t56.5 -25q4 0 9 -0.5t9 -0.5q11 0 23.5 1.5t25.5 4.5q34 8 62 29t28 57q0 33 -25.5 51.5t-55.5 26.5q-11 2 -22 3.5t-21 1.5v1zM430 269h289q0 61 -44.5 97.5t-104.5 36.5q-59 0 -99.5 -38t-40.5 -97v1z" />
    <glyph glyph-name="OE" unicode="&#xf8;" horiz-adv-x="556" 
d="M546 541l-98 -129q36 -34 56.5 -79.5t20.5 -102.5q0 -115 -67.5 -177.5t-179.5 -62.5q-37 0 -69.5 7t-60.5 21l-73 -95h-74l98 129q-32 31 -50 75.5t-18 102.5q0 111 71.5 176t175.5 65q33 0 63.5 -6.5t55.5 -20.5l73 97h76v0zM400 350l-205 -269q17 -12 38 -18t45 -6
q73 0 117 48t44 125q0 36 -10 66.5t-29 52.5v1zM151 120l202 267q-16 7 -35 11.5t-40 4.5q-73 0 -117 -48t-44 -125q0 -34 9 -62t25 -49v1z" />
    <glyph glyph-name="oe" unicode="&#xbf;" horiz-adv-x="500" 
d="M313 340v-221q-6 0 -12.5 0.5t-13.5 1.5h-6.5h-6.5h-5.5h-5.5q-44 -3 -81.5 -32.5t-37.5 -95.5q0 -53 34.5 -86t86.5 -33q51 0 80 33t32 72v4v4v2.5v2.5q-1 2 -1 3v3h83q0 -99 -58 -152.5t-142 -53.5t-142 53.5t-58 152.5q0 74 44.5 129t123.5 65v148h86v0zM269 408
q-26 -1 -45 18t-19 45q0 27 19 45t45 18t44.5 -18t18.5 -45q0 -26 -18.5 -45t-44.5 -19v1z" />
    <glyph glyph-name="endash" unicode="&#xa1;" horiz-adv-x="278" 
d="M108 352h66l19 -544h-105l20 544v0zM139 535q26 -1 45 -20t19 -45q0 -27 -19 -45t-45 -18t-44.5 18t-18.5 45q0 26 18.5 45t44.5 19v1z" />
    <glyph glyph-name="emdash" unicode="&#xac;" 
 />
    <glyph glyph-name="quotedblleft" unicode="&#x221a;" 
 />
    <glyph glyph-name="quotedblright" unicode="&#x192;" horiz-adv-x="500" 
d="M499 720l-12 -70q-5 0 -10 1.5t-10 2.5q-6 2 -12 3.5t-12 2.5q-5 2 -10.5 2.5t-11.5 0.5q-37 0 -57.5 -26.5t-29.5 -58.5q-2 -6 -3.5 -13t-2.5 -13l-17 -108h119v-67h-126l-61 -382q-14 -89 -58 -127t-112 -38q-6 0 -12 0.5t-12 0.5q-13 2 -25 5t-23 8l10 80
q7 -3 14 -5.5t14 -4.5q6 -1 13 -2t14 -1h7t6 1q46 6 63 31.5t27 90.5l49 343h-119v67h129l23 128q15 67 57 116t116 49h6.5t6.5 -1q13 -1 26 -5t25 -8q3 -1 5.5 -2t5.5 -2v1z" />
    <glyph glyph-name="quoteleft" unicode="&#x2248;" 
 />
    <glyph glyph-name="quoteright" unicode="&#x2206;" 
 />
    <glyph glyph-name="ydieresis" unicode="&#xab;" horiz-adv-x="500" 
d="M142 256l121 -159h-78l-122 158l119 151h79l-119 -150v0zM316 256l121 -159h-78l-122 158l119 151h79l-119 -150v0z" />
    <glyph glyph-name="Ydieresis" unicode="&#xbb;" horiz-adv-x="500" 
d="M184 256l-119 150h79l119 -151l-122 -158h-78l121 159v0zM358 256l-119 150h79l119 -151l-122 -158h-78l121 159v0z" />
    <glyph glyph-name="fraction" unicode="&#x2026;" horiz-adv-x="1000" 
d="M167 122q26 -1 45 -20t19 -45q0 -27 -19 -44.5t-45 -17.5t-44.5 17.5t-18.5 44.5q0 26 18.5 45t44.5 19v1zM500 122q26 -1 45 -20t19 -45q0 -27 -19 -44.5t-45 -17.5t-44.5 17.5t-18.5 44.5q0 26 18.5 45t44.5 19v1zM833 122q26 -1 45 -20t19 -45q0 -27 -19 -44.5
t-45 -17.5t-44.5 17.5t-18.5 44.5q0 26 18.5 45t44.5 19v1z" />
    <glyph glyph-name="currency" unicode="&#xc0;" horiz-adv-x="722" 
d="M202 653v69h328v-69h-87l194 -584h67v-69h-251v69h87l-57 178h-250l-59 -178h87v-69h-243v69h69l203 584h-88v0zM461 316l-100 308h-2l-101 -308h203v0zM228 907h109l89 -141h-67l-131 141v0z" />
    <glyph glyph-name="guilsinglleft" unicode="&#xc3;" horiz-adv-x="722" 
d="M202 653v69h328v-69h-87l194 -584h67v-69h-251v69h87l-57 178h-250l-59 -178h87v-69h-243v69h69l203 584h-88v0zM461 316l-100 308h-2l-101 -308h203v0zM478 891h51q0 -5 -1 -9t-1 -9q-8 -34 -33.5 -63t-62.5 -29q-18 0 -36 5t-35 12q-2 0 -3.5 0.5t-3.5 1.5
q-13 5 -25.5 9.5t-24.5 6.5q-6 2 -12.5 2.5t-12.5 0.5q-13 0 -24.5 -11t-16.5 -24q-1 -2 -1.5 -4.5t-0.5 -5.5l-46 1q2 44 30 75.5t74 31.5q20 0 38.5 -5.5t35.5 -13.5q2 -1 3.5 -1.5t2.5 -0.5q16 -7 30 -12t28 -5q21 0 33 13t14 33v1z" />
    <glyph glyph-name="guilsinglright" unicode="&#xd5;" horiz-adv-x="833" 
d="M416 738q161 -1 270 -111t109 -267t-109 -266.5t-270 -109.5q-160 0 -269.5 109.5t-109.5 266.5t109.5 267t269.5 110v1zM416 652q-11 -1 -21.5 -2t-21.5 -2q-90 -15 -165.5 -87.5t-75.5 -200.5t75.5 -200.5t165.5 -87.5q11 -1 21.5 -2t21.5 -1t21.5 1t21.5 2
q90 15 165.5 87.5t75.5 200.5t-75.5 200.5t-165.5 87.5q-11 1 -21.5 2t-21.5 1v1zM536 891h51q0 -5 -1 -9t-1 -9q-8 -34 -33.5 -63t-62.5 -29q-18 0 -36 5t-35 12q-2 0 -3.5 0.5t-3.5 1.5q-13 5 -25.5 9.5t-24.5 6.5q-6 2 -12.5 2.5t-12.5 0.5q-13 0 -24.5 -11t-16.5 -24
q-1 -2 -1.5 -4.5t-0.5 -5.5l-46 1q2 44 30 75.5t74 31.5q20 0 38.5 -5.5t35.5 -13.5q2 -1 3.5 -1.5t2.5 -0.5q16 -7 30 -12t28 -5q21 0 33 13t14 33v1z" />
    <glyph glyph-name="fi" unicode="&#x152;" horiz-adv-x="1000" 
d="M970 0h-600q-159 0 -250 107.5t-91 252.5q0 143 92 252t249 109l601 1v-188h-86v119h-276v-230h237v-78h-237v-276h275v151h86v-220v0zM514 116v490q0 25 -19 34.5t-41 11.5h-7.5h-6.5l-42 1q-103 -1 -188.5 -69.5t-85.5 -220.5q0 -127 73.5 -211t200.5 -84l42 1
q3 -1 6.5 -1h7.5q22 2 41 11.5t19 35.5v1z" />
    <glyph glyph-name="fl" unicode="&#x153;" horiz-adv-x="944" 
d="M910 202h-388q5 -61 48 -103t107 -42q37 0 66.5 12.5t48.5 27.5q13 11 21 21t9 15l78 1q-29 -72 -87.5 -108t-134.5 -36q-64 0 -111.5 22.5t-84.5 76.5q-39 -51 -90 -75t-111 -24q-112 0 -179.5 62.5t-67.5 177.5q0 111 71.5 176t175.5 65q62 0 101 -19.5t63 -42.5
q11 -11 19.5 -21.5t15.5 -19.5q28 48 78 75t105 28h3.5h2.5q103 0 172 -69.5t69 -200.5v1zM120 231q0 -78 44 -126t117 -48q77 0 121.5 48t44.5 125t-44.5 125t-121.5 48q-73 0 -117 -48t-44 -125v1zM525 269h299q0 10 -3.5 22t-9.5 24q-17 33 -53.5 60.5t-87.5 27.5
q-55 0 -97.5 -38.5t-47.5 -96.5v1z" />
    <glyph glyph-name="daggerdbl" horiz-adv-x="500" 
d="M500 225h-500v60h500v-60v0z" />
    <glyph glyph-name="periodcentered" unicode="&#x2014;" horiz-adv-x="1000" 
d="M1000 225h-1000v60h1000v-60v0z" />
    <glyph glyph-name="quotedblbase" unicode="&#x201c;" horiz-adv-x="444" 
d="M54 513l62 209h89l-62 -209h-89v0zM239 513l62 209h89l-62 -209h-89v0z" />
    <glyph glyph-name="perthousand" unicode="&#x201d;" horiz-adv-x="444" 
d="M54 513l62 209h89l-62 -209h-89v0zM239 513l62 209h89l-62 -209h-89v0z" />
    <glyph glyph-name="Acircumflex" unicode="&#x2018;" horiz-adv-x="222" 
d="M36 513l62 209h89l-62 -209h-89v0z" />
    <glyph glyph-name="Ecircumflex" unicode="&#x2019;" horiz-adv-x="222" 
d="M36 513l62 209h89l-62 -209h-89v0z" />
    <glyph glyph-name="Aacute" unicode="&#xf7;" 
 />
    <glyph glyph-name="Edieresis" unicode="&#x25ca;" 
 />
    <glyph glyph-name="Egrave" unicode="&#xff;" horiz-adv-x="556" 
d="M15 462h216v-67h-72l110 -278h2l120 278h-69v67h208v-67h-55l-239 -536h87v-67h-249v67h82l69 157l-154 379h-56v67v0zM244 539h-91v102h91v-102v0zM405 539h-91v102h91v-102v0z" />
    <glyph glyph-name="Iacute" unicode="&#x178;" horiz-adv-x="667" 
d="M20 653v69h254v-69h-83l147 -239h2l142 239h-74v69h239v-69h-72l-194 -322v-262h85v-69h-266v69h86v255l-192 329h-74v0zM311 777h-91v102h91v-102v0zM472 777h-91v102h91v-102v0z" />
    <glyph glyph-name="Icircumflex" unicode="&#x2215;" horiz-adv-x="167" 
d="M-105 -16h-63l441 738h62l-440 -738v0z" />
    <glyph glyph-name="Idieresis" unicode="&#xa4;" horiz-adv-x="500" 
d="M-3 145l55 58q-25 29 -37.5 66.5t-12.5 78.5v4v4q1 39 13.5 76.5t38.5 63.5l-57 59l49 49l56 -56q27 22 65 35t78 14h4h4h4h4q38 -1 73.5 -14t61.5 -35l57 57l51 -51l-55 -55q24 -27 36 -64.5t13 -76.5v-4v-4q0 -41 -12 -80t-37 -70l54 -55l-47 -47l-56 58
q-28 -28 -67.5 -41.5t-80.5 -13.5q-43 0 -82.5 13t-69.5 40l-55 -57l-48 48v0zM252 179q70 -1 117 50t47 121q0 68 -47 119t-116 51q-71 0 -120 -50.5t-49 -121.5q0 -70 49 -120t119 -50v1z" />
    <glyph glyph-name="Igrave" unicode="&#x2039;" horiz-adv-x="333" 
d="M145 256l121 -159h-78l-122 158l119 151h79l-119 -150v0z" />
    <glyph glyph-name="Oacute" unicode="&#x203a;" horiz-adv-x="333" 
d="M188 256l-119 150h79l119 -151l-122 -158h-78l121 159v0z" />
    <glyph glyph-name="Ocircumflex" unicode="&#xf001;" horiz-adv-x="611" 
d="M287 0h-258v67h85v328h-84v67h84v141q0 49 33.5 83.5t85.5 34.5l54 1v-67h-36q-22 -1 -36.5 -16.5t-14.5 -48.5v-128h87v-67h-87v-328h87v-67v0zM582 0h-245v67h82v328h-79v67h165v-395h77v-67v0zM381 575v92h122v-92h-122v0z" />
    <glyph glyph-name="Ograve" unicode="&#xf002;" horiz-adv-x="611" 
d="M287 0h-258v67h85v328h-84v67h84v141q0 49 33.5 83.5t85.5 34.5l54 1v-67h-36q-22 -1 -36.5 -16.5t-14.5 -48.5v-128h87v-67h-87v-328h87v-67v0zM582 0h-245v67h82v588h-79v67h165v-655h77v-67v0z" />
    <glyph glyph-name="Uacute" unicode="&#x2021;" horiz-adv-x="500" 
d="M92 57h-58v173h58v-56h124v280h-124v-55h-58v176h58v-59h124v148h-65v58h199v-58h-66v-148h124v59h58v-176h-58v55h-124v-280h124v56h58v-173h-58v55h-124v-148h64v-58h-199v58h67v148h-124v-55v0z" />
    <glyph glyph-name="Ucircumflex" unicode="&#x2219;" 
d="M125 296q26 -1 45 -20t19 -45q0 -27 -19 -45t-45 -18t-44.5 18t-18.5 45q0 26 18.5 45t44.5 19v1z" />
    <glyph glyph-name="Ugrave" unicode="&#x201a;" 
 />
    <glyph glyph-name="dotlessi" unicode="&#x201e;" horiz-adv-x="444" 
d="M54 -89l62 209h89l-62 -209h-89v0zM239 -89l62 209h89l-62 -209h-89v0z" />
    <glyph glyph-name="circumflex" unicode="&#x2030;" horiz-adv-x="1000" 
d="M141 -16h-60l411 738h59l-410 -738v0zM470 291q62 -1 107.5 -47t45.5 -108q0 -63 -45.5 -107.5t-107.5 -44.5t-106 45.5t-44 106.5q0 62 43.5 108t106.5 46v1zM470 223q-36 -1 -58 -26.5t-22 -60.5q0 -34 22 -59.5t58 -25.5q35 0 59 25.5t24 59.5q0 35 -24 60.5t-59 25.5
v1zM835 291q62 -1 107.5 -47t45.5 -108q0 -63 -45.5 -107.5t-107.5 -44.5t-106 45.5t-44 106.5q0 62 43.5 108t106.5 46v1zM835 223q-36 -1 -58 -26.5t-22 -60.5q0 -34 22 -59.5t58 -25.5q35 0 59 25.5t24 59.5q0 35 -24 60.5t-59 25.5v1zM163 722q62 -1 108 -47t46 -108
q0 -63 -46 -108t-108 -45t-106.5 46t-44.5 107q0 62 44 108t107 46v1zM163 654q-36 -1 -58.5 -26.5t-22.5 -60.5q0 -34 22.5 -59.5t58.5 -25.5q35 0 59.5 25.5t24.5 59.5q0 35 -24.5 60.5t-59.5 25.5v1z" />
    <glyph glyph-name="tilde" unicode="&#xc2;" horiz-adv-x="722" 
d="M202 653v69h328v-69h-87l194 -584h67v-69h-251v69h87l-57 178h-250l-59 -178h87v-69h-243v69h69l203 584h-88v0zM461 316l-100 308h-2l-101 -308h203v0zM213 766l100 141h92l100 -141h-80l-66 94l-66 -94h-80v0z" />
    <glyph glyph-name="macron" unicode="&#xca;" horiz-adv-x="611" 
d="M584 0h-558v69h86v584h-86v69h558v-193h-86v124h-291v-230h245v-78h-245v-276h291v146h86v-215v0zM160 766l100 141h92l100 -141h-80l-66 94l-66 -94h-80v0z" />
    <glyph glyph-name="breve" unicode="&#xc1;" horiz-adv-x="722" 
d="M202 653v69h328v-69h-87l194 -584h67v-69h-251v69h87l-57 178h-250l-59 -178h87v-69h-243v69h69l203 584h-88v0zM461 316l-100 308h-2l-101 -308h203v0zM291 766l89 141h109l-131 -141h-67v0z" />
    <glyph glyph-name="dotaccent" unicode="&#xcb;" horiz-adv-x="611" 
d="M584 0h-558v69h86v584h-86v69h558v-193h-86v124h-291v-230h245v-78h-245v-276h291v146h86v-215v0zM271 777h-91v102h91v-102v0zM432 777h-91v102h91v-102v0z" />
    <glyph glyph-name="ring" unicode="&#xc8;" horiz-adv-x="611" 
d="M584 0h-558v69h86v584h-86v69h558v-193h-86v124h-291v-230h245v-78h-245v-276h291v146h86v-215v0zM175 907h109l89 -141h-67l-131 141v0z" />
    <glyph glyph-name="cedilla" unicode="&#xcd;" horiz-adv-x="333" 
d="M300 0h-269v69h87v584h-85v69h269v-69h-89v-584h87v-69v0zM92 766l89 141h109l-131 -141h-67v0z" />
    <glyph glyph-name="hungarumlaut" unicode="&#xce;" horiz-adv-x="333" 
d="M300 0h-269v69h87v584h-85v69h269v-69h-89v-584h87v-69v0zM14 766l100 141h92l100 -141h-80l-66 94l-66 -94h-80v0z" />
    <glyph glyph-name="ogonek" unicode="&#xcf;" horiz-adv-x="333" 
d="M300 0h-269v69h87v584h-85v69h269v-69h-89v-584h87v-69v0zM125 777h-91v102h91v-102v0zM286 777h-91v102h91v-102v0z" />
    <glyph glyph-name="caron" unicode="&#xcc;" horiz-adv-x="333" 
d="M300 0h-269v69h87v584h-85v69h269v-69h-89v-584h87v-69v0zM29 907h109l89 -141h-67l-131 141v0z" />
    <glyph glyph-name="Lslash" unicode="&#xd3;" horiz-adv-x="833" 
d="M416 738q161 -1 270 -111t109 -267t-109 -266.5t-270 -109.5q-160 0 -269.5 109.5t-109.5 266.5t109.5 267t269.5 110v1zM416 652q-11 -1 -21.5 -2t-21.5 -2q-90 -15 -165.5 -87.5t-75.5 -200.5t75.5 -200.5t165.5 -87.5q11 -1 21.5 -2t21.5 -1t21.5 1t21.5 2
q90 15 165.5 87.5t75.5 200.5t-75.5 200.5t-165.5 87.5q-11 1 -21.5 2t-21.5 1v1zM349 766l89 141h109l-131 -141h-67v0z" />
    <glyph glyph-name="lslash" unicode="&#xd4;" horiz-adv-x="833" 
d="M416 738q161 -1 270 -111t109 -267t-109 -266.5t-270 -109.5q-160 0 -269.5 109.5t-109.5 266.5t109.5 267t269.5 110v1zM416 652q-11 -1 -21.5 -2t-21.5 -2q-90 -15 -165.5 -87.5t-75.5 -200.5t75.5 -200.5t165.5 -87.5q11 -1 21.5 -2t21.5 -1t21.5 1t21.5 2
q90 15 165.5 87.5t75.5 200.5t-75.5 200.5t-165.5 87.5q-11 1 -21.5 2t-21.5 1v1zM271 766l100 141h92l100 -141h-80l-66 94l-66 -94h-80v0z" />
    <glyph glyph-name="Scaron" unicode="&#xf000;" 
 />
    <glyph glyph-name="scaron" unicode="&#xd2;" 
 />
    <glyph glyph-name="Eth" unicode="&#xda;" horiz-adv-x="722" 
d="M434 653v69h257v-69h-76v-397q0 -136 -70.5 -204t-183.5 -68t-183.5 68t-70.5 203v398h-76v69h257v-69h-86v-425q0 -82 45.5 -120.5t113.5 -38.5t113.5 38.5t45.5 119.5v426h-86v0zM294 766l89 141h109l-131 -141h-67v0z" />
    <glyph glyph-name="eth" unicode="&#xdb;" horiz-adv-x="722" 
d="M434 653v69h257v-69h-76v-397q0 -136 -70.5 -204t-183.5 -68t-183.5 68t-70.5 203v398h-76v69h257v-69h-86v-425q0 -82 45.5 -120.5t113.5 -38.5t113.5 38.5t45.5 119.5v426h-86v0zM216 766l100 141h92l100 -141h-80l-66 94l-66 -94h-80v0z" />
    <glyph glyph-name="Thorn" unicode="&#xd9;" horiz-adv-x="722" 
d="M434 653v69h257v-69h-76v-397q0 -136 -70.5 -204t-183.5 -68t-183.5 68t-70.5 203v398h-76v69h257v-69h-86v-425q0 -82 45.5 -120.5t113.5 -38.5t113.5 38.5t45.5 119.5v426h-86v0zM231 907h109l89 -141h-67l-131 141v0z" />
    <glyph glyph-name="thorn" unicode="&#x131;" horiz-adv-x="333" 
d="M289 0h-245v67h82v328h-79v67h165v-395h77v-67v0z" />
    <glyph glyph-name="onehalf" unicode="&#x2dc;" horiz-adv-x="333" 
d="M21 528l100 141h92l100 -141h-80l-66 94l-66 -94h-80v0z" />
    <glyph glyph-name="arrowright" unicode="&#x2c6;" horiz-adv-x="333" 
d="M286 653h51q0 -5 -1 -9t-1 -9q-8 -34 -33.5 -63t-62.5 -29q-18 0 -36 5t-35 12q-2 0 -3.5 0.5t-3.5 1.5q-13 5 -25.5 9.5t-24.5 6.5q-6 2 -12.5 2.5t-12.5 0.5q-13 0 -24.5 -11t-16.5 -24q-1 -2 -1.5 -4.5t-0.5 -5.5l-46 1q2 44 30 75.5t74 31.5q20 0 38.5 -5.5
t35.5 -13.5q2 -1 3.5 -1.5t2.5 -0.5q16 -7 30 -12t28 -5q21 0 33 13t14 33v1z" />
    <glyph glyph-name="house" unicode="&#x2c9;" horiz-adv-x="333" 
d="M323 561h-312v58h312v-58v0z" />
    <glyph glyph-name="endash" unicode="&#x2d8;" horiz-adv-x="333" 
d="M12 668h50q7 -45 38 -62t72 -17q40 0 66 19.5t34 58.5l49 1q0 -68 -45 -102.5t-113 -34.5q-64 0 -107.5 35t-43.5 101v1z" />
    <glyph glyph-name="sfthyphen" unicode="&#x2d9;" horiz-adv-x="333" 
d="M212 539h-91v102h91v-102v0z" />
    <glyph glyph-name="filledbox" unicode="&#x2da;" horiz-adv-x="333" 
d="M180 529q-43 -1 -72 29t-29 72q0 41 29.5 71.5t71.5 30.5t72 -30.5t30 -71.5q0 -43 -30 -72.5t-72 -29.5v1zM124 631q0 -26 15 -42t41 -16t41.5 15.5t15.5 41.5t-16 41t-41 16q-25 -1 -40.5 -16.5t-15.5 -40.5v1z" />
    <glyph glyph-name="bullet" unicode="&#xb8;" horiz-adv-x="333" 
d="M157 0h48l-47 -60l2 -2q5 2 12 3t15 1q6 0 12.5 -0.5t13.5 -2.5q23 -5 42 -21.5t19 -49.5q0 -47 -34 -68.5t-75 -23.5h-4h-4q-25 0 -50 5.5t-48 15.5l17 40q11 -5 23.5 -8.5t24.5 -5.5q5 0 9 -0.5t8 -0.5h6.5t7.5 1q16 2 29.5 11t13.5 28q0 22 -14.5 31t-34.5 9
q-10 0 -19.5 -2t-18.5 -5l-17 19l63 86v0z" />
    <glyph glyph-name="uni02BA" unicode="&#x2ba;" horiz-adv-x="333" 
d="M70 669h109l-131 -141h-67l89 141v0zM243 669h109l-131 -141h-67l89 141v0z" />
    <glyph glyph-name="glyph223" unicode="&#x2db;" horiz-adv-x="333" 
d="M166 0h74q-2 -1 -3.5 -1.5t-2.5 -1.5q-41 -22 -73 -46.5t-36 -64.5v-3.5v-2.5q0 -20 9.5 -29t21.5 -12q4 -2 8.5 -2.5t8.5 -0.5h1.5h1.5h0.5h1.5q7 0 14.5 1t14.5 2q15 3 29.5 8t28.5 12l14 -39q-1 -1 -2 -1.5l-3 -1.5q-19 -11 -46.5 -20.5t-76.5 -10.5q-37 1 -67 19.5
t-30 65.5q0 43 31.5 73.5t80.5 55.5v0z" />
    <glyph glyph-name="glyph224" unicode="&#x2c7;" horiz-adv-x="333" 
d="M233 669h80l-100 -141h-92l-100 141h80l66 -94l66 94v0z" />
    <glyph glyph-name="glyph225" unicode="&#x141;" horiz-adv-x="556" 
d="M30 722h274v-69h-93v-233l158 75v-74l-158 -75v-277h224v143h86v-212h-493v69h88v229l-115 -56v74l115 56v281h-86v69v0z" />
    <glyph glyph-name="glyph226" unicode="&#x142;" horiz-adv-x="333" 
d="M47 722h165v-288l102 62v-74l-102 -62v-293h77v-67h-244v67h81v241l-102 -62v74l102 62v273h-79v67v0z" />
    <glyph glyph-name="glyph227" unicode="&#x160;" horiz-adv-x="611" 
d="M46 245h77q14 -79 68 -129.5t134 -50.5h4h4q55 2 100 34t45 91q0 68 -56 95.5t-128 46.5q-9 2 -17 4t-16 5q-81 21 -149 61t-68 143q0 98 66 145t156 47q51 0 89.5 -15t74.5 -46q4 -4 8.5 -8t8.5 -8v62h78v-212h-80q-10 62 -58.5 103.5t-112.5 41.5q-69 0 -104.5 -31.5
t-35.5 -75.5q0 -54 48.5 -77.5t113.5 -40.5q14 -3 27.5 -7t27.5 -7q81 -23 149 -67.5t68 -152.5q0 -94 -66.5 -153t-157.5 -59q-46 0 -82 7t-70 24q-17 8 -33.5 19t-34.5 25v-59h-78v245v0zM372 907h80l-100 -141h-92l-100 141h80l66 -94l66 94v0z" />
    <glyph glyph-name="glyph228" unicode="&#x161;" horiz-adv-x="500" 
d="M119 46v-46h-67v150h67q12 -39 41.5 -59.5t63.5 -28.5q11 -3 22 -4t21 -1q9 0 20.5 0.5t23.5 2.5q26 4 47.5 17.5t21.5 46.5q0 37 -36 47.5t-85 15.5q-11 1 -21.5 2.5t-21.5 2.5q-61 9 -112.5 36t-51.5 110q0 72 52 102.5t116 30.5q38 0 74.5 -14t65.5 -39v44h67v-141
h-71q-6 19 -17.5 34.5t-28.5 25.5q-16 11 -34.5 16.5t-38.5 5.5q-44 0 -75.5 -12t-31.5 -51q0 -37 37.5 -49t88.5 -19q9 -1 18.5 -2.5t19.5 -2.5q62 -10 113 -35.5t51 -100.5q0 -77 -55.5 -109t-124.5 -32q-9 0 -17.5 0.5t-17.5 1.5q-35 3 -68 15t-56 38v1zM317 669h80
l-100 -141h-92l-100 141h80l66 -94l66 94v0z" />
    <glyph glyph-name="Zcaron" unicode="&#x17d;" 
 />
    <glyph glyph-name="zcaron" unicode="&#x17e;" 
 />
    <glyph glyph-name="brokenbar" unicode="&#xa6;" 
 />
    <glyph glyph-name="glyph232" unicode="&#xd0;" horiz-adv-x="722" 
d="M6 385h105v268h-86v69h193h27h26q37 0 72 -2.5t63 -9.5q131 -28 204.5 -124t73.5 -226t-73.5 -225.5t-204.5 -124.5q-36 -8 -81 -9t-92 -1h-7.5h-7.5h-193v69h86v247h-105v69v0zM361 385v-69h-155v-247h77q155 -1 230.5 83.5t75.5 211.5q0 122 -75.5 205t-230.5 83l-77 1
v-268h155v0z" />
    <glyph glyph-name="glyph233" unicode="&#xf0;" horiz-adv-x="556" 
d="M239 647l121 55v-57l-82 -37l87 -89q10 -11 20 -21.5t21 -22.5q10 -11 19.5 -22t18.5 -23q15 -19 28 -37.5t21 -35.5q16 -27 24 -58.5t8 -66.5q0 -117 -68 -179.5t-183 -62.5q-107 0 -175 65t-68 171q0 104 70 174.5t174 70.5q11 0 22 -0.5t19 -2.5l2 3q-8 7 -18.5 17.5
l-23.5 23.5l-64 66l-126 -57v57l87 39l-104 105h95l75 -75v0zM278 404q-73 -1 -117 -49t-44 -125t44 -125t117 -48t117 48t44 125t-44 125t-117 48v1z" />
    <glyph glyph-name="Yacute" unicode="&#xdd;" 
 />
    <glyph glyph-name="yacute" unicode="&#xfd;" 
 />
    <glyph glyph-name="glyph236" unicode="&#xde;" horiz-adv-x="611" 
d="M300 0h-269v69h86v584h-84v69h269v-69h-90v-78h88q120 -1 199.5 -46.5t79.5 -165.5q0 -116 -67.5 -160.5t-149.5 -53.5q-16 -2 -32.5 -2.5t-32.5 -0.5l-85 1v-78h88v-69v0zM212 506v-290h79q114 -1 153.5 44.5t39.5 103.5q0 80 -48.5 110.5t-162.5 30.5l-61 1v0z" />
    <glyph glyph-name="glyph237" unicode="&#xfe;" horiz-adv-x="611" 
d="M190 722v-326q2 2 4.5 4t4.5 5q33 35 69 50.5t89 15.5q86 0 151.5 -68t65.5 -175q0 -106 -65.5 -172t-151.5 -66q-55 0 -97 16t-68 56l-2 1v-204h86v-67h-250v67h78v796h-79v67h165v0zM335 404q-61 -1 -103 -49t-42 -124t42 -125t103 -49q66 0 108 51.5t45 113.5v4v4
q0 66 -41 119.5t-112 53.5v1z" />
    <glyph glyph-name="minus" unicode="&#x2212;" 
 />
    <glyph glyph-name="multiply" unicode="&#xd7;" 
 />
    <glyph glyph-name="uni00B9" unicode="&#xb9;" 
 />
    <glyph glyph-name="uni00B2" unicode="&#xb2;" 
 />
    <glyph glyph-name="uni00B3" unicode="&#xb3;" 
 />
    <glyph glyph-name="glyph243" unicode="&#xbd;" horiz-adv-x="750" 
d="M156 -16h-63l441 738h62l-440 -738v0zM719 0h-273v42l184 209q11 13 18.5 29.5t7.5 34.5q0 30 -21.5 50.5t-54.5 20.5q-45 0 -62.5 -26.5t-17.5 -64.5v-29h-54v29q0 58 35.5 98t105.5 40q55 0 92 -34.5t37 -83.5q0 -24 -8.5 -43t-22.5 -36q-5 -6 -10 -12.5t-11 -12.5
l-147 -170h148v78h54v-119v0zM204 288h-172v41h56v342h-56v41h116v-383h56v-41v0z" />
    <glyph glyph-name="onequarter" unicode="&#xbc;" 
 />
    <glyph glyph-name="threequarters" unicode="&#xbe;" 
 />
    <glyph glyph-name="franc" unicode="&#x20a3;" 
 />
    <glyph glyph-name="Gbreve" unicode="&#x11e;" 
 />
    <glyph glyph-name="gbreve" unicode="&#x11f;" 
 />
    <glyph glyph-name="Idotaccent" unicode="&#x130;" 
 />
    <glyph glyph-name="Scedilla" unicode="&#x15e;" 
 />
    <glyph glyph-name="scedilla" unicode="&#x15f;" 
 />
    <glyph glyph-name="Cacute" unicode="&#x106;" 
 />
    <glyph glyph-name="cacute" unicode="&#x107;" 
 />
    <glyph glyph-name="Ccaron" unicode="&#x10c;" 
 />
    <glyph glyph-name="ccaron" unicode="&#x10d;" 
 />
    <glyph glyph-name="dcroat" unicode="&#x111;" 
 />
    <glyph glyph-name="glyph257" unicode="&#x2192;" horiz-adv-x="500" 
 />
    <glyph glyph-name="glyph258" unicode="&#x2302;" 
 />
    <glyph glyph-name="glyph259" unicode="&#x2013;" horiz-adv-x="500" 
d="M500 225h-500v60h500v-60v0z" />
    <glyph glyph-name="uni00AD" unicode="&#xad;" horiz-adv-x="500" 
 />
    <glyph glyph-name="glyph261" unicode="&#x25a0;" horiz-adv-x="500" 
 />
    <glyph glyph-name="glyph262" unicode="&#x2022;" horiz-adv-x="500" 
d="M425 361q0 -74 -51 -125t-124 -51t-124 51t-51 124t51 124t124 51t124 -51t51 -124v1z" />
    <glyph glyph-name="glyph263" unicode="&#xaf;" 
 />
    <glyph glyph-name="glyph264" unicode="&#xb0;" 
 />
    <glyph glyph-name="glyph265" unicode="&#xb7;" 
 />
    <glyph glyph-name="underscoredbl" unicode="&#x2017;" 
 />
    <glyph glyph-name="exclamdbl" unicode="&#x203c;" 
 />
    <glyph glyph-name="uni207F" unicode="&#x207f;" 
 />
    <glyph glyph-name="peseta" unicode="&#x20a7;" 
 />
    <glyph glyph-name="Gamma" unicode="&#x393;" 
 />
    <glyph glyph-name="Theta" unicode="&#x398;" 
 />
    <glyph glyph-name="Phi" unicode="&#x3a6;" 
 />
    <glyph glyph-name="alpha" unicode="&#x3b1;" 
 />
    <glyph glyph-name="delta" unicode="&#x3b4;" 
 />
    <glyph glyph-name="epsilon" unicode="&#x3b5;" 
 />
    <glyph glyph-name="sigma" unicode="&#x3c3;" 
 />
    <glyph glyph-name="tau" unicode="&#x3c4;" 
 />
    <glyph glyph-name="phi" unicode="&#x3c6;" 
 />
    <glyph glyph-name="arrowleft" unicode="&#x2190;" 
 />
    <glyph glyph-name="arrowup" unicode="&#x2191;" 
 />
    <glyph glyph-name="arrowdown" unicode="&#x2193;" 
 />
    <glyph glyph-name="arrowboth" unicode="&#x2194;" 
 />
    <glyph glyph-name="arrowupdn" unicode="&#x2195;" 
 />
    <glyph glyph-name="arrowupdnbse" unicode="&#x21a8;" 
 />
    <glyph glyph-name="orthogonal" unicode="&#x221f;" 
 />
    <glyph glyph-name="intersection" unicode="&#x2229;" 
 />
    <glyph glyph-name="equivalence" unicode="&#x2261;" 
 />
    <glyph glyph-name="revlogicalnot" unicode="&#x2310;" 
 />
    <glyph glyph-name="integraltp" unicode="&#x2320;" 
 />
    <glyph glyph-name="integralbt" unicode="&#x2321;" 
 />
    <glyph glyph-name="filledrect" unicode="&#x25ac;" 
 />
    <glyph glyph-name="circle" unicode="&#x25cb;" 
 />
    <glyph glyph-name="triagup" unicode="&#x25b2;" 
 />
    <glyph glyph-name="triagrt" unicode="&#x25ba;" 
 />
    <glyph glyph-name="triagdn" unicode="&#x25bc;" 
 />
    <glyph glyph-name="triaglf" unicode="&#x25c4;" 
 />
    <glyph glyph-name="invbullet" unicode="&#x25d8;" 
 />
    <glyph glyph-name="invcircle" unicode="&#x25d9;" 
 />
    <glyph glyph-name="Rcaron" unicode="&#x158;" 
 />
    <glyph glyph-name="upblock" unicode="&#x2580;" 
 />
    <glyph glyph-name="dnblock" unicode="&#x2584;" 
 />
    <glyph glyph-name="block" unicode="&#x2588;" 
 />
    <glyph glyph-name="lfblock" unicode="&#x258c;" 
 />
    <glyph glyph-name="rtblock" unicode="&#x2590;" 
 />
    <glyph glyph-name="ltshade" unicode="&#x2591;" 
 />
    <glyph glyph-name="shade" unicode="&#x2592;" 
 />
    <glyph glyph-name="dkshade" unicode="&#x2593;" 
 />
    <glyph glyph-name="smileface" unicode="&#x263a;" 
 />
    <glyph glyph-name="invsmileface" unicode="&#x263b;" 
 />
    <glyph glyph-name="sun" unicode="&#x263c;" 
 />
    <glyph glyph-name="female" unicode="&#x2640;" 
 />
    <glyph glyph-name="male" unicode="&#x2642;" 
 />
    <glyph glyph-name="spade" unicode="&#x2660;" 
 />
    <glyph glyph-name="club" unicode="&#x2663;" 
 />
    <glyph glyph-name="heart" unicode="&#x2665;" 
 />
    <glyph glyph-name="diamond" unicode="&#x2666;" 
 />
    <glyph glyph-name="musicalnote" unicode="&#x266a;" 
 />
    <glyph glyph-name="musicalnotedbl" unicode="&#x266b;" 
 />
    <glyph glyph-name="Abreve" unicode="&#x102;" 
 />
    <glyph glyph-name="abreve" unicode="&#x103;" 
 />
    <glyph glyph-name="Aogonek" unicode="&#x104;" 
 />
    <glyph glyph-name="aogonek" unicode="&#x105;" 
 />
    <glyph glyph-name="Dcaron" unicode="&#x10e;" 
 />
    <glyph glyph-name="dcaron" unicode="&#x10f;" 
 />
    <glyph glyph-name="Dcroat" unicode="&#x110;" 
 />
    <glyph glyph-name="Eogonek" unicode="&#x118;" 
 />
    <glyph glyph-name="eogonek" unicode="&#x119;" 
 />
    <glyph glyph-name="Ecaron" unicode="&#x11a;" 
 />
    <glyph glyph-name="ecaron" unicode="&#x11b;" 
 />
    <glyph glyph-name="Lacute" unicode="&#x139;" 
 />
    <glyph glyph-name="lacute" unicode="&#x13a;" 
 />
    <glyph glyph-name="Lcaron" unicode="&#x13d;" 
 />
    <glyph glyph-name="lcaron" unicode="&#x13e;" 
 />
    <glyph glyph-name="Nacute" unicode="&#x143;" 
 />
    <glyph glyph-name="nacute" unicode="&#x144;" 
 />
    <glyph glyph-name="Ncaron" unicode="&#x147;" 
 />
    <glyph glyph-name="ncaron" unicode="&#x148;" 
 />
    <glyph glyph-name="Ohungarumlaut" unicode="&#x150;" 
 />
    <glyph glyph-name="ohungarumlaut" unicode="&#x151;" 
 />
    <glyph glyph-name="Racute" unicode="&#x154;" 
 />
    <glyph glyph-name="racute" unicode="&#x155;" 
 />
    <glyph glyph-name="rcaron" unicode="&#x159;" 
 />
    <glyph glyph-name="Sacute" unicode="&#x15a;" 
 />
    <glyph glyph-name="sacute" unicode="&#x15b;" 
 />
    <glyph glyph-name="uni0162" unicode="&#x162;" 
 />
    <glyph glyph-name="uni0163" unicode="&#x163;" 
 />
    <glyph glyph-name="Tcaron" unicode="&#x164;" 
 />
    <glyph glyph-name="tcaron" unicode="&#x165;" 
 />
    <glyph glyph-name="Uring" unicode="&#x16e;" 
 />
    <glyph glyph-name="uring" unicode="&#x16f;" 
 />
    <glyph glyph-name="uhungarumlaut" unicode="&#x171;" 
 />
    <glyph glyph-name="Uhungarumlaut" unicode="&#x170;" 
 />
    <glyph glyph-name="Zacute" unicode="&#x179;" 
 />
    <glyph glyph-name="zacute" unicode="&#x17a;" 
 />
    <glyph glyph-name="Zdotaccent" unicode="&#x17b;" 
 />
    <glyph glyph-name="zdotaccent" unicode="&#x17c;" 
 />
    <glyph glyph-name="Ldot" unicode="&#x13f;" 
 />
    <glyph glyph-name="ldot" unicode="&#x140;" 
 />
    <glyph glyph-name="SF100000" unicode="&#x2500;" 
 />
    <glyph glyph-name="SF110000" unicode="&#x2502;" 
 />
    <glyph glyph-name="SF010000" unicode="&#x250c;" 
 />
    <glyph glyph-name="SF030000" unicode="&#x2510;" 
 />
    <glyph glyph-name="SF020000" unicode="&#x2514;" 
 />
    <glyph glyph-name="SF040000" unicode="&#x2518;" 
 />
    <glyph glyph-name="SF080000" unicode="&#x251c;" 
 />
    <glyph glyph-name="SF090000" unicode="&#x2524;" 
 />
    <glyph glyph-name="SF060000" unicode="&#x252c;" 
 />
    <glyph glyph-name="SF070000" unicode="&#x2534;" 
 />
    <glyph glyph-name="SF050000" unicode="&#x253c;" 
 />
    <glyph glyph-name="SF430000" unicode="&#x2550;" 
 />
    <glyph glyph-name="SF240000" unicode="&#x2551;" 
 />
    <glyph glyph-name="SF510000" unicode="&#x2552;" 
 />
    <glyph glyph-name="SF520000" unicode="&#x2553;" 
 />
    <glyph glyph-name="SF390000" unicode="&#x2554;" 
 />
    <glyph glyph-name="SF220000" unicode="&#x2555;" 
 />
    <glyph glyph-name="SF210000" unicode="&#x2556;" 
 />
    <glyph glyph-name="SF250000" unicode="&#x2557;" 
 />
    <glyph glyph-name="SF500000" unicode="&#x2558;" 
 />
    <glyph glyph-name="SF490000" unicode="&#x2559;" 
 />
    <glyph glyph-name="SF380000" unicode="&#x255a;" 
 />
    <glyph glyph-name="SF280000" unicode="&#x255b;" 
 />
    <glyph glyph-name="SF270000" unicode="&#x255c;" 
 />
    <glyph glyph-name="SF260000" unicode="&#x255d;" 
 />
    <glyph glyph-name="SF360000" unicode="&#x255e;" 
 />
    <glyph glyph-name="SF370000" unicode="&#x255f;" 
 />
    <glyph glyph-name="SF420000" unicode="&#x2560;" 
 />
    <glyph glyph-name="SF190000" unicode="&#x2561;" 
 />
    <glyph glyph-name="SF200000" unicode="&#x2562;" 
 />
    <glyph glyph-name="SF230000" unicode="&#x2563;" 
 />
    <glyph glyph-name="SF470000" unicode="&#x2564;" 
 />
    <glyph glyph-name="SF480000" unicode="&#x2565;" 
 />
    <glyph glyph-name="SF410000" unicode="&#x2566;" 
 />
    <glyph glyph-name="SF450000" unicode="&#x2567;" 
 />
    <glyph glyph-name="SF460000" unicode="&#x2568;" 
 />
    <glyph glyph-name="SF400000" unicode="&#x2569;" 
 />
    <glyph glyph-name="SF540000" unicode="&#x256a;" 
 />
    <glyph glyph-name="SF530000" unicode="&#x256b;" 
 />
    <glyph glyph-name="SF440000" unicode="&#x256c;" 
 />
    </font>
</defs>
</svg>
